Source-HROTx_VROTx.ufo
<glyph name="exclam" format="2">
  <advance width="205"/>
  <unicode hex="0021"/>
  <outline>
    <contour>
      <point x="71.66369055210983" y="204.0380592228744" type="curve" name="CJUVSMSB"/>
      <point x="105.8474567361834" y="209.6949134723668" name="AKXYQGFY"/>
      <point x="146.1525432638166" y="209.6949134723668" name="PFODSDYK"/>
      <point x="188.3363094478902" y="204.0380592228744" type="curve" name="XMVMYDQB"/>
      <point x="247.75052301026324" y="325.6604255869606" name="BZNDWZDM"/>
      <point x="343.9576297914498" y="398.492424049175" name="YFECCLUR"/>
      <point x="475.3718433538229" y="418.2914139223983" type="curve" name="KAFVSLOL"/>
      <point x="429.3596500450031" y="425.36248173426384" name="QIQGJZEC"/>
      <point x="387.6403499549968" y="425.36248173426384" name="WXCDCRPW"/>
      <point x="351.62815664617705" y="418.2914139223983" type="curve" name="UPJSRWDH"/>
      <point x="223.04237020855015" y="398.492424049175" name="LOUDNBRD"/>
      <point x="128.2494769897367" y="325.6604255869606" name="NTDHTRZU"/>
    </contour>
    <contour>
      <point x="61.85355339059329" y="-68.1980515339464" type="curve" name="BBSTKKVC"/>
      <point x="102.1586399182265" y="-68.1980515339464" name="SJQTALLA"/>
      <point x="145.5997654151808" y="-15.165042944955303" name="XQFSFVQE"/>
      <point x="158.0997654151808" y="47.76746058064742" type="curve" smooth="yes" name="PFIKYZGV"/>
      <point x="170.5997654151808" y="109.28575054387704" name="JTRXRFTN"/>
      <point x="147.6586399182265" y="160.19743878930848" name="PAPMZTUQ"/>
      <point x="107.35355339059328" y="160.19743878930848" type="curve" smooth="yes" name="XVHYZJHL"/>
      <point x="65.63425330058698" y="160.19743878930848" name="MIPEDJKU"/>
      <point x="20.90023458481923" y="109.9928573250636" name="KCRYXYXQ"/>
      <point x="8.900234584819245" y="47.76746058064742" type="curve" smooth="yes" name="SCUTBSOQ"/>
      <point x="-3.599765415180755" y="-15.165042944955303" name="SOHFPQIG"/>
      <point x="20.134253300586977" y="-68.1980515339464" name="SXVGFAQI"/>
      <point x="61.85355339059329" y="-68.1980515339464" type="curve" name="AYCPPJHG"/>
      <point x="61.85355339059329" y="-68.1980515339464" name="YADJHZJG"/>
      <point x="61.85355339059329" y="-68.1980515339464" name="DJVMVVHB"/>
    </contour>
  </outline>
</glyph>
<glyph name="quotedbl" format="2">
  <advance width="366"/>
  <unicode hex="0022"/>
  <outline>
    <contour>
      <point x="206.5136726052349" y="245.05025253169418" type="curve" name="BRAWXETQ"/>
      <point x="235.2476913210026" y="251.4142135623731" name="IHEANHZC"/>
      <point x="265.9817100367703" y="254.94974746830584" name="LQONUVZZ"/>
      <point x="298.2157287525381" y="256.3639610306789" type="curve" name="RCVPUWHX"/>
      <point x="311.2512626584708" y="374.45079348883235" name="SVXRKGNS"/>
      <point x="361.579689783217" y="443.0401512639275" name="DTRYZIOT"/>
      <point x="449.11522368914973" y="455.76807332528534" type="curve" name="VTNEMKKY"/>
      <point x="410.01724394270303" y="455.0609665440988" name="BUIWVREG"/>
      <point x="373.21215741506984" y="450.111219075793" name="CZCCAUTX"/>
      <point x="339.11417766862314" y="442.33304448274095" type="curve" name="CSQMYDSS"/>
      <point x="258.1497115745559" y="430.31222920256965" name="SRJGCSXL"/>
      <point x="212.97813869930212" y="362.42997820866105" name="FOVJVYQE"/>
    </contour>
    <contour>
      <point x="354.7842712474619" y="256.3639610306789" type="curve" name="CMPQORHL"/>
      <point x="389.0182899632297" y="254.94974746830584" name="NYUWTDXN"/>
      <point x="424.7523086789974" y="251.4142135623731" name="VXLQFRZB"/>
      <point x="462.4863273947651" y="245.05025253169418" type="curve" name="AMRYWMNX"/>
      <point x="476.02186130069776" y="362.42997820866105" name="WQPDQAZD"/>
      <point x="526.850288425444" y="430.31222920256965" name="NNFHGJOM"/>
      <point x="614.8858223313767" y="442.33304448274095" type="curve" name="BHBHOOVS"/>
      <point x="569.7878425849301" y="450.111219075793" name="FVUEXRJN"/>
      <point x="525.9827560572969" y="455.0609665440988" name="DACDAUHB"/>
      <point x="485.88477631085016" y="455.76807332528534" type="curve" name="CRFIMTTH"/>
      <point x="405.420310216783" y="443.0401512639275" name="ZGPBQCYE"/>
      <point x="360.74873734152914" y="374.45079348883235" name="TFZQOLSU"/>
    </contour>
  </outline>
</glyph>
<glyph name="numbersign" format="2">
  <advance width="494"/>
  <unicode hex="0023"/>
  <outline>
    <contour>
      <point x="19.832431738102997" y="119.1852454804887" type="curve" name="PWRDYSNP"/>
      <point x="39.4598487360725" y="123.427886167608" name="VACECUNV"/>
      <point x="60.50147929641514" y="127.67052685472727" name="FXUTVCAV"/>
      <point x="81.12889629438465" y="130.49895397947347" type="curve" name="JJJAJOUH"/>
      <point x="65.30046916963846" y="81.00147929641514" name="BKTONFLT"/>
      <point x="53.472042044892305" y="23.01872323911823" name="OGPOVGWG"/>
      <point x="46.14361492014612" y="-38.49956672411139" type="curve" name="BENGPFKJ"/>
      <point x="77.08474041710039" y="-34.25692603699213" name="FOTDEGAQ"/>
      <point x="109.23297269524122" y="-30.72139213105936" name="WXJMUPUQ"/>
      <point x="141.67409819219552" y="-28.6000717874997" type="curve" name="SNGEQRRN"/>
      <point x="149.5025253169417" y="32.211111394543366" name="PDVVUHIR"/>
      <point x="161.83095244168788" y="89.48676067065372" name="MBIZXOBM"/>
      <point x="177.15937956643404" y="139.69134213489858" type="curve" name="EEKTSNMQ"/>
      <point x="198.57968978321702" y="140.39844891608513" name="SJWWCRBX"/>
      <point x="220.70710678118655" y="141.10555569727168" name="LFKLOMKL"/>
      <point x="243.12741699796953" y="140.39844891608513" type="curve" name="LYJNTZME"/>
      <point x="227.29898987322332" y="90.9009742330268" name="YPYLPWSG"/>
      <point x="214.97056274847716" y="33.625324956916444" name="VCWVIXGN"/>
      <point x="207.64213562373095" y="-27.892965006313148" type="curve" name="SPCGOXNO"/>
      <point x="241.58326112068528" y="-27.892965006313148" name="MAUWTLHU"/>
      <point x="277.7314933988261" y="-30.014285349872807" name="GULQVCBZ"/>
      <point x="314.6726188957804" y="-34.25692603699213" type="curve" name="FWHOQCMA"/>
      <point x="322.5010460205266" y="26.55425714505097" name="YZKCHCNS"/>
      <point x="334.82947314527274" y="83.82990642116133" name="ZDVUOJAA"/>
      <point x="350.6579002700189" y="133.32738110421965" type="curve" name="COFQAZPF"/>
      <point x="382.8563850798539" y="129.79184719828692" name="XQPTBXLY"/>
      <point x="417.469083452062" y="124.84209972998107" name="SOUNSIIN"/>
      <point x="451.16756826189703" y="119.1852454804887" type="curve" name="GUACJBQD"/>
      <point x="464.66756826189703" y="167.9756133823605" name="NNFDGPTC"/>
      <point x="481.66756826189703" y="213.23044737829952" name="IJKWOCNC"/>
      <point x="503.16756826189703" y="250.70710678118655" type="curve" name="WWGCHJLG"/>
      <point x="472.0904037956217" y="255.6568542494924" name="OJYGSLYR"/>
      <point x="441.01323932934633" y="260.60660171779824" name="COFIHMHP"/>
      <point x="410.936074863071" y="264.14213562373095" type="curve" name="FUPLJLNI"/>
      <point x="427.55739520663064" y="288.8908729652601" name="HKUVCLLM"/>
      <point x="445.97160876900375" y="312.9325035256027" name="LRPKIEDX"/>
      <point x="466.0929291125633" y="332.73149339882605" type="curve" name="VJRYBCHW"/>
      <point x="494.048773235279" y="329.19595949289334" name="SGQFWWGL"/>
      <point x="523.2117241391813" y="324.9533188057741" name="BCZJSHQF"/>
      <point x="552.167568261897" y="320.0035713374682" type="curve" name="UUZVKPOP"/>
      <point x="579.167568261897" y="349.7020561473032" name="ZHYDPSVN"/>
      <point x="610.667568261897" y="374.45079348883235" name="DMRMLIJI"/>
      <point x="645.167568261897" y="393.54267658086917" type="curve" name="RSCDKTDR"/>
      <point x="619.5401512639274" y="397.78531726798843" name="EPWQZQKC"/>
      <point x="592.4985207035849" y="402.0279579551077" name="ANWAYPTP"/>
      <point x="567.8711037056153" y="404.8563850798539" type="curve" name="TLINMLNP"/>
      <point x="605.6995308303615" y="423.2411613907042" name="UPZUNTNK"/>
      <point x="649.5279579551077" y="435.969083452062" name="RABPNDBC"/>
      <point x="695.8563850798539" y="442.33304448274095" type="curve" name="XYMEVXCF"/>
      <point x="658.9152595828996" y="446.5756851698602" name="DMTSXSHS"/>
      <point x="621.7670273047588" y="450.111219075793" name="KMDOGPUZ"/>
      <point x="586.3259018078045" y="452.23253941935263" type="curve" name="SZALAAIW"/>
      <point x="540.4974746830583" y="445.16147160748716" name="KFENBCCG"/>
      <point x="497.16904755831206" y="431.7264427649427" name="SKIKYOYZ"/>
      <point x="458.84062043356596" y="414.04877323527904" type="curve" name="NGJBIGNN"/>
      <point x="436.4203102167829" y="414.75588001646554" name="LKPRDKCS"/>
      <point x="413.29289321881345" y="415.4629867976521" name="RHLCHXIR"/>
      <point x="391.8725830020304" y="414.75588001646554" type="curve" name="SNSHNPAS"/>
      <point x="429.7010101267766" y="433.1406563273158" name="IVYPFXAD"/>
      <point x="473.02943725152284" y="446.5756851698602" name="USGERXYZ"/>
      <point x="519.3578643762689" y="452.9396462005392" type="curve" name="QOSEQQUE"/>
      <point x="485.4167388793147" y="452.9396462005392" name="BAXFOSNL"/>
      <point x="452.26850660117384" y="450.8183258569795" name="JQWMIEQX"/>
      <point x="421.3273811042196" y="446.5756851698602" type="curve" name="MICYEWNF"/>
      <point x="375.4989539794734" y="439.5046173579948" name="UIOBBQGC"/>
      <point x="332.17052685472726" y="426.0695885154504" name="TYPJNHYD"/>
      <point x="294.34209972998104" y="407.6848122046001" type="curve" name="XNCQIXDF"/>
      <point x="267.1436149201461" y="404.14927829866735" name="CSLVTLVH"/>
      <point x="239.53091654793798" y="399.19953083036154" name="BRAHXCLC"/>
      <point x="213.83243173810297" y="393.54267658086917" type="curve" name="BKEDWDSW"/>
      <point x="179.33243173810297" y="374.45079348883235" name="JFVSGOTI"/>
      <point x="147.33243173810297" y="350.40916292848976" name="GFVBIBZH"/>
      <point x="120.83243173810297" y="320.0035713374682" type="curve" name="EUETPTWH"/>
      <point x="144.90959620437835" y="324.9533188057741" name="HXCILCKD"/>
      <point x="168.98676067065367" y="329.9030662740799" name="XDMSSTXK"/>
      <point x="194.06392513692902" y="333.4386001800126" type="curve" name="DHMSJFXU"/>
      <point x="174.4426047933694" y="312.9325035256027" name="YATTTJWY"/>
      <point x="156.0283912309963" y="288.8908729652601" name="YHHDZADA"/>
      <point x="139.90707088743667" y="263.4350288425444" type="curve" name="EBPFIXCI"/>
      <point x="116.95122676472096" y="259.8994949366117" name="RBIVHBTM"/>
      <point x="93.78827586081871" y="255.6568542494924" name="NDDLTXXK"/>
      <point x="71.832431738103" y="250.70710678118655" type="curve" name="VKQOCNYT"/>
      <point x="50.832431738103" y="212.523340597113" name="LSAWGORE"/>
      <point x="33.332431738103" y="167.9756133823605" name="LAYKAUON"/>
    </contour>
    <contour>
      <point x="236.93755415948607" y="271.2132034355964" type="curve" name="GMDUMCHA"/>
      <point x="253.05887450304573" y="296.6690475583122" name="MQDLNOAK"/>
      <point x="271.4730880654188" y="320.71067811865476" name="NUBJHVLW"/>
      <point x="291.59440840897844" y="340.50966799187813" type="curve" name="UUEZRCLC"/>
      <point x="313.0147186257614" y="341.2167747730646" name="KOJROIOZ"/>
      <point x="335.64213562373095" y="341.2167747730646" name="ZHRBVASG"/>
      <point x="358.06244584051393" y="340.50966799187813" type="curve" name="BMHZJGRN"/>
      <point x="337.94112549695427" y="320.71067811865476" name="SSEXOPLH"/>
      <point x="319.52691193458116" y="296.6690475583122" name="NHDHOXTI"/>
      <point x="303.40559159102156" y="271.2132034355964" type="curve" name="QWMTTEGD"/>
      <point x="280.9852813742386" y="271.920310216783" name="SOAWFIJU"/>
      <point x="258.35786437626905" y="271.920310216783" name="BOIKJZWR"/>
    </contour>
  </outline>
</glyph>
<glyph name="dollar" format="2">
  <advance width="354"/>
  <unicode hex="0024"/>
  <outline>
    <contour>
      <point x="15" y="-116" type="curve" name="MREWAKZL"/>
      <point x="47" y="-113" name="PWLLZUNA"/>
      <point x="82" y="-112" name="IFPBRVII"/>
      <point x="118" y="-113" type="curve" name="NMHXINIV"/>
      <point x="125" y="-60" name="ADDDFKVY"/>
      <point x="133" y="-10" name="WCOWEQYW"/>
      <point x="144" y="37" type="curve" name="JNCYRCZK"/>
      <point x="221" y="56" name="MOPYVEKG"/>
      <point x="290" y="112" name="MPFZLMOE"/>
      <point x="330" y="204" type="curve" smooth="yes" name="VVVZLZFA"/>
      <point x="412" y="389" name="CFFSYOJC"/>
      <point x="220" y="363" name="TETQMPHL"/>
      <point x="263" y="400" type="curve" smooth="yes" name="KXPJLLLM"/>
      <point x="293" y="426" name="PEVEHJUF"/>
      <point x="369" y="434" name="EXWCKVVY"/>
      <point x="434" y="388" type="curve" name="RYFSMVCX"/>
      <point x="468" y="418" name="XYGKTDXO"/>
      <point x="508" y="443" name="PHLBAKID"/>
      <point x="550" y="460" type="curve" name="BPUDJJUO"/>
      <point x="532" y="467" name="GKSWQDDV"/>
      <point x="512" y="472" name="AVKCTPQR"/>
      <point x="492" y="475" type="curve" name="YLZXHWYC"/>
      <point x="524" y="487" name="FQCFGJGW"/>
      <point x="559" y="494" name="YLHNUNDD"/>
      <point x="595" y="499" type="curve" name="YVWYOALM"/>
      <point x="558" y="503" name="LBKIGCPK"/>
      <point x="522" y="504" name="BPWQESKQ"/>
      <point x="488" y="502" type="curve" name="PYMCDKRG"/>
      <point x="449" y="496" name="DKMEFQVS"/>
      <point x="413" y="487" name="ZVPZPTID"/>
      <point x="379" y="475" type="curve" name="PJSLFBZZ"/>
      <point x="294" y="464" name="APCYNBCW"/>
      <point x="205" y="435" name="DKXIADTE"/>
      <point x="147" y="383" type="curve" smooth="yes" name="PJKZVZIF"/>
      <point x="20" y="273" name="VFSPMIUP"/>
      <point x="223" y="281" name="EZIMYHQG"/>
      <point x="196" y="220" type="curve" smooth="yes" name="DKJKMRAS"/>
      <point x="175" y="173" name="VHFPIQAP"/>
      <point x="86" y="177" name="EWKRXEVQ"/>
      <point x="24" y="204" type="curve" name="ZIWLECKL"/>
      <point x="3" y="156" name="EKYXEOSQ"/>
      <point x="-15" y="101" name="KJMOKHHD"/>
      <point x="-27" y="41" type="curve" name="EUAZMAHN"/>
      <point x="-7" y="35" name="PNQDBFUB"/>
      <point x="16" y="30" name="UAYLJMGL"/>
      <point x="39" y="29" type="curve" name="QZTINQPN"/>
      <point x="29" y="-16" name="PFLQWVGN"/>
      <point x="21" y="-65" name="KTEEQMGJ"/>
    </contour>
  </outline>
</glyph>
<glyph name="percent" format="2">
  <advance width="723"/>
  <unicode hex="0025"/>
  <outline>
    <contour>
      <point x="179" y="247" type="curve" name="MSLZWSYW"/>
      <point x="257" y="257" name="XZBYOWBG"/>
      <point x="350" y="341" name="NKZMSNOO"/>
      <point x="432" y="401" type="curve" smooth="yes" name="YBNTYGIE"/>
      <point x="512" y="461" name="IWMMEZEI"/>
      <point x="541" y="469" name="WESZGRTJ"/>
      <point x="463" y="459" type="curve" smooth="yes" name="GVRCONXR"/>
      <point x="384" y="449" name="OEVYLYQI"/>
      <point x="247" y="428" name="NUQGYWEB"/>
      <point x="166" y="368" type="curve" smooth="yes" name="GEBBFCQC"/>
      <point x="85" y="308" name="KHHYDMFL"/>
      <point x="100" y="237" name="FTXCZMYX"/>
      <point x="179" y="247" type="curve" name="ODSXKRHU"/>
      <point x="179" y="247" name="UCAYNMCV"/>
      <point x="179" y="247" name="DLHWESSO"/>
    </contour>
    <contour>
      <point x="112" y="-24" type="curve" name="CNCZWBVG"/>
      <point x="142" y="-20" name="WZJZQIXW"/>
      <point x="174" y="-17" name="RNRFAHBQ"/>
      <point x="207" y="-16" type="curve" name="WVPBCGRZ"/>
      <point x="322" y="269" name="XITJDHJP"/>
      <point x="534" y="431" name="TGMNTXKH"/>
      <point x="832" y="458" type="curve" name="TNDJFHVB"/>
      <point x="796" y="461" name="VDGXQHTL"/>
      <point x="760" y="464" name="KJDHNRYJ"/>
      <point x="726" y="465" type="curve" name="ZQVDVNEZ"/>
      <point x="432" y="434" name="UUQULFVG"/>
      <point x="223" y="267" name="QBWWBUOM"/>
    </contour>
    <contour>
      <point x="242" y="342" type="curve" name="FYUGQCPN"/>
      <point x="213" y="339" name="TBFLWSVT"/>
      <point x="215" y="359" name="KZDFLSNS"/>
      <point x="250" y="385" type="curve" smooth="yes" name="KQTMHGDS"/>
      <point x="285" y="410" name="OJUQCWAA"/>
      <point x="326" y="424" name="FOZWTEKB"/>
      <point x="355" y="427" type="curve" smooth="yes" name="IZVIEBZI"/>
      <point x="384" y="431" name="AAEIGDHB"/>
      <point x="376" y="421" name="GYVICJRL"/>
      <point x="341" y="396" type="curve" smooth="yes" name="QNIYKMJX"/>
      <point x="306" y="371" name="PFQDDGNA"/>
      <point x="271" y="346" name="WNLUVRTY"/>
      <point x="242" y="342" type="curve" name="FSGOXVBE"/>
      <point x="242" y="342" name="HLSQHDTX"/>
      <point x="242" y="342" name="CLTNSROY"/>
    </contour>
    <contour>
      <point x="494" y="-42" type="curve" name="PPXGDAMK"/>
      <point x="586" y="-52" name="DUXEZILR"/>
      <point x="660" y="60" name="RMYKCVAI"/>
      <point x="703" y="175" type="curve" smooth="yes" name="JVKKTUVO"/>
      <point x="746" y="289" name="LLRWWNNC"/>
      <point x="736" y="350" name="DGZNPEJL"/>
      <point x="644" y="360" type="curve" smooth="yes" name="KBLLYBJU"/>
      <point x="551" y="370" name="AWHUIVIH"/>
      <point x="434" y="322" name="ZJGBJRVM"/>
      <point x="391" y="208" type="curve" smooth="yes" name="PXJCLBBY"/>
      <point x="348" y="93" name="GWRXCOXF"/>
      <point x="401" y="-32" name="LSZQJCFP"/>
      <point x="494" y="-42" type="curve" name="VHHPIKLW"/>
      <point x="494" y="-42" name="CGEPOPOZ"/>
      <point x="494" y="-42" name="NOJRNKLD"/>
    </contour>
    <contour>
      <point x="517" y="111" type="curve" name="SCLZXOYO"/>
      <point x="483" y="115" name="PXZYLROK"/>
      <point x="472" y="154" name="AEUAPHLF"/>
      <point x="490" y="203" type="curve" smooth="yes" name="UYVNUYYK"/>
      <point x="509" y="252" name="RBNNPPQC"/>
      <point x="543" y="274" name="OOZSKHJT"/>
      <point x="577" y="271" type="curve" smooth="yes" name="BSPHTTMV"/>
      <point x="611" y="267" name="ORMBMEVF"/>
      <point x="616" y="240" name="GTXOXELE"/>
      <point x="598" y="191" type="curve" smooth="yes" name="ARIJYICT"/>
      <point x="579" y="142" name="ZWZRWSXO"/>
      <point x="551" y="108" name="GQAUVJXE"/>
      <point x="517" y="111" type="curve" name="IXPSOTZC"/>
      <point x="517" y="111" name="ODIYNRHC"/>
      <point x="517" y="111" name="TRQWFUUU"/>
    </contour>
  </outline>
</glyph>
<glyph name="ampersand" format="2">
  <advance width="448"/>
  <unicode hex="0026"/>
  <outline>
    <contour>
      <point x="385" y="187" type="curve" name="UWCKJGGV"/>
      <point x="393" y="209" name="WYWGSPAE"/>
      <point x="402" y="230" name="GHFTXBWD"/>
      <point x="413" y="249" type="curve" name="NFKSIWHS"/>
      <point x="428" y="247" name="TCALRSFM"/>
      <point x="446" y="244" name="WCRRULJN"/>
      <point x="462" y="241" type="curve" name="XYMKGKMO"/>
      <point x="483" y="281" name="FWVQQHYF"/>
      <point x="508" y="316" name="LIGUTPGQ"/>
      <point x="538" y="344" type="curve" name="LPGOCSIS"/>
      <point x="522" y="347" name="VQDQBOVE"/>
      <point x="504" y="349" name="XTHMHXTS"/>
      <point x="488" y="351" type="curve" name="LOGAPJBX"/>
      <point x="503" y="365" name="ZKKIGVZC"/>
      <point x="518" y="378" name="HFRVQRCB"/>
      <point x="534" y="390" type="curve" name="XYMFOMIH"/>
      <point x="492" y="395" name="TQOBWPEN"/>
      <point x="449" y="400" name="UWNOPFPT"/>
      <point x="410" y="401" type="curve" name="USHRPNIF"/>
      <point x="393" y="390" name="RZAPTRNM"/>
      <point x="377" y="378" name="YEICMZMJ"/>
      <point x="363" y="364" type="curve" name="JKHMQELL"/>
      <point x="291" y="366" name="GGASUPXB"/>
      <point x="259" y="371" name="XFZBRVTV"/>
      <point x="286" y="390" type="curve" smooth="yes" name="FPUJDRAI"/>
      <point x="327" y="421" name="XNRWMJJM"/>
      <point x="420" y="426" name="EOXDTIVS"/>
      <point x="482" y="405" type="curve" name="DLJFTQAN"/>
      <point x="520" y="428" name="WCCSDGDA"/>
      <point x="563" y="444" name="YDVAOPDW"/>
      <point x="611" y="453" type="curve" name="AIDYSDTN"/>
      <point x="504" y="475" name="ZSPZNRAP"/>
      <point x="306" y="465" name="TIMWABYF"/>
      <point x="187" y="383" type="curve" smooth="yes" name="JXJOMDGO"/>
      <point x="147" y="355" name="ETFHYWLE"/>
      <point x="131" y="327" name="MLTYLTDQ"/>
      <point x="145" y="306" type="curve" name="DLKZRPSD"/>
      <point x="85" y="272" name="MZRMIFPB"/>
      <point x="41" y="223" name="USUMWQIB"/>
      <point x="20" y="159" type="curve" smooth="yes" name="JXQQPHMY"/>
      <point x="-20" y="41" name="TJDADQSW"/>
      <point x="40" y="-43" name="QZKQZTNP"/>
      <point x="141" y="-40" type="curve" smooth="yes" name="VFFCJOTL"/>
      <point x="250" y="-37" name="PLDXEKLY"/>
      <point x="338" y="62" name="ORSVLLSX"/>
      <point x="385" y="187" type="curve" name="TDMWLAYD"/>
      <point x="385" y="187" name="IFUYEGZX"/>
      <point x="385" y="187" name="ARZRNAPQ"/>
    </contour>
    <contour>
      <point x="140" y="199" type="curve" name="SIYQHMWV"/>
      <point x="160" y="253" name="UNLEGDCB"/>
      <point x="208" y="264" name="GSZHTEJL"/>
      <point x="288" y="261" type="curve" name="CTKZPHHW"/>
      <point x="280" y="245" name="PKDJAHMW"/>
      <point x="272" y="228" name="IMOSHBSH"/>
      <point x="265" y="211" type="curve" smooth="yes" name="BMCAUHNY"/>
      <point x="247" y="166" name="MJAIIQPY"/>
      <point x="213" y="138" name="HATVCKWL"/>
      <point x="174" y="137" type="curve" smooth="yes" name="RJSPBNLG"/>
      <point x="138" y="136" name="PZTFEKSE"/>
      <point x="126" y="164" name="CDWVHRZQ"/>
      <point x="140" y="199" type="curve" name="TNBJYVAD"/>
      <point x="140" y="199" name="GQSRNTNI"/>
      <point x="140" y="199" name="YRVSOBZF"/>
    </contour>
  </outline>
</glyph>
<glyph name="quotesingle" format="2">
  <advance width="211"/>
  <unicode hex="0027"/>
  <outline>
    <contour>
      <point x="190" y="270" type="curve" name="ZSGDGANZ"/>
      <point x="219" y="275" name="OUUUNAIF"/>
      <point x="252" y="275" name="QRUIOZCX"/>
      <point x="289" y="270" type="curve" name="UWAYYOUI"/>
      <point x="302" y="388" name="OKGWHTYZ"/>
      <point x="354" y="455" name="DOPOBIBV"/>
      <point x="441" y="468" type="curve" name="CALPICWU"/>
      <point x="396" y="476" name="VUFETAIZ"/>
      <point x="356" y="476" name="JWTUGIZY"/>
      <point x="322" y="468" type="curve" name="WAIHVILT"/>
      <point x="241" y="455" name="MJMSUYPS"/>
      <point x="196" y="388" name="OEHJEYBV"/>
    </contour>
  </outline>
</glyph>
<glyph name="parenleft" format="2">
  <advance width="326"/>
  <unicode hex="0028"/>
  <outline>
    <contour>
      <point x="49" y="288" type="curve" name="DDRWKRZF"/>
      <point x="-106" y="70" name="YBRPAPWF"/>
      <point x="17" y="-141" name="PUEFYLKA"/>
      <point x="183" y="-203" type="curve" name="CFWQSXCT"/>
      <point x="188" y="-140" name="BGASQRST"/>
      <point x="197" y="-79" name="AZBHBYJN"/>
      <point x="208" y="-25" type="curve" name="ANEFMJOP"/>
      <point x="103" y="32" name="DWFHRPYH"/>
      <point x="49" y="149" name="KEQTKVSG"/>
      <point x="158" y="302" type="curve" smooth="yes" name="GGDELAGZ"/>
      <point x="266" y="456" name="MAJAGIWY"/>
      <point x="415" y="473" name="JLQQYUFY"/>
      <point x="554" y="464" type="curve" name="TTGDQRAM"/>
      <point x="592" y="480" name="FOLAAWSG"/>
      <point x="635" y="492" name="MVJNNCAF"/>
      <point x="679" y="499" type="curve" name="ESCLCTLL"/>
      <point x="488" y="525" name="SOQDDCJD"/>
      <point x="203" y="507" name="TLMKRLHW"/>
      <point x="49" y="288" type="curve" name="DRZNOAFF"/>
      <point x="49" y="288" name="CSKITHLD"/>
      <point x="49" y="288" name="NIYFDGPW"/>
    </contour>
  </outline>
</glyph>
<glyph name="parenright" format="2">
  <advance width="326"/>
  <unicode hex="0029"/>
  <outline>
    <contour>
      <point x="333" y="289" type="curve" name="XGBHGHRA"/>
      <point x="487" y="507" name="FKWHARGP"/>
      <point x="501" y="526" name="SBBAMCWR"/>
      <point x="396" y="500" type="curve" name="PNUWLXYH"/>
      <point x="351" y="493" name="MMWQNHNC"/>
      <point x="310" y="481" name="KMXNECFG"/>
      <point x="271" y="465" type="curve" name="QRJBJARE"/>
      <point x="329" y="474" name="BEPLNOWT"/>
      <point x="313" y="456" name="UFJLWYKL"/>
      <point x="204" y="303" type="curve" smooth="yes" name="JKEQPEMW"/>
      <point x="96" y="150" name="WHPUHNIX"/>
      <point x="17" y="33" name="KLBSQHPH"/>
      <point x="-75" y="-24" type="curve" name="DDJSHQXZ"/>
      <point x="-86" y="-80" name="IZPYNESK"/>
      <point x="-95" y="-138" name="RFIMKJKD"/>
      <point x="-100" y="-202" type="curve" name="HZRNNSOF"/>
      <point x="30" y="-140" name="JVZATBAF"/>
      <point x="178" y="70" name="KSKPBKAF"/>
      <point x="333" y="289" type="curve" name="QIZHBXAU"/>
      <point x="333" y="289" name="LQGVBOEM"/>
      <point x="333" y="289" name="PFOXVISJ"/>
    </contour>
  </outline>
</glyph>
<glyph name="asterisk" format="2">
  <advance width="434"/>
  <unicode hex="002A"/>
  <outline>
    <contour>
      <point x="294" y="127" type="curve" name="JUYLRINL"/>
      <point x="326" y="155" name="DDHUTAIF"/>
      <point x="362" y="181" name="CNQVYLFQ"/>
      <point x="398" y="203" type="curve" name="BUDHMPUT"/>
      <point x="389" y="244" name="ZKLBJCSH"/>
      <point x="384" y="283" name="METWDSYD"/>
      <point x="382" y="314" type="curve" name="LPOCFPHR"/>
      <point x="413" y="312" name="WLSVIHKD"/>
      <point x="446" y="307" name="NAVURQME"/>
      <point x="479" y="301" type="curve" name="UVXSKHTA"/>
      <point x="497" y="342" name="XOOGGAPP"/>
      <point x="521" y="377" name="SUHCURZF"/>
      <point x="550" y="401" type="curve" name="MVUZCFJO"/>
      <point x="517" y="408" name="KVKZMTFI"/>
      <point x="484" y="412" name="WFSQVBMB"/>
      <point x="453" y="415" type="curve" name="ASSVWPER"/>
      <point x="490" y="432" name="WOQAVBUD"/>
      <point x="532" y="447" name="HGRITNKD"/>
      <point x="576" y="455" type="curve" name="NQGJRHCT"/>
      <point x="562" y="466" name="UVKRQRQA"/>
      <point x="552" y="475" name="QHEGMIOR"/>
      <point x="543" y="479" type="curve" name="TAHSJRCG"/>
      <point x="496" y="475" name="VGNSXGQH"/>
      <point x="451" y="466" name="MBNDRTFF"/>
      <point x="411" y="452" type="curve" name="KPQQARFP"/>
      <point x="422" y="466" name="LBDYAHZK"/>
      <point x="437" y="475" name="WXUAZDDB"/>
      <point x="456" y="479" type="curve" name="HNYEWNOQ"/>
      <point x="407" y="475" name="UHFXEHUT"/>
      <point x="359" y="466" name="OAGHDNTV"/>
      <point x="315" y="455" type="curve" name="OKFFLZVB"/>
      <point x="301" y="447" name="BCWCHVIZ"/>
      <point x="289" y="432" name="BXRDTUYX"/>
      <point x="281" y="415" type="curve" name="UBNBJLLT"/>
      <point x="254" y="412" name="AEMTZIUM"/>
      <point x="227" y="408" name="QVCVCVCI"/>
      <point x="203" y="401" type="curve" name="JFIKZVSY"/>
      <point x="174" y="376" name="MAXXWLEJ"/>
      <point x="149" y="343" name="XONRVYHO"/>
      <point x="132" y="301" type="curve" name="ZVLTKNQR"/>
      <point x="156" y="307" name="BKXLVQEO"/>
      <point x="183" y="312" name="NHWEFMHT"/>
      <point x="210" y="314" type="curve" name="BQYWNUQQ"/>
      <point x="183" y="283" name="RDBXNFVF"/>
      <point x="158" y="244" name="YVFCMOKY"/>
      <point x="137" y="203" type="curve" name="LRRZYOAI"/>
      <point x="158" y="182" name="IRPXXXAD"/>
      <point x="181" y="155" name="MPLOXFXN"/>
      <point x="207" y="127" type="curve" name="ENPVCDUD"/>
      <point x="224" y="174" name="RZFQSTHI"/>
      <point x="246" y="215" name="KGGOEJEG"/>
      <point x="270" y="253" type="curve" name="BBUSZCCQ"/>
      <point x="274" y="216" name="XJHYPETX"/>
      <point x="283" y="174" name="MMRALEEO"/>
    </contour>
  </outline>
</glyph>
<glyph name="plus" format="2">
  <advance width="382"/>
  <unicode hex="002B"/>
  <outline>
    <contour>
      <point x="51" y="191" type="curve" name="JMPZHFOE"/>
      <point x="82" y="198" name="KDEXXYDL"/>
      <point x="114" y="203" name="PYCULWQU"/>
      <point x="148" y="205" type="curve" name="OWAMYAKS"/>
      <point x="129" y="159" name="WAZPXEPH"/>
      <point x="117" y="101" name="XPFYHTSN"/>
      <point x="111" y="35" type="curve" name="VBAOMKUG"/>
      <point x="146" y="37" name="IIXVXKHA"/>
      <point x="185" y="37" name="ORGHOENF"/>
      <point x="224" y="35" type="curve" name="VPEVQQVV"/>
      <point x="229" y="101" name="PPHRDOLC"/>
      <point x="242" y="158" name="PDEULDQN"/>
      <point x="260" y="205" type="curve" name="YYZDSHMP"/>
      <point x="297" y="203" name="EACKBOPU"/>
      <point x="336" y="198" name="LLXNEWUQ"/>
      <point x="377" y="191" type="curve" name="QWEXBYRT"/>
      <point x="395" y="237" name="HIJFRLSB"/>
      <point x="422" y="274" name="ZAJCEMQD"/>
      <point x="454" y="300" type="curve" name="JSJDXOCV"/>
      <point x="414" y="307" name="BCHNMNFX"/>
      <point x="375" y="312" name="VWJHABCR"/>
      <point x="338" y="315" type="curve" name="MZJYPRAI"/>
      <point x="371" y="342" name="QYAKGIFM"/>
      <point x="412" y="360" name="JSIUISUK"/>
      <point x="459" y="367" type="curve" name="MBELIOZN"/>
      <point x="420" y="370" name="NOEBXIHP"/>
      <point x="381" y="370" name="FKSFMUZT"/>
      <point x="346" y="367" type="curve" name="AQBLSURF"/>
      <point x="300" y="360" name="LQBUUBRW"/>
      <point x="258" y="342" name="PETWHYRX"/>
      <point x="225" y="315" type="curve" name="JVWKZEHM"/>
      <point x="192" y="312" name="TIMCCGXC"/>
      <point x="159" y="307" name="UCKUWDLQ"/>
      <point x="129" y="300" type="curve" name="NCUEZEPY"/>
      <point x="96" y="274" name="ONIICQFX"/>
      <point x="70" y="236" name="RDCMALKN"/>
    </contour>
  </outline>
</glyph>
<glyph name="comma" format="2">
  <advance width="211"/>
  <unicode hex="002C"/>
  <outline>
    <contour>
      <point x="-78.70636713297898" y="-106.38181771801999" type="curve" name="WPMNRETJ"/>
      <point x="-49.26524163602468" y="-100.01785668734101" name="UQRMTLXV"/>
      <point x="-16.824116139070384" y="-97.8965363437814" name="BOKIADEX"/>
      <point x="18.617009357883887" y="-100.01785668734101" type="curve" name="ZQXWHILQ"/>
      <point x="45.58757210636102" y="17.36186898962586" name="ELWHENXY"/>
      <point x="113.47234841721126" y="83.1227996399748" name="AFAXNOMY"/>
      <point x="216.44291116568843" y="93.02229457658646" type="curve" name="YCCNRZOT"/>
      <point x="171.34493141924173" y="100.80046916963849" name="WRWQIPVE"/>
      <point x="130.0398448916085" y="102.21468273201157" name="QMDWFXWP"/>
      <point x="93.44186514516184" y="97.97204204489228" type="curve" name="AZAETUBN"/>
      <point x="-0.8718433538228965" y="83.82990642116133" name="QJQTHNYJ"/>
      <point x="-59.39265863399419" y="13.826335083693095" name="GBCTBGII"/>
    </contour>
  </outline>
</glyph>
<glyph name="hyphen" format="2">
  <advance width="240"/>
  <unicode hex="002D"/>
  <outline>
    <contour>
      <point x="67" y="160" type="curve" name="RJKLKBOU"/>
      <point x="121" y="173" name="GEJSGJFC"/>
      <point x="186" y="173" name="CNZQCZFB"/>
      <point x="258" y="160" type="curve" name="KMBXQUUN"/>
      <point x="263" y="225" name="ZFINUYXN"/>
      <point x="289" y="262" name="BHINOBMH"/>
      <point x="335" y="269" type="curve" name="ZGEUODWB"/>
      <point x="263" y="282" name="ZZRWRQKW"/>
      <point x="198" y="282" name="LBIIDTUI"/>
      <point x="144" y="269" type="curve" name="OOMSGMPF"/>
      <point x="98" y="262" name="KRCXXAGZ"/>
      <point x="72" y="225" name="YVRQAGHL"/>
    </contour>
  </outline>
</glyph>
<glyph name="period" format="2">
  <advance width="205"/>
  <unicode hex="002E"/>
  <outline>
    <contour>
      <point x="37.35355339059329" y="-33.54981925580557" type="curve" name="EXTGIXRE"/>
      <point x="77.6586399182265" y="-33.54981925580557" name="EPKYJVOB"/>
      <point x="119.5997654151808" y="21.604509676745153" name="UHSXEWGT"/>
      <point x="148.0997654151808" y="61.909596204378374" type="curve" smooth="yes" name="ZIFBOYHD"/>
      <point x="176.0997654151808" y="101.50757595082501" name="RKMOFLAE"/>
      <point x="181.6586399182265" y="112.11417766862323" name="PUUQDLGA"/>
      <point x="140.85355339059328" y="112.82128444980978" type="curve" smooth="yes" name="XGSOSNKB"/>
      <point x="99.13425330058698" y="112.82128444980978" name="TVELTSDU"/>
      <point x="27.40023458481923" y="100.80046916963846" name="ONTYKQXU"/>
      <point x="-1.099765415180741" y="61.909596204378374" type="curve" smooth="yes" name="JTCPOVAJ"/>
      <point x="-29.59976541518074" y="21.604509676745153" name="QXXIUCOU"/>
      <point x="-4.365746699413023" y="-33.54981925580557" name="QGLKMUEM"/>
      <point x="37.35355339059329" y="-33.54981925580557" type="curve" name="ZUBEQAZK"/>
      <point x="37.35355339059329" y="-33.54981925580557" name="HGUQBZJT"/>
      <point x="37.35355339059329" y="-33.54981925580557" name="KBRTQKEZ"/>
    </contour>
  </outline>
</glyph>
<glyph name="slash" format="2">
  <advance width="346"/>
  <unicode hex="002F"/>
  <outline>
    <contour>
      <point x="-109" y="-175" type="curve" name="UBVWNORH"/>
      <point x="-76" y="-168" name="BKYDZCYI"/>
      <point x="-39" y="-162" name="HFAPIQPZ"/>
      <point x="-3" y="-160" type="curve" name="NRGVJFRE"/>
      <point x="95" y="235" name="VVCKEXCW"/>
      <point x="329" y="453" name="THTHWGUE"/>
      <point x="685" y="483" type="curve" name="CSULRHDR"/>
      <point x="642" y="490" name="LIDXXZCL"/>
      <point x="597" y="496" name="UWAXRRTF"/>
      <point x="558" y="498" type="curve" name="ZJUKMOXV"/>
      <point x="209" y="458" name="DHDRNXEW"/>
      <point x="-18" y="230" name="QOEWJFQM"/>
    </contour>
  </outline>
</glyph>
<glyph name="zero" format="2">
  <advance width="456"/>
  <unicode hex="0030"/>
  <outline>
    <contour>
      <point x="164" y="-37" type="curve" name="JCLLKVNE"/>
      <point x="289" y="-37" name="YLBIUNVB"/>
      <point x="394" y="149" name="QXXUKDQE"/>
      <point x="497" y="293" type="curve" smooth="yes" name="ADLBBRLG"/>
      <point x="598" y="436" name="KPHUAMZG"/>
      <point x="643" y="464" name="LKYYWCMB"/>
      <point x="518" y="464" type="curve" smooth="yes" name="AJKWJNAX"/>
      <point x="393" y="464" name="WIVXJFYO"/>
      <point x="177" y="436" name="AXRWYRFM"/>
      <point x="76" y="293" type="curve" smooth="yes" name="VNJZYOHT"/>
      <point x="-27" y="149" name="ZABEZIXE"/>
      <point x="39" y="-37" name="LZTXSQOY"/>
      <point x="164" y="-37" type="curve" name="LKTHCLSV"/>
      <point x="164" y="-37" name="MYLUDVBO"/>
      <point x="164" y="-37" name="DPJDCWKL"/>
    </contour>
    <contour>
      <point x="196" y="151" type="curve" name="RGSRAABT"/>
      <point x="140" y="151" name="RTZPKZBT"/>
      <point x="128" y="229" name="NUCPQFCF"/>
      <point x="185" y="310" type="curve" smooth="yes" name="VKGVJYUO"/>
      <point x="243" y="392" name="YERMFHMG"/>
      <point x="329" y="419" name="SONLDSIA"/>
      <point x="385" y="419" type="curve" smooth="yes" name="LCKSUWPX"/>
      <point x="441" y="419" name="FSQSCHNX"/>
      <point x="419" y="391" name="RCASAPNO"/>
      <point x="362" y="310" type="curve" smooth="yes" name="DNAHTOYF"/>
      <point x="305" y="229" name="BFCJIWWA"/>
      <point x="252" y="151" name="TYILSCMF"/>
      <point x="196" y="151" type="curve" name="KDREFVAJ"/>
      <point x="196" y="151" name="OGEKAJOG"/>
      <point x="196" y="151" name="ZYNHSPFN"/>
    </contour>
  </outline>
</glyph>
<glyph name="one" format="2">
  <advance width="267"/>
  <unicode hex="0031"/>
  <outline>
    <contour>
      <point x="521" y="448" type="curve" name="TZHMIQAO"/>
      <point x="424" y="458" name="QXYJUNFS"/>
      <point x="335" y="454" name="GTMQRQYO"/>
      <point x="260" y="436" type="curve" name="BKBOAMJN"/>
      <point x="216" y="422" name="HCYUTGCJ"/>
      <point x="175" y="401" name="TUNCTKDK"/>
      <point x="141" y="375" type="curve" name="CFCZIOEA"/>
      <point x="170" y="384" name="GOOCIAMZ"/>
      <point x="201" y="392" name="DRZHUPOM"/>
      <point x="233" y="397" type="curve" name="PRUODIOG"/>
      <point x="125" y="320" name="LSNPALNA"/>
      <point x="60" y="175" name="FMFJLMIG"/>
      <point x="44" y="-32" type="curve" name="KNQXVFRB"/>
      <point x="84" y="-30" name="LJYAGQOM"/>
      <point x="128" y="-33" name="ZRHTMFIB"/>
      <point x="175" y="-42" type="curve" name="IOTIIPVL"/>
      <point x="198" y="248" name="NNWLCHWV"/>
      <point x="316" y="415" name="IYPPKQBK"/>
    </contour>
  </outline>
</glyph>
<glyph name="two" format="2">
  <advance width="380"/>
  <unicode hex="0032"/>
  <outline>
    <contour>
      <point x="-6" y="-47" type="curve" name="XGFJKABF"/>
      <point x="83" y="-26" name="TMNNPTSU"/>
      <point x="190" y="-26" name="ZSMBETWE"/>
      <point x="309" y="-46" type="curve" name="OSXXHOPE"/>
      <point x="314" y="20" name="RLVYHDJG"/>
      <point x="325" y="82" name="SPGSKGAM"/>
      <point x="340" y="135" type="curve" name="QVDSWIOG"/>
      <point x="282" y="145" name="XUZQSBXK"/>
      <point x="227" y="150" name="IOSSHTXB"/>
      <point x="176" y="150" type="curve" name="XKAUNGFH"/>
      <point x="204" y="179" name="YDDJMVRE"/>
      <point x="236" y="206" name="PDFTHFEC"/>
      <point x="269" y="229" type="curve" smooth="yes" name="GGKXXJDJ"/>
      <point x="369" y="301" name="TWNPTKBH"/>
      <point x="442" y="336" name="SSECDCJB"/>
      <point x="496" y="377" type="curve" smooth="yes" name="XESWSWHW"/>
      <point x="604" y="456" name="WYBQPFBB"/>
      <point x="554" y="490" name="NLDFORLI"/>
      <point x="316" y="437" type="curve" name="ZVHSVCTS"/>
      <point x="268" y="427" name="ZTACFSTQ"/>
      <point x="225" y="408" name="YQIUFPPF"/>
      <point x="188" y="382" type="curve" name="BTOVWJWH"/>
      <point x="307" y="425" name="EUNRPXGS"/>
      <point x="392" y="418" name="OOQYAIAO"/>
      <point x="350" y="384" type="curve" smooth="yes" name="WVTVRMDL"/>
      <point x="328" y="368" name="DRILHNNR"/>
      <point x="288" y="357" name="ASIGLRVZ"/>
      <point x="185" y="286" type="curve" smooth="yes" name="JKYPYIRY"/>
      <point x="126" y="245" name="KIHMBRHX"/>
      <point x="71" y="194" name="BEMJFDHK"/>
      <point x="24" y="135" type="curve" name="HCUUYOUU"/>
      <point x="10" y="82" name="PJEFCWNB"/>
      <point x="-1" y="19" name="HPJNZAWC"/>
    </contour>
  </outline>
</glyph>
<glyph name="three" format="2">
  <advance width="370"/>
  <unicode hex="0033"/>
  <outline>
    <contour>
      <point x="147" y="327" type="curve" name="YWOXRJXO"/>
      <point x="126" y="303" name="HOBUSNXL"/>
      <point x="106" y="275" name="AFMADVGO"/>
      <point x="90" y="244" type="curve" name="UIFZCNOJ"/>
      <point x="181" y="269" name="GTRQCNUW"/>
      <point x="248" y="252" name="LQXZPNPL"/>
      <point x="227" y="196" type="curve" smooth="yes" name="TZSDHOXL"/>
      <point x="204" y="136" name="XCQRZEQD"/>
      <point x="105" y="137" name="DPKGVYDV"/>
      <point x="34" y="165" type="curve" name="MTJJLNNN"/>
      <point x="16" y="113" name="HEMNPHFP"/>
      <point x="3" y="51" name="PQJMRWVE"/>
      <point x="-5" y="-17" type="curve" name="PBGEATCE"/>
      <point x="132" y="-69" name="TETPVKGH"/>
      <point x="291" y="0" name="CWFOYVYH"/>
      <point x="359" y="182" type="curve" smooth="yes" name="ATFVTXEU"/>
      <point x="396" y="278" name="YTVDCPRI"/>
      <point x="386" y="330" name="LMYRTPOQ"/>
      <point x="319" y="346" type="curve" name="NEXHLMRL"/>
      <point x="377" y="367" name="RZBOCILY"/>
      <point x="439" y="384" name="LUQRHQJC"/>
      <point x="505" y="394" type="curve" name="YGMSHFPK"/>
      <point x="543" y="415" name="DRNRDZMG"/>
      <point x="587" y="430" name="TURQPFCP"/>
      <point x="634" y="437" type="curve" name="XGPSXMHM"/>
      <point x="522" y="455" name="CKCBRABE"/>
      <point x="422" y="454" name="VLPZDEQT"/>
      <point x="337" y="434" type="curve" name="ETHLVUAN"/>
      <point x="290" y="427" name="YANRHPXP"/>
      <point x="246" y="412" name="OMJVKJPR"/>
      <point x="209" y="391" type="curve" name="AENCKIWI"/>
      <point x="250" y="400" name="YPTXUYFT"/>
      <point x="297" y="406" name="BOADUSSW"/>
      <point x="344" y="406" type="curve" name="ZBEMYKPS"/>
      <point x="273" y="388" name="PZOPPGHR"/>
      <point x="206" y="361" name="JSGIRAUJ"/>
    </contour>
  </outline>
</glyph>
<glyph name="four" format="2">
  <advance width="413"/>
  <unicode hex="0034"/>
  <outline>
    <contour>
      <point x="1.5560428137850693" y="102.21468273201157" type="curve" name="YIXCNHBW"/>
      <point x="59.23118702650709" y="115.64971157455597" name="SQGNSGKM"/>
      <point x="122.82054480160221" y="122.72077938642144" name="JWWQHQRZ"/>
      <point x="190.49568901432423" y="122.01367260523489" type="curve" name="QSIKQYVO"/>
      <point x="179.99568901432423" y="76.0517318281093" name="MTUKLCXP"/>
      <point x="172.49568901432423" y="25.847150363864444" name="AFKCIPCR"/>
      <point x="167.99568901432426" y="-28.6000717874997" type="curve" name="SPTMINLY"/>
      <point x="208.09366876077092" y="-29.307178568686254" name="PFHVWYME"/>
      <point x="251.81296885077722" y="-32.13560569343247" name="KHSDEIZQ"/>
      <point x="294.91094859722386" y="-37.08535316173828" type="curve" name="FEXLNFNA"/>
      <point x="299.41094859722386" y="17.36186898962586" name="FDOVSQWE"/>
      <point x="306.91094859722386" y="67.56645045387074" name="YLTWRZGH"/>
      <point x="317.41094859722386" y="113.5283912309963" type="curve" name="UIVZWWCN"/>
      <point x="341.33125881400684" y="110.69996410625015" name="DHAEXAML"/>
      <point x="367.66578259316293" y="106.45732341913086" name="GHVMOZWH"/>
      <point x="392.58609280994585" y="102.21468273201157" type="curve" name="MIPIXCBJ"/>
      <point x="405.58609280994585" y="157.36901166456227" name="VLMLARUL"/>
      <point x="424.58609280994585" y="208.2806999099937" name="ZMIAPIKV"/>
      <point x="447.58609280994585" y="249.29289321881345" type="curve" name="MVATSVKX"/>
      <point x="422.66578259316293" y="253.53553390593274" name="RGCYUIFP"/>
      <point x="396.33125881400684" y="257.77817459305203" name="TGOEAXVS"/>
      <point x="372.41094859722386" y="260.6066017177982" type="curve" name="ZTXHEJYS"/>
      <point x="428.91094859722386" y="363.1370849898476" name="QKUTOKDH"/>
      <point x="518.9109485972239" y="425.36248173426384" name="DUQQQIKR"/>
      <point x="634.9109485972238" y="443.74725804511405" type="curve" name="NOZNRRFR"/>
      <point x="569.3068721963673" y="451.5254326381661" name="XWUTYUZM"/>
      <point x="506.2885822331376" y="453.64675298172574" name="JMADEXJH"/>
      <point x="448.18450583228105" y="450.8183258569795" type="curve" name="JQPIENOT"/>
      <point x="287.515458273969" y="429.6051224213831" name="GGHFWAOB"/>
      <point x="153.2250903720972" y="361.01576464628795" name="CNBPDQXQ"/>
      <point x="56.55604281378507" y="249.29289321881345" type="curve" name="RWJFWNYJ"/>
      <point x="33.55604281378507" y="208.2806999099937" name="AXWPYLJE"/>
      <point x="14.55604281378507" y="157.36901166456227" name="EQJJMFJR"/>
    </contour>
    <contour>
      <point x="171.83526342736366" y="266.2634559672906" type="curve" name="QBJKWZCN"/>
      <point x="228.5840007688928" y="327.0746391493337" name="LDLVLZVX"/>
      <point x="298.74695167279503" y="375.1579002700189" name="VYUCQHNG"/>
      <point x="376.49568901432417" y="406.270598642227" type="curve" name="ACMOKOQU"/>
      <point x="323.49568901432417" y="375.1579002700189" name="QDFOIILC"/>
      <point x="278.9956890143242" y="327.78174593052023" name="WEKGOZIZ"/>
      <point x="245.49568901432423" y="269.09188309203677" type="curve" name="LQZDJKJQ"/>
      <point x="220.74695167279503" y="269.09188309203677" name="KYTMYXHX"/>
      <point x="195.0840007688928" y="268.3847763108502" name="IIHJJCTB"/>
    </contour>
  </outline>
</glyph>
<glyph name="five" format="2">
  <advance width="367"/>
  <unicode hex="0035"/>
  <outline>
    <contour>
      <point x="68" y="253" type="curve" name="LMDSNDHX"/>
      <point x="173" y="294" name="OFFIJXAO"/>
      <point x="252" y="279" name="EVLBOINE"/>
      <point x="224" y="208" type="curve" smooth="yes" name="IQLUJCWZ"/>
      <point x="196" y="137" name="EEKOCKJF"/>
      <point x="109" y="141" name="YYJTVOCU"/>
      <point x="26" y="167" type="curve" name="LMKQASJQ"/>
      <point x="8" y="115" name="OEFYFONE"/>
      <point x="-5" y="52" name="CVOYOHYD"/>
      <point x="-12" y="-15" type="curve" name="HXTMJJHW"/>
      <point x="124" y="-66" name="BUMGBTMZ"/>
      <point x="283" y="11" name="XMLPDZSL"/>
      <point x="359" y="197" type="curve" smooth="yes" name="KPYBKWUH"/>
      <point x="411" y="328" name="MQYVDKZA"/>
      <point x="383" y="376" name="TQOYNQSN"/>
      <point x="264" y="371" type="curve" name="LQXCKGYW"/>
      <point x="283" y="385" name="NLUHHTVD"/>
      <point x="304" y="398" name="ZVYIIXRZ"/>
      <point x="325" y="409" type="curve" name="WUMVCCDI"/>
      <point x="376" y="410" name="FFIAPKYS"/>
      <point x="433" y="406" name="ZOFRRHDE"/>
      <point x="492" y="397" type="curve" name="PYFMNCOB"/>
      <point x="529" y="419" name="DKFUDCSM"/>
      <point x="573" y="434" name="VPUGDWRA"/>
      <point x="620" y="441" type="curve" name="GWZKIYWX"/>
      <point x="523" y="455" name="YBIKNVHT"/>
      <point x="432" y="456" name="PCJEDIBF"/>
      <point x="355" y="442" type="curve" name="DLFZVPII"/>
      <point x="230" y="422" name="UNQWHIXC"/>
      <point x="133" y="357" name="OHGMEKER"/>
    </contour>
  </outline>
</glyph>
<glyph name="six" format="2">
  <advance width="399"/>
  <unicode hex="0036"/>
  <outline>
    <contour>
      <point x="496" y="385" type="curve" name="CMQDXTRX"/>
      <point x="535" y="411" name="FZGOEGAQ"/>
      <point x="581" y="429" name="QWKJJWPI"/>
      <point x="631" y="440" type="curve" name="JCGHJAFP"/>
      <point x="477" y="483" name="KDABFNEM"/>
      <point x="209" y="490" name="IPDHRSEA"/>
      <point x="69" y="275" type="curve" smooth="yes" name="SHBINBMN"/>
      <point x="-36" y="114" name="KUZBXCJD"/>
      <point x="37" y="-39" name="MKDRAVGN"/>
      <point x="148" y="-40" type="curve" smooth="yes" name="SUVKWSNW"/>
      <point x="256" y="-40" name="LWJZYUSE"/>
      <point x="346" y="84" name="EIVYXYYO"/>
      <point x="399" y="205" type="curve" smooth="yes" name="AQUQIUYR"/>
      <point x="482" y="396" name="FKOZBRUR"/>
      <point x="363" y="411" name="GCYMCFUU"/>
      <point x="229" y="351" type="curve" name="AYUGFQUN"/>
      <point x="304" y="421" name="KIVGCKPL"/>
      <point x="429" y="430" name="JDYPLYZL"/>
      <point x="496" y="385" type="curve" name="EDYCUYFX"/>
      <point x="496" y="385" name="QPTSAXGC"/>
      <point x="496" y="385" name="NOYDOIPR"/>
    </contour>
    <contour>
      <point x="176" y="140" type="curve" name="JZPDXXBG"/>
      <point x="142" y="140" name="SQQGQZPS"/>
      <point x="130" y="176" name="XFMBEOZP"/>
      <point x="150" y="222" type="curve" smooth="yes" name="NOBTJWSB"/>
      <point x="168" y="265" name="ZMMXUWWK"/>
      <point x="206" y="290" name="XVLSKFVG"/>
      <point x="240" y="290" type="curve" smooth="yes" name="DVAMRECG"/>
      <point x="275" y="290" name="NDHRURPH"/>
      <point x="283" y="264" name="RLKBXRNU"/>
      <point x="264" y="219" type="curve" smooth="yes" name="IRXRCXRH"/>
      <point x="245" y="175" name="CWVZRJZZ"/>
      <point x="211" y="140" name="LNCZRFNO"/>
      <point x="176" y="140" type="curve" name="TUACBEQJ"/>
      <point x="176" y="140" name="ZVLXVAYP"/>
      <point x="176" y="140" name="FVRATVDQ"/>
    </contour>
  </outline>
</glyph>
<glyph name="seven" format="2">
  <advance width="368"/>
  <unicode hex="0037"/>
  <outline>
    <contour>
      <point x="640" y="437" type="curve" name="JOTFABMH"/>
      <point x="519" y="458" name="NUJUPEZT"/>
      <point x="410" y="458" name="XLWVDFBD"/>
      <point x="319" y="437" type="curve" name="YLNDWLJC"/>
      <point x="272" y="429" name="ZLCTPVRA"/>
      <point x="228" y="414" name="AFTYLIXG"/>
      <point x="191" y="393" type="curve" name="UBFWFHPN"/>
      <point x="245" y="406" name="IGTZGIFF"/>
      <point x="308" y="412" name="OSJPKHIC"/>
      <point x="373" y="409" type="curve" name="WDAVFHLN"/>
      <point x="195" y="342" name="IBJCIAKL"/>
      <point x="72" y="189" name="YBHTIAKU"/>
      <point x="7" y="-38" type="curve" name="OKBCYUYU"/>
      <point x="44" y="-32" name="XPSFIDRU"/>
      <point x="85" y="-28" name="JBYNCMMD"/>
      <point x="127" y="-28" type="curve" name="AIWOAHFQ"/>
      <point x="198" y="191" name="ZZMGRUZL"/>
      <point x="328" y="334" name="JAJAFJXU"/>
      <point x="512" y="393" type="curve" name="TNUDLIKC"/>
      <point x="549" y="414" name="EQESUSVS"/>
      <point x="593" y="429" name="ROUUXIOM"/>
    </contour>
  </outline>
</glyph>
<glyph name="eight" format="2">
  <advance width="396"/>
  <unicode hex="0038"/>
  <outline>
    <contour>
      <point x="140.70710678118658" y="-42.74220741123065" type="curve" name="DOFMKEDY"/>
      <point x="243.23759005323598" y="-42.74220741123065" name="GMCIIINK"/>
      <point x="336.31222920256965" y="54.8385283925129" name="EISBSPGO"/>
      <point x="379.8122292025696" y="174.33957441303943" type="curve" smooth="yes" name="MKVKRRBB"/>
      <point x="403.8122292025696" y="240.8076118445749" name="YCDHPJRS"/>
      <point x="403.6848122046001" y="282.5269119345812" name="BYHRSRAF"/>
      <point x="380.62236636408613" y="309.39696961967" type="curve" name="ABYWJPRQ"/>
      <point x="429.0279579551077" y="326.3675323681471" name="BOJHESWY"/>
      <point x="474.91273426595797" y="352.5304832720494" name="UCDYIMDR"/>
      <point x="515.412734265958" y="381.5218613006979" type="curve" smooth="yes" name="OXXMJZUI"/>
      <point x="595.912734265958" y="437.38329701443513" name="LULWKPZY"/>
      <point x="593.2878425849301" y="459.3036072312181" name="HLNFOSPY"/>
      <point x="495.70710678118644" y="459.3036072312181" type="curve" smooth="yes" name="OUGICIXE"/>
      <point x="396.9192641962564" y="460.01071401240466" name="IAGLPLVV"/>
      <point x="255.08726573404203" y="437.38329701443513" name="VLBPLNCV"/>
      <point x="174.58726573404203" y="381.5218613006979" type="curve" smooth="yes" name="ZFVYYODD"/>
      <point x="134.08726573404203" y="352.5304832720494" name="JNILWGOC"/>
      <point x="124.97204204489225" y="326.3675323681471" name="AEWDVHLQ"/>
      <point x="137.58474041710036" y="310.10407640085657" type="curve" name="CHVXHYMR"/>
      <point x="88.31518779539988" y="282.5269119345812" name="LJRFXHQL"/>
      <point x="43.187770797430375" y="240.8076118445749" name="AHHDNXHS"/>
      <point x="19.187770797430375" y="174.33957441303943" type="curve" smooth="yes" name="RTAZHXOF"/>
      <point x="-24.312229202569597" y="54.8385283925129" name="CTFZRPUR"/>
      <point x="36.26240994676408" y="-42.0351006300441" name="DQHLAGKS"/>
      <point x="140.70710678118658" y="-42.74220741123065" type="curve" name="AYCRFBKV"/>
      <point x="140.70710678118658" y="-42.74220741123065" name="CVNROQOA"/>
      <point x="140.70710678118658" y="-42.74220741123065" name="FWKBVASS"/>
    </contour>
    <contour>
      <point x="288.70710678118655" y="358.8944443027283" type="curve" name="EOYEYDXK"/>
      <point x="259.00862197135154" y="358.8944443027283" name="KRSHIPAQ"/>
      <point x="254.29541853575512" y="373.7436867076458" name="BZUFEZGD"/>
      <point x="278.79541853575506" y="391.4213562373095" type="curve" smooth="yes" name="TOYZQIDQ"/>
      <point x="302.2954185357551" y="409.0990257669732" name="WPNUVNRR"/>
      <point x="340.301515190165" y="419.7056274847714" name="MYZPRHSB"/>
      <point x="371.20710678118655" y="418.99852070358486" type="curve" smooth="yes" name="RQGKYOET"/>
      <point x="400.9055915910215" y="418.99852070358486" name="PASTMJFG"/>
      <point x="402.7045814642449" y="409.0990257669732" name="PROVXJWD"/>
      <point x="379.2045814642448" y="391.4213562373095" type="curve" smooth="yes" name="IOHRTIRM"/>
      <point x="354.7045814642448" y="373.7436867076458" name="CCYOLLDZ"/>
      <point x="318.40559159102156" y="358.8944443027283" name="QPPUAFBP"/>
      <point x="288.70710678118655" y="358.8944443027283" type="curve" name="ZYRTIEPK"/>
      <point x="288.70710678118655" y="358.8944443027283" name="FWNSCVWC"/>
      <point x="288.70710678118655" y="358.8944443027283" name="KKIHZGKD"/>
    </contour>
    <contour>
      <point x="169.20710678118655" y="133.32738110421965" type="curve" name="DMBCBELI"/>
      <point x="135.97308806541884" y="133.32738110421965" name="CHLABBWP"/>
      <point x="119.51724394270309" y="164.44007947642774" name="LLNSAIUO"/>
      <point x="135.0172439427031" y="203.33095244168788" type="curve" smooth="yes" name="GACEOBPY"/>
      <point x="151.0172439427031" y="244.34314575050763" name="EQYIXOGQ"/>
      <point x="188.47308806541884" y="269.7989898732233" name="NPSASKPS"/>
      <point x="221.70710678118655" y="269.7989898732233" type="curve" smooth="yes" name="IXJATNYN"/>
      <point x="254.23401871576772" y="269.7989898732233" name="IVCVRRFV"/>
      <point x="266.4827560572969" y="245.05025253169416" name="BNLDSDEK"/>
      <point x="250.9827560572969" y="203.33095244168788" type="curve" smooth="yes" name="BOOPPMME"/>
      <point x="235.9827560572969" y="163.7329726952412" name="APGEUQZO"/>
      <point x="201.73401871576777" y="133.32738110421965" name="WIKUNKCK"/>
      <point x="169.20710678118655" y="133.32738110421965" type="curve" name="MCWGYAPG"/>
      <point x="169.20710678118655" y="133.32738110421965" name="FXJEVWXT"/>
      <point x="169.20710678118655" y="133.32738110421965" name="WDPPZZFT"/>
    </contour>
  </outline>
</glyph>
<glyph name="nine" format="2">
  <advance width="399"/>
  <unicode hex="0039"/>
  <outline>
    <contour>
      <point x="40" y="173" type="curve" name="KNTYXKDF"/>
      <point x="21" y="119" name="SDTFQBIH"/>
      <point x="9" y="53" name="EUUTGHZT"/>
      <point x="1" y="-17" type="curve" name="VPLBPZZQ"/>
      <point x="166" y="-76" name="NAXBTFNC"/>
      <point x="298" y="111" name="KMVXKAVW"/>
      <point x="450" y="309" type="curve" smooth="yes" name="SJRKJRBX"/>
      <point x="563" y="457" name="GPUPAYIW"/>
      <point x="594" y="463" name="DXZNZPYS"/>
      <point x="485" y="463" type="curve" smooth="yes" name="EKFYQRPH"/>
      <point x="376" y="463" name="YLVWTBKJ"/>
      <point x="217" y="436" name="ARBXDBSO"/>
      <point x="131" y="361" type="curve" smooth="yes" name="UPVNOYHG"/>
      <point x="-4" y="245" name="YOBFIAST"/>
      <point x="146" y="185" name="IMCSKHBY"/>
      <point x="273" y="257" type="curve" name="QOHOCOSG"/>
      <point x="216" y="160" name="QOEDONEH"/>
      <point x="107" y="129" name="JRPKWXSD"/>
      <point x="40" y="173" type="curve" name="HMHZWJFL"/>
      <point x="40" y="173" name="XWEYKGGE"/>
      <point x="40" y="173" name="MYLGLHHI"/>
    </contour>
    <contour>
      <point x="358" y="421" type="curve" name="QVHTSORV"/>
      <point x="392" y="421" name="XJLXOELD"/>
      <point x="390" y="406" name="HOGXGMNK"/>
      <point x="358" y="378" type="curve" smooth="yes" name="CFSCESZC"/>
      <point x="327" y="351" name="RLJJZSHJ"/>
      <point x="286" y="330" name="HUUPMIMH"/>
      <point x="252" y="330" type="curve" smooth="yes" name="LBRUTRTA"/>
      <point x="218" y="330" name="PPJMRLKE"/>
      <point x="212" y="352" name="ZFQSNEYB"/>
      <point x="244" y="379" type="curve" smooth="yes" name="IYAJMSNA"/>
      <point x="275" y="406" name="OPLGAUAW"/>
      <point x="323" y="421" name="QDPBDEJP"/>
      <point x="358" y="421" type="curve" name="JNZYIDLT"/>
      <point x="358" y="421" name="AAEWANST"/>
      <point x="358" y="421" name="TBROMEOP"/>
    </contour>
  </outline>
</glyph>
<glyph name="colon" format="2">
  <advance width="205"/>
  <unicode hex="003A"/>
  <outline>
    <contour>
      <point x="159.35355339059328" y="277.57716446627535" type="curve" name="MNWNONEL"/>
      <point x="199.65863991822647" y="277.57716446627535" name="YGSGRKBA"/>
      <point x="266.09976541518074" y="298.0832611206852" name="UDOVXUGM"/>
      <point x="308.59976541518074" y="318.5893577750951" type="curve" smooth="yes" name="TMKTVPID"/>
      <point x="350.59976541518074" y="338.3883476483185" name="PDMXMHST"/>
      <point x="354.65863991822647" y="351.1162697096763" name="EVORXJED"/>
      <point x="314.3535533905933" y="351.1162697096763" type="curve" smooth="yes" name="BSHFKHBD"/>
      <point x="272.634253300587" y="351.1162697096763" name="WZWTGEBA"/>
      <point x="201.4002345848192" y="338.3883476483185" name="LYYBXUUX"/>
      <point x="159.4002345848192" y="318.5893577750951" type="curve" smooth="yes" name="UKOGOKYZ"/>
      <point x="116.4002345848192" y="298.7903679018718" name="ZKPSQQBO"/>
      <point x="117.63425330058695" y="277.57716446627535" name="PPDPLGST"/>
      <point x="159.35355339059328" y="277.57716446627535" type="curve" name="RCOTYRPZ"/>
      <point x="159.35355339059328" y="277.57716446627535" name="MMFCFTBT"/>
      <point x="159.35355339059328" y="277.57716446627535" name="OGNYVTID"/>
    </contour>
    <contour>
      <point x="39.853553390593305" y="-37.08535316173828" type="curve" name="ACVSQOVU"/>
      <point x="80.1586399182265" y="-37.08535316173828" name="CPCZJPPX"/>
      <point x="123.0997654151808" y="16.65476220843931" name="VGDBHQMV"/>
      <point x="137.5997654151808" y="76.75883860929585" type="curve" smooth="yes" name="FXHBDTZU"/>
      <point x="151.59976541518077" y="136.15580822896584" name="HLAGIKDX"/>
      <point x="132.1586399182265" y="182.11774900609143" name="NKNCARPI"/>
      <point x="91.85355339059328" y="182.11774900609143" type="curve" smooth="yes" name="IGMINHDQ"/>
      <point x="50.13425330058698" y="182.11774900609143" name="WDYEJKUQ"/>
      <point x="2.4002345848192306" y="136.15580822896584" name="IHZARHWS"/>
      <point x="-11.599765415180755" y="76.75883860929585" type="curve" smooth="yes" name="UCQHCJSN"/>
      <point x="-26.09976541518074" y="16.65476220843931" name="TATFRDOP"/>
      <point x="-1.865746699413009" y="-37.08535316173828" name="BTATAGXY"/>
      <point x="39.853553390593305" y="-37.08535316173828" type="curve" name="EUPBKTOT"/>
      <point x="39.853553390593305" y="-37.08535316173828" name="HOVATDLZ"/>
      <point x="39.853553390593305" y="-37.08535316173828" name="DNIHWJES"/>
    </contour>
  </outline>
</glyph>
<glyph name="semicolon" format="2">
  <advance width="205"/>
  <unicode hex="003B"/>
  <outline>
    <contour>
      <point x="160" y="278" type="curve" name="EKRJSAKS"/>
      <point x="201" y="277" name="OOMAZZFK"/>
      <point x="269" y="295" name="GPOTNRDH"/>
      <point x="313" y="314" type="curve" smooth="yes" name="QIOYWTMI"/>
      <point x="356" y="331" name="UFBMUKWO"/>
      <point x="360" y="345" name="TNJQAGVM"/>
      <point x="319" y="345" type="curve" smooth="yes" name="HSGUZFOR"/>
      <point x="276" y="347" name="SJHRMUTU"/>
      <point x="205" y="335" name="PGFWVAGA"/>
      <point x="162" y="316" type="curve" smooth="yes" name="ZDBDKAKY"/>
      <point x="118" y="298" name="KPGYZCKY"/>
      <point x="117" y="279" name="MLJLRGRH"/>
      <point x="160" y="278" type="curve" name="XUCTEAGB"/>
      <point x="160" y="278" name="RSZIHJSF"/>
      <point x="160" y="278" name="MZNYEQZY"/>
    </contour>
    <contour>
      <point x="-86" y="-111" type="curve" name="BBDWSGTQ"/>
      <point x="-56" y="-104" name="QMTGDMFT"/>
      <point x="-24" y="-101" name="TRAAYXXC"/>
      <point x="11" y="-103" type="curve" name="MBIVGNQI"/>
      <point x="37" y="15" name="ICNGYWZG"/>
      <point x="84" y="111" name="VDSAKJGS"/>
      <point x="145" y="180" type="curve" name="SAOFZTAW"/>
      <point x="101" y="186" name="SHIOWXLC"/>
      <point x="59" y="188" name="RVYPMGFW"/>
      <point x="23" y="183" type="curve" name="MJCDHXZW"/>
      <point x="-29" y="110" name="XNXRUMDJ"/>
      <point x="-66" y="10" name="LOILAZLY"/>
    </contour>
  </outline>
</glyph>
<glyph name="less" format="2">
  <advance width="317"/>
  <unicode hex="003C"/>
  <outline>
    <contour>
      <point x="40" y="190" type="curve" name="RUWTDPRC"/>
      <point x="91" y="157" name="ECCOQWIB"/>
      <point x="164" y="95" name="IVKXKHYF"/>
      <point x="253" y="7" type="curve" name="WKZGGRAU"/>
      <point x="259" y="81" name="JWKNPUTG"/>
      <point x="274" y="145" name="NUWIFSZB"/>
      <point x="295" y="197" type="curve" name="UGNMFHSJ"/>
      <point x="258" y="228" name="VPFKISUD"/>
      <point x="223" y="255" name="RNHORETW"/>
      <point x="194" y="273" type="curve" name="SKSNOGWR"/>
      <point x="250" y="291" name="FRWFMSSU"/>
      <point x="312" y="305" name="CDKHSDZQ"/>
      <point x="376" y="310" type="curve" name="LTLIZPHB"/>
      <point x="412" y="340" name="AQDZXENB"/>
      <point x="457" y="359" name="YOWKGJTW"/>
      <point x="508" y="368" type="curve" name="LURDSMPT"/>
      <point x="363" y="376" name="XWHTSIHW"/>
      <point x="233" y="358" name="GYZIBFIS"/>
      <point x="126" y="312" type="curve" name="LUOVQWSA"/>
      <point x="90" y="282" name="KUSPRJWT"/>
      <point x="61" y="241" name="OCXQSGUQ"/>
    </contour>
  </outline>
</glyph>
<glyph name="equal" format="2">
  <advance width="346"/>
  <unicode hex="003D"/>
  <outline>
    <contour>
      <point x="110.54310985675775" y="276.16295090390224" type="curve" name="GPRTIKJU"/>
      <point x="192.50252531694167" y="295.25483399593907" name="IFIMKFKZ"/>
      <point x="291.49747468305833" y="295.25483399593907" name="PSYGJSOE"/>
      <point x="400.4568901432423" y="276.16295090390224" type="curve" name="UIOOFTKJ"/>
      <point x="430.4568901432422" y="305.86143571373725" name="ZRIQNQIC"/>
      <point x="469.95689014324216" y="324.9533188057741" name="THNZAZEV"/>
      <point x="515.4568901432422" y="332.73149339882605" type="curve" name="YQFJSPOD"/>
      <point x="406.4974746830583" y="351.82337649086287" name="MITTJEAV"/>
      <point x="307.5025253169416" y="351.82337649086287" name="VHWFGBYK"/>
      <point x="225.54310985675772" y="332.73149339882605" type="curve" name="SKRUEEEN"/>
      <point x="180.04310985675772" y="324.9533188057741" name="GIZWEMCT"/>
      <point x="140.54310985675772" y="305.86143571373725" name="UCIUWVMF"/>
    </contour>
    <contour>
      <point x="28.043109856757752" y="53.42431483013979" type="curve" name="GEFFZMQW"/>
      <point x="110.00252531694167" y="72.51619792217656" name="QGIIIDVZ"/>
      <point x="208.99747468305833" y="72.51619792217656" name="UCXZAZZL"/>
      <point x="317.9568901432423" y="53.42431483013979" type="curve" name="NBCEXZDP"/>
      <point x="323.4568901432423" y="117.77103191811563" name="HUHFWPAL"/>
      <point x="336.9568901432423" y="173.63246763185288" name="SLWNXAFA"/>
      <point x="357.9568901432423" y="216.05887450304573" type="curve" name="OEFVTZTP"/>
      <point x="248.99747468305833" y="235.1507575950825" name="WGOFYPWV"/>
      <point x="150.00252531694167" y="235.1507575950825" name="ZCKDWHJQ"/>
      <point x="68.04310985675775" y="216.05887450304573" type="curve" name="MGJBCIOP"/>
      <point x="47.04310985675775" y="173.63246763185288" name="BMJBIMBV"/>
      <point x="33.54310985675778" y="117.77103191811563" name="JJJKMNUI"/>
    </contour>
  </outline>
</glyph>
<glyph name="greater" format="2">
  <advance width="317"/>
  <unicode hex="003E"/>
  <outline>
    <contour>
      <point x="304.25409434773144" y="187.77460325558383" type="curve" name="MONCNYCN"/>
      <point x="325.25409434773144" y="238.68629150101523" name="SQTLPCJP"/>
      <point x="354.25409434773144" y="279.698484809835" name="KPBUAXES"/>
      <point x="390.25409434773144" y="309.39696961967" type="curve" name="NSHDCUYG"/>
      <point x="330.31549416771884" y="355.3589103967956" name="TMLZEOMQ"/>
      <point x="288.7555736441466" y="373.74368670764585" name="AGCTZWZW"/>
      <point x="267.316973464134" y="365.25840533340727" type="curve" name="XVBQCQMH"/>
      <point x="216.31697346413398" y="356.7731239591687" name="VRMTCLJY"/>
      <point x="170.81697346413398" y="337.6812408671319" name="QGGTVRDY"/>
      <point x="135.31697346413398" y="307.27564927611036" type="curve" name="FVNKOWKD"/>
      <point x="155.74338033532683" y="301.618795026618" name="UVIJQARM"/>
      <point x="179.87689398770624" y="288.8908729652601" name="JEAKONYD"/>
      <point x="209.3033008588991" y="270.5060966544099" type="curve" name="SQYLQPXE"/>
      <point x="153.37689398770624" y="251.4142135623731" name="EOWPTHYF"/>
      <point x="100.74338033532683" y="226.66547622084394" name="XORTWBRB"/>
      <point x="54.316973464133994" y="194.13856428626275" type="curve" name="FXCNOEWT"/>
      <point x="32.816973464133994" y="142.51976925964476" name="HLQIPPKI"/>
      <point x="18.31697346413401" y="78.17305217166893" name="LQPYQHNL"/>
      <point x="12.316973464134009" y="4.633946928268017" type="curve" name="DPYBQBVA"/>
      <point x="89.75557364414664" y="92.31518779539991" name="NQVDSVXL"/>
      <point x="188.31549416771887" y="154.54058453981608" name="KKPXQWEG"/>
    </contour>
  </outline>
</glyph>
<glyph name="question" format="2">
  <advance width="361"/>
  <unicode hex="003F"/>
  <outline>
    <contour>
      <point x="263.3302127934803" y="255.6568542494924" type="curve" name="ZOSSIYHU"/>
      <point x="354.0764248180678" y="276.16295090390224" name="XIEBKAGT"/>
      <point x="439.60943340705876" y="310.81118318204307" name="SQAUEZGN"/>
      <point x="511.1094334070589" y="359.6015510839149" type="curve" smooth="yes" name="QYOSXOGN"/>
      <point x="626.1094334070588" y="437.38329701443513" name="HYBECJRC"/>
      <point x="544.087572106361" y="463.5462479183374" name="WQSUAUQP"/>
      <point x="322.0829547483662" y="413.34166645409255" type="curve" name="MLOUHCIR"/>
      <point x="273.0829547483662" y="403.44217151748086" name="TQALSWJC"/>
      <point x="229.0829547483662" y="385.0573952066306" name="CMYTOWTF"/>
      <point x="191.0829547483662" y="359.60155108391484" type="curve" name="TUUEDXDJ"/>
      <point x="310.24947698973665" y="403.44217151748086" name="YVNEFVVV"/>
      <point x="409.6083873865323" y="394.9568901432423" name="YEOEYROI"/>
      <point x="368.6083873865323" y="365.25840533340727" type="curve" smooth="yes" name="GLHMBCHJ"/>
      <point x="345.1083873865323" y="347.58073580374355" name="CCHURJEM"/>
      <point x="293.6317279836453" y="343.3380951166243" name="ZOUBLWIN"/>
      <point x="203.62205999176717" y="327.0746391493337" type="curve" name="ZVCYRXLB"/>
      <point x="172.82916677295373" y="295.25483399593907" name="ORSGBPLC"/>
      <point x="146.24338033532683" y="254.2426406871193" name="QKBZULHP"/>
      <point x="125.45048711651339" y="208.2806999099937" type="curve" name="LVEAVNCE"/>
      <point x="161.13425330058698" y="211.81623381592644" name="FEFIQFEF"/>
      <point x="200.43933982822017" y="213.23044737829952" name="BUFNTQND"/>
      <point x="239.62310601229376" y="211.81623381592644" type="curve" name="JZTYJRJH"/>
      <point x="246.62310601229376" y="227.37258300203047" name="RFJTEDBA"/>
      <point x="254.8302127934803" y="242.22182540694797" name="OXNXHMWS"/>
    </contour>
    <contour>
      <point x="116.64034995499685" y="-65.36962440920018" type="curve" name="ASGKXENX"/>
      <point x="155.94543648263007" y="-63.955410846827135" name="BVGJFHWG"/>
      <point x="195.88656197958437" y="-5.972654789530196" name="MLCEEQCW"/>
      <point x="207.88656197958437" y="57.66695551725908" type="curve" smooth="yes" name="VKVVGPNM"/>
      <point x="220.38656197958437" y="119.1852454804887" name="EJXNBWRB"/>
      <point x="200.94543648263004" y="165.1471862576143" name="DOVWZBLW"/>
      <point x="161.64034995499685" y="163.7329726952412" type="curve" smooth="yes" name="VAVFKBHP"/>
      <point x="120.92104986499055" y="162.3187591328681" name="RGVKFIUV"/>
      <point x="74.6870311492228" y="114.23549801218286" name="AKOPIYNG"/>
      <point x="62.18703114922283" y="52.71720804895324" type="curve" smooth="yes" name="XVQCISFI"/>
      <point x="49.68703114922283" y="-10.215295476649487" name="HAOTOOUG"/>
      <point x="75.92104986499058" y="-66.78383797157329" name="ZQSAXJUZ"/>
      <point x="116.64034995499685" y="-65.36962440920018" type="curve" name="OGASZDWI"/>
      <point x="116.64034995499685" y="-65.36962440920018" name="SXFTMRHQ"/>
      <point x="116.64034995499685" y="-65.36962440920018" name="IGESHFZU"/>
    </contour>
  </outline>
</glyph>
<glyph name="at" format="2">
  <advance width="676"/>
  <unicode hex="0040"/>
  <outline>
    <contour>
      <point x="354.59292911256335" y="-117.69552621700473" type="curve" name="FQZAFNCQ"/>
      <point x="360.09292911256335" y="-66.07673119038674" name="LXXKHWFQ"/>
      <point x="368.59292911256335" y="-15.872149726141856" name="NXPTJDYG"/>
      <point x="378.5929291125633" y="29.38268426979718" type="curve" name="VPYNEDCH"/>
      <point x="153.50252531694173" y="-65.36962440920024" name="TICFWEAE"/>
      <point x="12.953752081662628" y="82.41569285878822" name="QOBITSYY"/>
      <point x="131.95375208166263" y="254.94974746830584" type="curve" smooth="yes" name="DZUTLLSC"/>
      <point x="221.45375208166263" y="384.35028842544403" name="ZODSNTSK"/>
      <point x="417.20606076065997" y="431.01933598375615" name="VHIYUKQK"/>
      <point x="551.3492424049175" y="430.31222920256965" type="curve" smooth="yes" name="IEQUALJJ"/>
      <point x="681.2497833620557" y="429.6051224213831" name="TXYKVUZA"/>
      <point x="685.0168106668145" y="389.30003589374985" name="UYWEINTU"/>
      <point x="600.5168106668145" y="286.7695526217005" type="curve" smooth="yes" name="SLKFSWHS"/>
      <point x="557.0168106668145" y="233.73654403270942" name="YEJVLEML"/>
      <point x="505.9041122946064" y="198.381204973382" name="WKIOVEOH"/>
      <point x="478.44826817189073" y="201.20963209812822" type="curve" smooth="yes" name="KRYHFXAU"/>
      <point x="461.8919189857867" y="202.6238456605013" name="ERMZJYFA"/>
      <point x="458.6137443927346" y="213.23044737829952" name="GDRXFGPU"/>
      <point x="469.1137443927346" y="230.9081169079632" type="curve" smooth="yes" name="DVQLKDAE"/>
      <point x="506.1137443927346" y="294.5477272147525" name="MRZQRHLD"/>
      <point x="553.1137443927346" y="345.4594154601839" name="PIMFULUH"/>
      <point x="609.6137443927346" y="381.5218613006979" type="curve" name="RFIXBLPI"/>
      <point x="577.2081528017131" y="384.35028842544403" name="XEMBRBXY"/>
      <point x="544.595454429505" y="386.47160876900364" name="FUIEHKVA"/>
      <point x="513.1898628384835" y="387.88582233137674" type="curve" name="ONFSCQTZ"/>
      <point x="507.68986283848346" y="384.35028842544403" name="LXCNBPVE"/>
      <point x="502.68986283848346" y="380.1076477383248" name="JXMLWDKL"/>
      <point x="497.18986283848346" y="376.572113832392" type="curve" name="UJGGTJDO"/>
      <point x="493.2193000900063" y="387.88582233137674" name="HSBSKVAC"/>
      <point x="478.88477631085016" y="393.54267658086917" name="UOXZARYZ"/>
      <point x="453.92893218813447" y="392.8355697996826" type="curve" smooth="yes" name="XGIFKWIW"/>
      <point x="383.7182540694797" y="392.12846301849606" name="JAQZHOZU"/>
      <point x="263.9928573250636" y="356.06601717798213" name="SOQPNWLS"/>
      <point x="201.4928573250636" y="266.2634559672906" type="curve" smooth="yes" name="GYBVVHZQ"/>
      <point x="139.9928573250636" y="177.87510831897214" name="CPCDWZSV"/>
      <point x="175.21825406947983" y="94.43650813895954" name="IBFVDCQZ"/>
      <point x="246.13603896932108" y="95.14361492014609" type="curve" smooth="yes" name="CGGTEDDF"/>
      <point x="283.6126983722081" y="95.14361492014609" name="VWREYUDU"/>
      <point x="322.6396103067893" y="117.06392513692907" name="AVCCNGYW"/>
      <point x="356.14570696119915" y="146.76240994676405" type="curve" name="QZUPUKSB"/>
      <point x="362.6162697096763" y="117.7710319181156" name="OVHPASBG"/>
      <point x="383.86500705120545" y="98.6791488260788" name="WHRZIXUD"/>
      <point x="419.0990257669732" y="95.85072170133262" type="curve" smooth="yes" name="GEVITFRM"/>
      <point x="506.6234123846127" y="88.07254710828062" name="YRQOLTWD"/>
      <point x="616.6122650963196" y="172.21825406947977" name="FRKBGAUP"/>
      <point x="704.1122650963196" y="276.16295090390224" type="curve" smooth="yes" name="PMFLCHND"/>
      <point x="825.6122650963194" y="419.7056274847714" name="ZWBTEVGC"/>
      <point x="834.3685783886737" y="455.7680733252854" name="IHAFHYGC"/>
      <point x="654.4705627484772" y="457.1822868876585" type="curve" smooth="yes" name="QXXOKDSK"/>
      <point x="468.7085860776017" y="457.88939366884506" name="SRHBXOJX"/>
      <point x="174.23697730859794" y="418.2914139223983" name="FDUUZIDX"/>
      <point x="50.236977308598" y="237.27207793864216" type="curve" smooth="yes" name="LVWFWUYH"/>
      <point x="-104.76302269140194" y="9.583694396573833" name="MBQAJLCS"/>
      <point x="83.84819638439097" y="-225.88286373854652" name="PSAFIGMA"/>
      <point x="354.59292911256335" y="-117.69552621700473" type="curve" name="BPEMZDQQ"/>
      <point x="354.59292911256335" y="-117.69552621700473" name="GJJGLNVQ"/>
      <point x="354.59292911256335" y="-117.69552621700473" name="UOAJPJAM"/>
    </contour>
    <contour>
      <point x="303.3639610306789" y="207.57359312880715" type="curve" name="EMOTFFFK"/>
      <point x="272.25126265847086" y="207.57359312880715" name="OYFKMIOH"/>
      <point x="265.9522727852475" y="235.1507575950825" name="DMJXAUVV"/>
      <point x="292.4522727852475" y="272.62741699796953" type="curve" smooth="yes" name="DZHUMLQS"/>
      <point x="318.9522727852475" y="310.10407640085657" name="PMKRWBNE"/>
      <point x="357.7512626584708" y="328.4888527117068" name="QXHJBGKE"/>
      <point x="388.86396103067887" y="328.4888527117068" type="curve" smooth="yes" name="LVTOXYBI"/>
      <point x="420.68376618407353" y="328.4888527117068" name="RNEWXPDQ"/>
      <point x="421.68986283848346" y="309.39696961967" name="AMDFMIGB"/>
      <point x="395.68986283848346" y="272.62741699796953" type="curve" smooth="yes" name="VUQSOBLA"/>
      <point x="369.68986283848346" y="235.85786437626905" name="CKFLGXGA"/>
      <point x="335.1837661840736" y="207.57359312880715" name="SAURCMSP"/>
      <point x="303.3639610306789" y="207.57359312880715" type="curve" name="SAEYXHYD"/>
      <point x="303.3639610306789" y="207.57359312880715" name="ADSKUVWY"/>
      <point x="303.3639610306789" y="207.57359312880715" name="KQJHCKLW"/>
    </contour>
  </outline>
</glyph>
<glyph name="A" format="2">
  <advance width="465"/>
  <unicode hex="0041"/>
  <anchor x="325.0" y="94.0" name="ogonek"/>
  <anchor x="112.0" y="123.0" name="below"/>
  <anchor x="432.0" y="575.0" name="above"/>
  <outline>
    <contour>
      <point x="-38" y="-50" type="curve" name="CGARYYXP"/>
      <point x="-2" y="-42" name="DRUHJKGS"/>
      <point x="36" y="-36" name="QIQMBXQI"/>
      <point x="74" y="-32" type="curve" name="QYMYTCJP"/>
      <point x="87" y="24" name="YRSCQUBP"/>
      <point x="102" y="75" name="EVJTMKDU"/>
      <point x="122" y="121" type="curve" name="KQVBMIUM"/>
      <point x="173" y="125" name="RMXTFEYY"/>
      <point x="227" y="125" name="RUFTHLLU"/>
      <point x="284" y="121" type="curve" name="DMURYOGK"/>
      <point x="283" y="75" name="KAVLPEUO"/>
      <point x="284" y="24" name="HZSNSODU"/>
      <point x="290" y="-32" type="curve" name="OCJTETPF"/>
      <point x="333" y="-36" name="IILXSTVE"/>
      <point x="380" y="-42" name="KDLKMSLS"/>
      <point x="427" y="-50" type="curve" name="YWZXNEES"/>
      <point x="393" y="245" name="HJCKXXZA"/>
      <point x="455" y="415" name="FZZAXTBI"/>
      <point x="605" y="451" type="curve" name="MUVECWEN"/>
      <point x="546" y="455" name="IYLHCCVV"/>
      <point x="489" y="455" name="DZVZUNHQ"/>
      <point x="436" y="451" type="curve" name="SYJZYHBQ"/>
      <point x="188" y="415" name="DFBPSPWP"/>
      <point x="27" y="245" name="ODMZKCHR"/>
    </contour>
    <contour>
      <point x="203" y="261" type="curve" name="DVUHSUKP"/>
      <point x="252" y="326" name="SDWYHUUS"/>
      <point x="315" y="375" name="EUAXJBGB"/>
      <point x="387" y="408" type="curve" name="RLJWRQZR"/>
      <point x="348" y="375" name="UAZEHUTY"/>
      <point x="319" y="326" name="XYFVYLWJ"/>
      <point x="302" y="261" type="curve" name="EQYFUZTU"/>
      <point x="268" y="263" name="MAVYCUXW"/>
      <point x="235" y="263" name="IJYUXZLL"/>
    </contour>
  </outline>
</glyph>
<glyph name="B" format="2">
  <advance width="422"/>
  <unicode hex="0042"/>
  <outline>
    <contour>
      <point x="7" y="-48" type="curve" name="UNVTAXDO"/>
      <point x="58" y="-36" name="MXKDSPUW"/>
      <point x="116" y="-29" name="MSIWPBAZ"/>
      <point x="177" y="-30" type="curve" smooth="yes" name="GAWBKOPS"/>
      <point x="279" y="-30" name="NXTUDNFF"/>
      <point x="364" y="60" name="IKSAMLDL"/>
      <point x="405" y="174" type="curve" smooth="yes" name="HDZCASFW"/>
      <point x="426" y="234" name="ACDMKYFA"/>
      <point x="427" y="279" name="RHIPGAGY"/>
      <point x="401" y="308" type="curve" name="LQXGOYRD"/>
      <point x="449" y="325" name="GMVRBCUH"/>
      <point x="492" y="351" name="PEXWVERC"/>
      <point x="530" y="377" type="curve" smooth="yes" name="HRPMNBLY"/>
      <point x="608" y="432" name="HAHUNTQG"/>
      <point x="607" y="452" name="XIZTPZUS"/>
      <point x="510" y="451" type="curve" smooth="yes" name="ZGQUMYFH"/>
      <point x="452" y="451" name="YBSXDRCT"/>
      <point x="396" y="445" name="ROBKSRJP"/>
      <point x="347" y="433" type="curve" name="PEOUGRIC"/>
      <point x="145" y="402" name="YMEASXRB"/>
      <point x="29" y="238" name="RUOKIIEH"/>
    </contour>
    <contour>
      <point x="385" y="383" type="curve" name="RETBCBOY"/>
      <point x="362" y="366" name="THQDYVND"/>
      <point x="333" y="353" name="OVCYBNBI"/>
      <point x="308" y="353" type="curve" smooth="yes" name="YYPIMLAP"/>
      <point x="291" y="353" name="GNVTDVUE"/>
      <point x="274" y="353" name="ZCNAICXS"/>
      <point x="258" y="351" type="curve" name="DCEBKRTE"/>
      <point x="280" y="374" name="IYEQKWSG"/>
      <point x="307" y="393" name="VZMOFSEF"/>
      <point x="334" y="408" type="curve" name="FLNXQLCW"/>
      <point x="350" y="410" name="FFPFMKKW"/>
      <point x="367" y="411" name="NKOKBDTC"/>
      <point x="384" y="411" type="curve" smooth="yes" name="MRTIVKWA"/>
      <point x="408" y="411" name="BRMBLGTE"/>
      <point x="408" y="401" name="BFONSOAB"/>
      <point x="385" y="383" type="curve" name="KQTHQFXY"/>
      <point x="385" y="383" name="URVFADHM"/>
      <point x="385" y="383" name="DRQNLPRC"/>
    </contour>
    <contour>
      <point x="275" y="205" type="curve" name="CEXVIVIP"/>
      <point x="261" y="169" name="DDSVSCXB"/>
      <point x="235" y="145" name="FUNVPLPQ"/>
      <point x="204" y="146" type="curve" smooth="yes" name="OWCDRFHK"/>
      <point x="185" y="146" name="CILNSOOK"/>
      <point x="165" y="145" name="EXQZAWPW"/>
      <point x="147" y="144" type="curve" name="BEQBNDVC"/>
      <point x="158" y="186" name="FFOBVYCH"/>
      <point x="173" y="225" name="ZIFMPYEC"/>
      <point x="191" y="257" type="curve" name="ZJRYORPB"/>
      <point x="209" y="258" name="FHERCAPO"/>
      <point x="229" y="259" name="AQBIBCSM"/>
      <point x="248" y="259" type="curve" smooth="yes" name="UTLZTSCY"/>
      <point x="279" y="258" name="HPCTXGQU"/>
      <point x="288" y="239" name="UCIPHJJD"/>
      <point x="275" y="205" type="curve" name="BYQYXYYL"/>
      <point x="275" y="205" name="PDXZJAKT"/>
      <point x="275" y="205" name="GUGNFAXT"/>
    </contour>
  </outline>
</glyph>
<glyph name="C" format="2">
  <advance width="414"/>
  <unicode hex="0043"/>
  <anchor x="257.0" y="517" name="center"/>
  <outline>
    <contour>
      <point x="83" y="291" type="curve" name="IVHAQPIE"/>
      <point x="-45" y="110" name="ZXBMTVRH"/>
      <point x="92" y="-94" name="XWMQTRVA"/>
      <point x="337" y="-28" type="curve" name="FTCQKYXD"/>
      <point x="344" y="41" name="HEWERGDG"/>
      <point x="357" y="104" name="XPFFQJFR"/>
      <point x="375" y="158" type="curve" name="JRKPBQWS"/>
      <point x="224" y="109" name="XHOODBZS"/>
      <point x="108" y="179" name="OSQCDQLO"/>
      <point x="199" y="307" type="curve" smooth="yes" name="RDQGGYDD"/>
      <point x="289" y="435" name="RTSNBEIU"/>
      <point x="457" y="439" name="NQPZGFTB"/>
      <point x="534" y="383" type="curve" name="VNVGUPGI"/>
      <point x="572" y="408" name="HERYZNUV"/>
      <point x="616" y="426" name="WKEVDROD"/>
      <point x="665" y="436" type="curve" name="LKUTTBMC"/>
      <point x="507" y="493" name="RQUKTEGG"/>
      <point x="211" y="472" name="FIXMFTEL"/>
      <point x="83" y="291" type="curve" name="CEHJKYUD"/>
      <point x="83" y="291" name="HARSATJI"/>
      <point x="83" y="291" name="AHRGHNMB"/>
    </contour>
  </outline>
</glyph>
<glyph name="D" format="2">
  <advance width="481"/>
  <unicode hex="0044"/>
  <outline>
    <contour>
      <point x="22.89918856429273" y="-70.319371877506" type="curve" name="MBEUQPHG"/>
      <point x="71.46773105921653" y="-59.00566337852126" name="TVRNZMBC"/>
      <point x="124.45048711651341" y="-51.93459556665579" name="TJGAIBOB"/>
      <point x="179.51902961143725" y="-49.81327522309613" type="curve" smooth="yes" name="RWIAMCVS"/>
      <point x="315.11195872400054" y="-45.570634535976865" name="VIODMEPQ"/>
      <point x="439.6424419960499" y="129.79184719828692" name="EIFFYFGK"/>
      <point x="537.6424419960499" y="266.97056274847716" type="curve" smooth="yes" name="AOJYRMRL"/>
      <point x="634.6424419960499" y="404.14927829866735" name="YCVRAWSD"/>
      <point x="655.1119587240005" y="435.26197667087547" name="XQUTOSBW"/>
      <point x="519.5190296114372" y="431.0193359837562" type="curve" smooth="yes" name="QKUHVRXG"/>
      <point x="464.4504871165134" y="428.89801564019655" name="GPTJJNFI"/>
      <point x="411.4677310592165" y="421.8269478283311" name="IRSWTWQU"/>
      <point x="362.8991885642927" y="410.51323932934633" type="curve" name="XZJQCWFG"/>
      <point x="160.89918856429267" y="379.4005409571382" name="CTBTMCTA"/>
      <point x="44.8991885642927" y="215.35176772185918" name="UMDMZDON"/>
    </contour>
    <contour>
      <point x="392.0190296114372" y="387.8858223313768" type="curve" smooth="yes" name="FWWDAGIH"/>
      <point x="461.22970773009195" y="390.0071426749364" name="EQBEZDRL"/>
      <point x="451.984541726031" y="358.1873375215418" name="LEJYBDGY"/>
      <point x="399.984541726031" y="284.6482322781408" type="curve" smooth="yes" name="DAXQZEUR"/>
      <point x="347.484541726031" y="210.40202025355333" name="VPZFWNDW"/>
      <point x="279.22970773009195" y="132.62027432303313" name="KGXLCKBA"/>
      <point x="210.0190296114372" y="130.49895397947347" type="curve" smooth="yes" name="MJSERIPL"/>
      <point x="194.96268042533313" y="129.79184719828692" name="CHWICFHW"/>
      <point x="179.69922445804258" y="128.37763363591384" name="HGRINEAX"/>
      <point x="164.64287527193852" y="127.67052685472729" type="curve" name="JJMXLALR"/>
      <point x="199.14287527193852" y="248.5857864376269" name="YPKAYXGK"/>
      <point x="260.6428752719385" y="336.97413408594537" name="DYVEKPQZ"/>
      <point x="346.64287527193846" y="385.0573952066306" type="curve" name="RVCIRYZX"/>
      <point x="361.6992244580425" y="385.76450198781714" name="VLYBTGZO"/>
      <point x="376.96268042533313" y="387.17871555019025" name="OLYRJBXG"/>
    </contour>
  </outline>
</glyph>
<glyph name="E" format="2">
  <advance width="374"/>
  <unicode hex="0045"/>
  <outline>
    <contour>
      <point x="1" y="-43" type="curve" name="UKGGMFDY"/>
      <point x="83" y="-24" name="NPPVOJKJ"/>
      <point x="181" y="-24" name="FPJDRGEE"/>
      <point x="290" y="-43" type="curve" name="SRHEPAKV"/>
      <point x="295" y="22" name="ULTCNFKI"/>
      <point x="305" y="83" name="CKKAPEUZ"/>
      <point x="320" y="135" type="curve" name="QYJRGIHG"/>
      <point x="258" y="146" name="DELZIHAM"/>
      <point x="198" y="151" name="RMYHXQYC"/>
      <point x="145" y="149" type="curve" name="HCYUJINQ"/>
      <point x="156" y="189" name="SQBXIOMK"/>
      <point x="170" y="226" name="RQZYLUQU"/>
      <point x="186" y="257" type="curve" name="ITMGMGSL"/>
      <point x="235" y="259" name="VVYVJIFY"/>
      <point x="289" y="255" name="QMEQBYZS"/>
      <point x="345" y="246" type="curve" name="CAWJWFLK"/>
      <point x="366" y="287" name="YAQQAFUM"/>
      <point x="392" y="322" name="JLUOGTVC"/>
      <point x="422" y="350" type="curve" name="HTVCMYHI"/>
      <point x="367" y="359" name="ZWPOWAJW"/>
      <point x="312" y="363" name="CPZOIMOJ"/>
      <point x="264" y="361" type="curve" name="OUSIYIMI"/>
      <point x="283" y="380" name="NVUQNPCA"/>
      <point x="305" y="396" name="DRWSJXPI"/>
      <point x="329" y="409" type="curve" name="EOIHMBHU"/>
      <point x="382" y="411" name="MSAUUBPO"/>
      <point x="442" y="406" name="CUDUWQVK"/>
      <point x="504" y="395" type="curve" name="DKLCXPWU"/>
      <point x="541" y="415" name="JFYRTTQK"/>
      <point x="584" y="431" name="AUJCCIWT"/>
      <point x="630" y="438" type="curve" name="XTRCCSPD"/>
      <point x="521" y="457" name="QNVKMRXH"/>
      <point x="423" y="457" name="XCGBFNPI"/>
      <point x="341" y="438" type="curve" name="SVNLFKYC"/>
      <point x="140" y="406" name="FKKRMJYU"/>
      <point x="24" y="242" name="BZACQLIQ"/>
    </contour>
  </outline>
</glyph>
<glyph name="F" format="2">
  <advance width="366"/>
  <unicode hex="0046"/>
  <outline>
    <contour>
      <point x="19.82128444980981" y="-66.78383797157329" type="curve" name="UHPOEETS"/>
      <point x="55.333477758629556" y="-59.00566337852126" name="YYHQHWZX"/>
      <point x="93.55277784863586" y="-54.05591591021545" name="SHIROAVW"/>
      <point x="133.5649711574556" y="-52.64170234784234" type="curve" name="XMKGEVSU"/>
      <point x="142.0649711574556" y="52.71720804895324" name="WXVOCSKB"/>
      <point x="163.5649711574556" y="143.93398282201787" name="QJYTTOKJ"/>
      <point x="196.0649711574556" y="215.35176772185918" type="curve" name="RIVQTFTY"/>
      <point x="244.56244584051393" y="216.76598128423228" name="LWHGLDKX"/>
      <point x="299.1812408671319" y="212.523340597113" name="KLMYQTFJ"/>
      <point x="354.6787155501902" y="204.0380592228744" type="curve" name="MQVMKTAY"/>
      <point x="374.6787155501902" y="246.46446609406726" name="VOZEUMFK"/>
      <point x="399.6787155501902" y="283.2340187157678" name="IBZWRKMS"/>
      <point x="428.1787155501902" y="313.6396103067893" type="curve" name="SSNGZMRN"/>
      <point x="372.6812408671319" y="322.12489168102786" name="CCVYIHEV"/>
      <point x="318.0624458405139" y="326.3675323681471" name="GEGZTYEC"/>
      <point x="269.5649711574556" y="324.9533188057741" type="curve" name="QHSTDQOW"/>
      <point x="292.0649711574556" y="348.2878425849301" name="ULYZFMHE"/>
      <point x="318.5649711574556" y="368.79393923934003" name="HBCBMJGQ"/>
      <point x="346.0649711574556" y="385.0573952066306" type="curve" name="WRDIAJGU"/>
      <point x="399.51219330881975" y="386.4716087690037" name="OMDJVJQK"/>
      <point x="458.873629022557" y="381.5218613006979" name="XEYNMJRX"/>
      <point x="520.8208511739211" y="370.91525958289964" type="curve" name="ZKKDFILJ"/>
      <point x="558.3208511739211" y="391.4213562373095" name="OSICXDKK"/>
      <point x="601.8208511739211" y="406.270598642227" name="WEALFYTU"/>
      <point x="648.3208511739211" y="414.04877323527904" type="curve" name="NXLPHWIK"/>
      <point x="539.3614357137371" y="433.1406563273158" name="QUAXMSKM"/>
      <point x="441.7806999099937" y="433.1406563273158" name="YEYWFEGK"/>
      <point x="359.8212844498097" y="414.04877323527904" type="curve" name="XPZKUUFD"/>
      <point x="158.32128444980975" y="382.22896808188443" name="JYBHYSLV"/>
      <point x="42.32128444980978" y="218.18019484660536" name="MBVUSQZR"/>
    </contour>
  </outline>
</glyph>
<glyph name="G" format="2">
  <advance width="478"/>
  <unicode hex="0047"/>
  <outline>
    <contour>
      <point x="411.1614716074871" y="-20.114790413261176" type="curve" name="HREDDHVL"/>
      <point x="430.1614716074871" y="126.96342007354073" name="QXTAFFSJ"/>
      <point x="476.6614716074871" y="239.3933982822018" name="IENORUBX"/>
      <point x="548.1614716074871" y="312.2253967444162" type="curve" name="QOXCZIBD"/>
      <point x="473.60764773832466" y="325.6604255869606" name="FIJIUPGY"/>
      <point x="401.4325035256027" y="332.73149339882605" name="HHQJACXM"/>
      <point x="336.37867965644034" y="332.73149339882605" type="curve" name="LIVDMQLK"/>
      <point x="307.87867965644034" y="303.74011537017765" name="NCYPDDCR"/>
      <point x="282.87867965644034" y="266.97056274847716" name="OHAFWLVY"/>
      <point x="262.37867965644034" y="226.66547622084394" type="curve" name="UXQQDNDF"/>
      <point x="289.0416305603426" y="225.9583694396574" name="JLIRAHDP"/>
      <point x="316.41168824543144" y="225.25126265847084" name="VGQASOXN"/>
      <point x="344.5746391493337" y="222.42283553372465" type="curve" name="IPMNEIXY"/>
      <point x="330.0746391493337" y="193.4314575050762" name="XYRWBXQC"/>
      <point x="317.0746391493337" y="160.904545570495" name="OMFBNAWC"/>
      <point x="307.5746391493337" y="124.8420997299811" type="curve" name="XAZLVTJY"/>
      <point x="289.5182899632296" y="121.30656582404836" name="OCYMABID"/>
      <point x="271.0477272147525" y="120.59945904286178" name="DPMRIEJF"/>
      <point x="256.198484809835" y="120.59945904286178" type="curve" smooth="yes" name="QZFNEZZJ"/>
      <point x="182.7806999099937" y="123.427886167608" name="RRDYSZTW"/>
      <point x="155.78322522693537" y="206.15937956643404" name="WORFDSHE"/>
      <point x="212.78322522693537" y="286.7695526217005" type="curve" smooth="yes" name="KMZXZPEM"/>
      <point x="299.2832252269353" y="407.6848122046001" name="PKHOKEQK"/>
      <point x="467.3700576850888" y="428.89801564019655" name="MHCAUDNE"/>
      <point x="585.1406563273158" y="358.89444430272835" type="curve" name="BGXOXAES"/>
      <point x="623.1406563273158" y="384.35028842544403" name="OOJTVVII"/>
      <point x="666.6406563273158" y="403.44217151748086" name="DBNATENP"/>
      <point x="715.1406563273158" y="414.04877323527904" type="curve" name="VEHNJYTS"/>
      <point x="528.3603896932107" y="481.93102422918764" name="YTDBFZJD"/>
      <point x="222.41821817572986" y="447.28279195104676" name="KBKUAUIS"/>
      <point x="95.91821817572986" y="264.14213562373095" type="curve" smooth="yes" name="BNTSDMVF"/>
      <point x="-33.08178182427008" y="77.4659453904824" name="FRMGVAWW"/>
      <point x="109.29541853575515" y="-139.61583643378765" name="QDASGGMT"/>
      <point x="411.1614716074871" y="-20.114790413261176" type="curve" name="HSJMEXAB"/>
      <point x="411.1614716074871" y="-20.114790413261176" name="RLRCQVYD"/>
      <point x="411.1614716074871" y="-20.114790413261176" name="KECUMIHF"/>
    </contour>
    <contour>
      <point x="397.57821048680194" y="160.19743878930848" type="curve" name="INOZOWEA"/>
      <point x="395.8711037056154" y="160.19743878930848" name="JRPFZBLI"/>
      <point x="395.8711037056154" y="160.19743878930848" name="MINCCQOM"/>
      <point x="395.16399692442883" y="158.78322522693537" type="curve" name="CUMXKXEC"/>
      <point x="396.3711037056154" y="159.49033200812192" name="IVUMVMAS"/>
      <point x="395.8711037056154" y="160.19743878930848" name="UCDUEDLC"/>
    </contour>
  </outline>
</glyph>
<glyph name="H" format="2">
  <advance width="491"/>
  <unicode hex="0048"/>
  <anchor x="105.0" y="94.0" name="below"/>
  <anchor x="445.0" y="575.0" name="above"/>
  <outline>
    <contour>
      <point x="119" y="-31" type="curve" name="XSIDIMSS"/>
      <point x="128" y="83" name="JNKTKDYQ"/>
      <point x="153" y="181" name="SYLHAGBC"/>
      <point x="191" y="255" type="curve" name="NBEHPKSC"/>
      <point x="237" y="259" name="NYSBNDWO"/>
      <point x="289" y="259" name="VOCHPDMC"/>
      <point x="341" y="255" type="curve" name="TWHNGQBA"/>
      <point x="303" y="182" name="HTYJZGRX"/>
      <point x="279" y="83" name="IYRSDTRB"/>
      <point x="270" y="-31" type="curve" name="CXRMOGHO"/>
      <point x="313" y="-34" name="GKJQGBGQ"/>
      <point x="359" y="-40" name="PSXPDOVR"/>
      <point x="406" y="-48" type="curve" name="OFPJFGGK"/>
      <point x="428" y="237" name="ZDQFGMFO"/>
      <point x="544" y="401" name="IDEGANFD"/>
      <point x="746" y="432" type="curve" name="MJNAAVEF"/>
      <point x="699" y="441" name="DPQONQFS"/>
      <point x="653" y="447" name="KWDNBIBT"/>
      <point x="610" y="449" type="curve" name="TGUPWSIF"/>
      <point x="537" y="438" name="QTMADIXN"/>
      <point x="474" y="409" name="XTELEBKO"/>
      <point x="424" y="365" type="curve" name="NXJLAMMO"/>
      <point x="372" y="369" name="BQQDRHAS"/>
      <point x="321" y="369" name="ZJDETXAJ"/>
      <point x="274" y="365" type="curve" name="BABAHOFI"/>
      <point x="324" y="409" name="QYZOWPFL"/>
      <point x="386" y="438" name="JMSEZPOL"/>
      <point x="459" y="449" type="curve" name="SPFLXKTM"/>
      <point x="420" y="447" name="PCIJBUOR"/>
      <point x="382" y="441" name="SUQGWWZP"/>
      <point x="347" y="432" type="curve" name="TUADPWPE"/>
      <point x="146" y="401" name="RCUHHAIV"/>
      <point x="30" y="237" name="AFYJBGYM"/>
      <point x="7" y="-48" type="curve" name="EGKGRDEX"/>
      <point x="42" y="-40" name="PZTAWEBA"/>
      <point x="80" y="-34" name="YACPKPNA"/>
    </contour>
  </outline>
</glyph>
<glyph name="I" format="2">
  <advance width="223"/>
  <unicode hex="0049"/>
  <outline>
    <contour>
      <point x="1" y="-39" type="curve" name="SPPIOHRP"/>
      <point x="37" y="-31" name="NQSMQIHM"/>
      <point x="79" y="-31" name="QPBCQXBX"/>
      <point x="125" y="-39" type="curve" name="CINAQAHS"/>
      <point x="148" y="246" name="QDISZRUT"/>
      <point x="264" y="410" name="RMDFWLLA"/>
      <point x="465" y="442" type="curve" name="TKJXGBPB"/>
      <point x="419" y="450" name="APUHNJCV"/>
      <point x="377" y="450" name="LJOIDXAM"/>
      <point x="341" y="442" type="curve" name="LQQZJUDV"/>
      <point x="140" y="410" name="ASQZTTGE"/>
      <point x="24" y="246" name="HUHTXCRN"/>
    </contour>
  </outline>
</glyph>
<glyph name="J" format="2">
  <advance width="306"/>
  <unicode hex="004A"/>
  <anchor x="60.0" y="87.0" name="below"/>
  <anchor x="405.0" y="575.0" name="above"/>
  <outline>
    <contour>
      <point x="281" y="210" type="curve" name="JMWQAVRL"/>
      <point x="337" y="338" name="RRPYGIIM"/>
      <point x="434" y="415" name="AFUIYYSX"/>
      <point x="567" y="435" type="curve" name="XERVQHAS"/>
      <point x="520" y="444" name="NWKBRTSL"/>
      <point x="475" y="448" name="QULXYRIC"/>
      <point x="434" y="448" type="curve" name="LPOETUMZ"/>
      <point x="301" y="427" name="JRPYPBSZ"/>
      <point x="204" y="351" name="WVSDYVEX"/>
      <point x="148" y="223" type="curve" smooth="yes" name="PTJYJKSQ"/>
      <point x="116" y="151" name="UJNTGBBZ"/>
      <point x="71" y="135" name="IEMECYYY"/>
      <point x="4" y="152" type="curve" name="IWJKYQNS"/>
      <point x="-13" y="98" name="LZHWKPOQ"/>
      <point x="-25" y="36" name="CZQCHFRM"/>
      <point x="-31" y="-33" type="curve" name="XFWXPHGL"/>
      <point x="120" y="-71" name="XSKQNKGF"/>
      <point x="210" y="51" name="VAWYGJUZ"/>
      <point x="281" y="210" type="curve" name="GYDDEAJP"/>
      <point x="281" y="210" name="XQRNGECI"/>
      <point x="281" y="210" name="BTCEPXVD"/>
    </contour>
  </outline>
</glyph>
<glyph name="K" format="2">
  <advance width="457"/>
  <unicode hex="004B"/>
  <anchor x="101.0" y="94.0" name="below"/>
  <anchor x="441.0" y="575.0" name="above"/>
  <outline>
    <contour>
      <point x="8" y="-49" type="curve" name="IGOLHHRJ"/>
      <point x="43" y="-41" name="OVWJILIA"/>
      <point x="81" y="-35" name="TFSXANMV"/>
      <point x="119" y="-31" type="curve" name="PUDIFIIQ"/>
      <point x="129" y="88" name="YUTCAAGP"/>
      <point x="154" y="188" name="MLFIPXUS"/>
      <point x="195" y="263" type="curve" name="ZLWKNGUX"/>
      <point x="200" y="191" name="ZVXTXGGI"/>
      <point x="223" y="92" name="GOPKCSCU"/>
      <point x="264" y="-30" type="curve" name="QOZWLMWG"/>
      <point x="315" y="-33" name="NBPFTUTG"/>
      <point x="369" y="-39" name="EEKCJFHH"/>
      <point x="425" y="-49" type="curve" name="KOHKNAJN"/>
      <point x="366" y="114" name="OZDXYWFT"/>
      <point x="334" y="239" name="HGYSSRPS"/>
      <point x="332" y="320" type="curve" name="MWBXQFCG"/>
      <point x="448" y="392" name="DYIMNEHA"/>
      <point x="592" y="430" name="LUEVBDYX"/>
      <point x="755" y="434" type="curve" name="TFHBVIUH"/>
      <point x="703" y="442" name="YAKRRSXN"/>
      <point x="651" y="449" name="ROHNVGIB"/>
      <point x="603" y="451" type="curve" name="EZJJFSUZ"/>
      <point x="475" y="442" name="PNFFSPMD"/>
      <point x="360" y="409" name="BEPTJMKX"/>
      <point x="263" y="355" type="curve" name="KNDMKMND"/>
      <point x="315" y="405" name="ROHVIILV"/>
      <point x="381" y="437" name="EYKEYMGX"/>
      <point x="459" y="449" type="curve" name="CJHRXBJZ"/>
      <point x="421" y="446" name="IFJUMRQZ"/>
      <point x="383" y="440" name="PUGGIZYZ"/>
      <point x="348" y="432" type="curve" name="YOAFKGQJ"/>
      <point x="146" y="400" name="YNMFLCGO"/>
      <point x="30" y="236" name="UBDMZJNM"/>
    </contour>
  </outline>
</glyph>
<glyph name="L" format="2">
  <advance width="341"/>
  <unicode hex="004C"/>
  <anchor x="43.0" y="94.0" name="below"/>
  <anchor x="331.0" y="575.0" name="above"/>
  <anchor x="311.0" y="460.0" name="right"/>
  <outline>
    <contour>
      <point x="5" y="-46" type="curve" name="OFNUQJYT"/>
      <point x="82" y="-27" name="ZZDFIRSW"/>
      <point x="176" y="-27" name="RPRWPCQA"/>
      <point x="279" y="-46" type="curve" name="LNLBFIMA"/>
      <point x="284" y="21" name="BYQVNVOZ"/>
      <point x="295" y="84" name="KOILIJLF"/>
      <point x="310" y="136" type="curve" name="JFKDNVXA"/>
      <point x="253" y="146" name="VQTCZQXB"/>
      <point x="198" y="151" name="WWNGRDEX"/>
      <point x="149" y="150" type="curve" name="QFNMFYWU"/>
      <point x="198" y="324" name="IGZGYUYL"/>
      <point x="304" y="425" name="LUBHALAF"/>
      <point x="458" y="449" type="curve" name="PYLRGRBO"/>
      <point x="418" y="448" name="HBXXTPRJ"/>
      <point x="380" y="444" name="RFVJYYJD"/>
      <point x="345" y="435" type="curve" name="FRWJAUCG"/>
      <point x="143" y="404" name="LBJFODZU"/>
      <point x="27" y="240" name="PHMOPYNE"/>
    </contour>
  </outline>
</glyph>
<glyph name="M" format="2">
  <advance width="606"/>
  <unicode hex="004D"/>
  <outline>
    <contour>
      <point x="23.61313164809667" y="-72.44069222106566" type="curve" name="EOIBLOKX"/>
      <point x="56.29689783217029" y="-64.66251762801363" name="XNZRIAJR"/>
      <point x="92.60198435980348" y="-59.00566337852126" name="OCMDNBEO"/>
      <point x="127.78575054387707" y="-54.76302269140194" type="curve" name="LNUUDBJN"/>
      <point x="142.28575054387704" y="135.44870144777929" name="SKDBVUEO"/>
      <point x="199.28575054387704" y="274.04163056034264" name="ICMKVRXY"/>
      <point x="293.78575054387704" y="351.1162697096763" type="curve" name="VAOINELB"/>
      <point x="225.07002179133895" y="277.57716446627535" name="EOOJMAHU"/>
      <point x="195.35429303880085" y="140.39844891608513" name="QPPZXEJJ"/>
      <point x="208.13856428626275" y="-48.39906166072308" type="curve" name="TLCASVOF"/>
      <point x="241.99390334559013" y="-46.27774131716342" name="XEWUBBPW"/>
      <point x="278.7634559672906" y="-46.27774131716342" name="TLAYJXNG"/>
      <point x="315.118795026618" y="-47.691954879536524" type="curve" name="LFCMWZPZ"/>
      <point x="359.4030662740799" y="144.64108960320442" name="GXCBBWYB"/>
      <point x="449.10155108391484" y="281.81980515339467" name="ATFBXLZT"/>
      <point x="577.3858223313767" y="355.3589103967956" type="curve" name="JVXSWVIE"/>
      <point x="479.88582233137674" y="278.2842712474619" name="IQSVWAUW"/>
      <point x="421.38582233137674" y="138.98423535371205" name="XYRFBCBH"/>
      <point x="405.88582233137686" y="-54.05591591021545" type="curve" name="TJCGTTVC"/>
      <point x="448.4838020778235" y="-58.29855659733471" name="JUCWGVWW"/>
      <point x="493.2888886054567" y="-64.66251762801363" name="QJMGKOGC"/>
      <point x="538.3868683519033" y="-72.44069222106566" type="curve" name="BAPIYUZZ"/>
      <point x="560.1797615707168" y="212.52334059711296" name="ELMSRBWL"/>
      <point x="674.2655480083437" y="377.27922061357856" name="HSTOWMKS"/>
      <point x="875.0584412271571" y="409.0990257669732" type="curve" name="NKVIVTOB"/>
      <point x="809.0756851698602" y="420.41273426595797" name="LBRIWAKP"/>
      <point x="744.8858223313767" y="428.19090885901" name="QRBRDFVA"/>
      <point x="684.4030662740798" y="431.7264427649427" type="curve" name="XBOJQCOX"/>
      <point x="534.7401153701776" y="414.04877323527904" name="PUOINPPA"/>
      <point x="414.16295090390224" y="346.16652224137044" name="YGSSQYGL"/>
      <point x="331.5" y="233.73654403270942" type="curve" name="XHFRFCFQ"/>
      <point x="361.1299423149112" y="346.16652224137044" name="MZEOHRGS"/>
      <point x="427.2598846298224" y="414.04877323527904" name="GXQZKJDH"/>
      <point x="523.8898269447335" y="431.7264427649427" type="curve" name="MNPRODYE"/>
      <point x="468.19996410625004" y="427.48380207782344" name="AXQRBIXK"/>
      <point x="414.30299448658" y="419.7056274847714" name="IEIQNAVU"/>
      <point x="363.6131316480966" y="408.3919189857867" type="curve" name="MURISXZG"/>
      <point x="162.11313164809667" y="376.572113832392" name="AAQQWQUH"/>
      <point x="46.11313164809667" y="212.52334059711296" name="IFAEKOKG"/>
    </contour>
  </outline>
</glyph>
<glyph name="N" format="2">
  <advance width="491"/>
  <unicode hex="004E"/>
  <anchor x="105.0" y="94.0" name="below"/>
  <anchor x="445.0" y="575.0" name="above"/>
  <outline>
    <contour>
      <point x="7" y="-48" type="curve" name="YDYRORQL"/>
      <point x="42" y="-41" name="URCMHVMF"/>
      <point x="79" y="-35" name="CRVUWUCK"/>
      <point x="117" y="-31" type="curve" name="MOGSNFPV"/>
      <point x="130" y="130" name="QWLPFNJT"/>
      <point x="172" y="254" name="SVCTABAE"/>
      <point x="243" y="334" type="curve" name="WFAUDWKU"/>
      <point x="220" y="258" name="JNXPOLHZ"/>
      <point x="229" y="134" name="NJWBOCAX"/>
      <point x="269" y="-31" type="curve" name="QQZXQWCE"/>
      <point x="312" y="-34" name="LAGVUGUM"/>
      <point x="359" y="-40" name="QAQUXJSM"/>
      <point x="406" y="-48" type="curve" name="HMBZRQFT"/>
      <point x="428" y="237" name="RPOAOAPL"/>
      <point x="544" y="401" name="RVDXHAKF"/>
      <point x="746" y="432" type="curve" name="ENPZLHMS"/>
      <point x="700" y="440" name="TOKWDTIW"/>
      <point x="655" y="446" name="JNJSYXWN"/>
      <point x="612" y="449" type="curve" name="VCVAQNWS"/>
      <point x="498" y="431" name="WJKRBPNY"/>
      <point x="410" y="372" name="THLXGIVD"/>
      <point x="353" y="272" type="curve" name="ZJUARYER"/>
      <point x="357" y="375" name="XTZGVVHQ"/>
      <point x="393" y="435" name="OSJDURAX"/>
      <point x="460" y="449" type="curve" name="HZAZGZGH"/>
      <point x="421" y="447" name="QECWBZHV"/>
      <point x="382" y="441" name="YKUIPKPG"/>
      <point x="347" y="432" type="curve" name="RETVDWGI"/>
      <point x="146" y="401" name="MTDFZZLE"/>
      <point x="30" y="237" name="VOPQBWND"/>
    </contour>
  </outline>
</glyph>
<glyph name="O" format="2">
  <advance width="516"/>
  <unicode hex="004F"/>
  <anchor x="-110.0" y="688" name="top"/>
  <outline>
    <contour>
      <point x="193" y="-37" type="curve" name="LBYSZARE"/>
      <point x="331" y="-37" name="BYGRSVVY"/>
      <point x="452" y="146" name="IGDVUEZN"/>
      <point x="556" y="291" type="curve" smooth="yes" name="XYIVLTVO"/>
      <point x="658" y="436" name="YVNRHGFL"/>
      <point x="687" y="466" name="EFPJOLBJ"/>
      <point x="549" y="466" type="curve" smooth="yes" name="HASQGMHS"/>
      <point x="410" y="466" name="SELKSSUB"/>
      <point x="181" y="436" name="AUXVAUZB"/>
      <point x="79" y="291" type="curve" smooth="yes" name="PTMIRFZQ"/>
      <point x="-25" y="146" name="IYQGPCDT"/>
      <point x="54" y="-37" name="LSTPEQDS"/>
      <point x="193" y="-37" type="curve" name="VNSQYBMN"/>
      <point x="193" y="-37" name="IWIKSRKD"/>
      <point x="193" y="-37" name="LCGLVEUP"/>
    </contour>
    <contour>
      <point x="224" y="148" type="curve" name="CHIEXHSI"/>
      <point x="155" y="148" name="YRAIQSDM"/>
      <point x="134" y="228" name="SSXRQSJX"/>
      <point x="192" y="310" type="curve" smooth="yes" name="BTJQDOGS"/>
      <point x="250" y="392" name="YMGISTUX"/>
      <point x="349" y="422" name="VQBJPUWV"/>
      <point x="418" y="422" type="curve" smooth="yes" name="RNFFKTVL"/>
      <point x="486" y="422" name="TBUOOQOI"/>
      <point x="473" y="392" name="VBITHKKP"/>
      <point x="415" y="310" type="curve" smooth="yes" name="LJFILMKA"/>
      <point x="357" y="228" name="OLEDMEQW"/>
      <point x="292" y="148" name="PEXMKTAJ"/>
      <point x="224" y="148" type="curve" name="JUPDUJLL"/>
      <point x="224" y="148" name="MSEBZVBM"/>
      <point x="224" y="148" name="TNLQESJW"/>
    </contour>
  </outline>
</glyph>
<glyph name="P" format="2">
  <advance width="419"/>
  <unicode hex="0050"/>
  <outline>
    <contour>
      <point x="6" y="-48" type="curve" name="VEALSFYX"/>
      <point x="41" y="-39" name="CMAQSVFU"/>
      <point x="79" y="-34" name="YYWZSHUG"/>
      <point x="119" y="-31" type="curve" name="LFNFIVIZ"/>
      <point x="126" y="56" name="GVFIFPKQ"/>
      <point x="142" y="135" name="CYYVKEKW"/>
      <point x="166" y="199" type="curve" name="GGEFXMUA"/>
      <point x="185" y="201" name="YOODXLOH"/>
      <point x="205" y="201" name="LCKYEHBG"/>
      <point x="226" y="201" type="curve" smooth="yes" name="SMSNWXVW"/>
      <point x="324" y="200" name="MRPZICKH"/>
      <point x="434" y="278" name="NBGPQNEH"/>
      <point x="522" y="354" type="curve" smooth="yes" name="IPCFQOCB"/>
      <point x="610" y="429" name="EXPSZFPJ"/>
      <point x="617" y="452" name="WAZHWATZ"/>
      <point x="509" y="452" type="curve" smooth="yes" name="EUCVWWUU"/>
      <point x="451" y="451" name="JJUOWEKK"/>
      <point x="396" y="445" name="BFCXIXAS"/>
      <point x="346" y="433" type="curve" name="YZVNRZXT"/>
      <point x="144" y="402" name="LHLFURUC"/>
      <point x="28" y="238" name="FEKCRUGQ"/>
    </contour>
    <contour>
      <point x="382" y="408" type="curve" smooth="yes" name="DUEWYVUU"/>
      <point x="417" y="409" name="RLPDHROM"/>
      <point x="414" y="394" name="TSBQFRJO"/>
      <point x="386" y="369" type="curve" smooth="yes" name="IMFLIBZU"/>
      <point x="357" y="344" name="HTCPVHSC"/>
      <point x="318" y="322" name="AXIOHVZN"/>
      <point x="289" y="322" type="curve" smooth="yes" name="EFCBYIKO"/>
      <point x="270" y="322" name="NMRACNUP"/>
      <point x="250" y="321" name="MSFDUMQR"/>
      <point x="232" y="320" type="curve" name="BXOEEHNL"/>
      <point x="260" y="356" name="RBHBUQEF"/>
      <point x="294" y="385" name="ZFFMVFDJ"/>
      <point x="332" y="407" type="curve" name="IQOLHIPS"/>
      <point x="348" y="408" name="CEIQVBSJ"/>
      <point x="365" y="408" name="TYDOXPJI"/>
    </contour>
  </outline>
</glyph>
<glyph name="Q" format="2">
  <advance width="520"/>
  <unicode hex="0051"/>
  <outline>
    <contour>
      <point x="186.5" y="-22.236110756820835" type="curve" name="FEFXMHAJ"/>
      <point x="208.42031021678304" y="-22.236110756820835" name="BMKYFFBX"/>
      <point x="230.42640687119285" y="-18.70057685088807" name="YKJNMRPM"/>
      <point x="252.22539674441623" y="-11.629509039022594" type="curve" name="NGDPFNAD"/>
      <point x="260.3675323681472" y="-49.813275223096184" name="FIDPIOSD"/>
      <point x="270.7167747730647" y="-92.94678887547559" name="TMPTZFXB"/>
      <point x="282.35891039679564" y="-136.08030252785494" type="curve" name="DDRGTNMD"/>
      <point x="318.67871555019025" y="-104.26049737446033" name="XACQFBPD"/>
      <point x="358.91273426595797" y="-74.56201256462532" name="CIUBUNLP"/>
      <point x="399.23253941935263" y="-48.39906166072308" type="curve" name="YZCTPBWO"/>
      <point x="389.79751057680824" y="-10.215295476649487" name="MKNLXGPC"/>
      <point x="381.6553749530773" y="27.968470707424075" name="YBLBTTNY"/>
      <point x="375.7203461105329" y="61.20248942319182" type="curve" name="XZPBNFZW"/>
      <point x="446.30360723121805" y="119.89235226167526" name="KEYGOWJA"/>
      <point x="512.2949852598665" y="201.91673887931478" name="YCCJGEKF"/>
      <point x="572.7949852598665" y="273.3345237791561" type="curve" smooth="yes" name="UHHJHVMH"/>
      <point x="685.2949852598665" y="404.14927829866735" name="PNLHZKPK"/>
      <point x="712.3858223313767" y="435.969083452062" name="QXXLVUYK"/>
      <point x="574.5" y="435.969083452062" type="curve" smooth="yes" name="PFYYSZTN"/>
      <point x="435.9070708874367" y="435.969083452062" name="XUAMPTFW"/>
      <point x="208.70501474013344" y="404.14927829866735" name="ZWJQLIEK"/>
      <point x="96.20501474013344" y="273.3345237791561" type="curve" smooth="yes" name="TKYUHBMR"/>
      <point x="-16.294985259866507" y="141.10555569727168" name="JRIXVYSD"/>
      <point x="47.9070708874367" y="-22.236110756820835" name="EIFYCMFQ"/>
      <point x="186.5" y="-22.236110756820835" type="curve" name="PJLFSKIE"/>
      <point x="186.5" y="-22.236110756820835" name="PMMCKPIJ"/>
      <point x="186.5" y="-22.236110756820835" name="DFUQVYVU"/>
    </contour>
    <contour>
      <point x="209.7771285725255" y="291.7193000900063" type="curve" name="ESGWVKCD"/>
      <point x="273.27712857252544" y="365.9655121145938" name="XSVRLMLM"/>
      <point x="373.41064222490485" y="394.2497833620557" name="MDHDMPXE"/>
      <point x="442.0" y="394.2497833620557" type="curve" smooth="yes" name="DMRMLMZV"/>
      <point x="510.5893577750951" y="394.2497833620557" name="RVHYWSSV"/>
      <point x="496.2228714274745" y="365.25840533340727" name="CMXODXEY"/>
      <point x="433.2228714274745" y="291.7193000900063" type="curve" smooth="yes" name="CPNNVJDC"/>
      <point x="409.2228714274745" y="263.4350288425444" name="KROSMSSF"/>
      <point x="384.3589103967956" y="234.44365081389594" name="MBGSXPRW"/>
      <point x="358.54520189781084" y="211.10912703473988" type="curve" name="MZKZFLHF"/>
      <point x="357.69595949289334" y="239.3933982822018" name="SWYSHQRE"/>
      <point x="359.34671708797583" y="265.55634918610406" name="ZVHISFQD"/>
      <point x="361.99747468305833" y="288.8908729652601" type="curve" name="CHBKYGOD"/>
      <point x="315.1776695296637" y="271.920310216783" name="RKYOXAXO"/>
      <point x="267.94365081389594" y="252.12132034355966" name="KICHAAMR"/>
      <point x="224.62384566050133" y="230.20101012677668" type="curve" name="IPXAPQII"/>
      <point x="223.47308806541884" y="204.74516600406096" name="HXZUOSLW"/>
      <point x="224.32233047033634" y="175.04668119422598" name="YWGYVGMR"/>
      <point x="227.67157287525384" y="143.2268760408313" type="curve" name="LHMTQPAW"/>
      <point x="160.9964286625318" y="145.34819638439097" name="KMLGOODS"/>
      <point x="147.2771285725255" y="217.4730880654188" name="PFACHMEI"/>
      <point x="209.7771285725255" y="291.7193000900063" type="curve" name="OYFWEQMT"/>
      <point x="209.7771285725255" y="291.7193000900063" name="WRPWTKII"/>
      <point x="209.7771285725255" y="291.7193000900063" name="XSDROIEK"/>
    </contour>
  </outline>
</glyph>
<glyph name="R" format="2">
  <advance width="442"/>
  <unicode hex="0052"/>
  <outline>
    <contour>
      <point x="21.63751826573622" y="-69.61226509631945" type="curve" name="TTIRSAMF"/>
      <point x="57.149711574555994" y="-61.834090503267475" name="WFWJTWSQ"/>
      <point x="94.3690116645623" y="-55.470129472588496" name="DPILQHBS"/>
      <point x="133.38120497338204" y="-52.64170234784234" type="curve" name="UVSIHWEW"/>
      <point x="140.88120497338204" y="42.81771311234158" name="ILQEDELL"/>
      <point x="158.881204973382" y="127.67052685472729" name="CWSHZHJM"/>
      <point x="186.381204973382" y="194.8456710674493" type="curve" name="MYZBKJUJ"/>
      <point x="202.14466094067262" y="195.55277784863586" name="QLPGGEAE"/>
      <point x="217.40811690796323" y="196.96699141100893" name="VNAJUNEF"/>
      <point x="233.6715728752538" y="196.96699141100893" type="curve" name="GGVOIFZZ"/>
      <point x="235.3700576850888" y="130.49895397947347" name="RQOXTOLH"/>
      <point x="247.0685424949238" y="45.646140237087764" name="DPWGMLLG"/>
      <point x="270.7670273047588" y="-51.93459556665579" type="curve" name="LHSPWHRU"/>
      <point x="318.72896808188443" y="-54.76302269140194" name="RPQPOSRI"/>
      <point x="369.3980156401966" y="-60.41987694089437" name="CFFYPSVX"/>
      <point x="421.8599564173221" y="-69.61226509631945" type="curve" name="FXTNSATL"/>
      <point x="387.88329701443513" y="51.30299448658013" name="QTBMSCBX"/>
      <point x="369.492424049175" y="153.83347775862953" name="IQAQCRDU"/>
      <point x="367.01576464628795" y="230.20101012677668" type="curve" name="JIWOGKMW"/>
      <point x="424.40663761154815" y="259.19238815542514" name="HXZKNVCJ"/>
      <point x="479.44826817189073" y="303.03300858899104" name="OEXYKUKA"/>
      <point x="529.4482681718907" y="344.04520189781084" type="curve" smooth="yes" name="MBNLMRFJ"/>
      <point x="615.9482681718906" y="415.46298679765215" name="KSHDPEUH"/>
      <point x="623.5304832720493" y="433.84776310850236" name="XNRDVBAH"/>
      <point x="518.5502525316941" y="430.31222920256965" type="curve" smooth="yes" name="XCRLPEZH"/>
      <point x="462.9817100367703" y="428.89801564019655" name="BLIIDTJX"/>
      <point x="410.20606076065997" y="422.5340546095176" name="YXLSRKZE"/>
      <point x="361.63751826573616" y="411.2203461105329" type="curve" name="AFCDNTJA"/>
      <point x="160.13751826573616" y="379.4005409571382" name="VXQTKXZX"/>
      <point x="44.13751826573619" y="215.35176772185918" name="ZCBTXCTH"/>
    </contour>
    <contour>
      <point x="391.0502525316941" y="387.17871555019025" type="curve" smooth="yes" name="GFDXIKML"/>
      <point x="424.698484809835" y="388.59292911256335" name="QGWRQRZE"/>
      <point x="422.7045814642448" y="375.1579002700189" name="NPLQWYNE"/>
      <point x="396.2045814642449" y="353.237590053236" type="curve" smooth="yes" name="PEDZJVHT"/>
      <point x="370.2045814642448" y="330.61017305526644" name="OHCLTVGN"/>
      <point x="332.90559159102156" y="310.10407640085657" name="RQSJWBSH"/>
      <point x="305.12132034355966" y="309.39696961967" type="curve" smooth="yes" name="HWCYWEBS"/>
      <point x="287.44365081389594" y="309.39696961967" name="DNKGQIPF"/>
      <point x="270.0588745030457" y="307.9827560572969" name="ESCLYXLN"/>
      <point x="253.381204973382" y="306.5685424949238" type="curve" name="YMXAGGPY"/>
      <point x="279.881204973382" y="338.3883476483185" name="IGYSSNCB"/>
      <point x="310.881204973382" y="365.25840533340727" name="GHOHALYP"/>
      <point x="345.881204973382" y="385.0573952066306" type="curve" name="QOZFHFPH"/>
      <point x="360.937554159486" y="385.76450198781714" name="ABHTXLLG"/>
      <point x="375.4939033455901" y="387.17871555019025" name="HDNGCCNU"/>
    </contour>
  </outline>
</glyph>
<glyph name="S" format="2">
  <advance width="380"/>
  <unicode hex="0053"/>
  <outline>
    <contour>
      <point x="362" y="182" type="curve" name="GOWVFSLC"/>
      <point x="442" y="398" name="GPZJYNUP"/>
      <point x="229" y="353" name="FIJXTQNX"/>
      <point x="283" y="392" type="curve" smooth="yes" name="QKUZEHLZ"/>
      <point x="320" y="419" name="IAQRQFHB"/>
      <point x="408" y="430" name="NNGZXVNX"/>
      <point x="479" y="386" type="curve" name="FRTKKMRA"/>
      <point x="518" y="412" name="BRGCYBOJ"/>
      <point x="563" y="431" name="BJQKDUAF"/>
      <point x="613" y="441" type="curve" name="QXXCDWXQ"/>
      <point x="491" y="479" name="QUSBXJEZ"/>
      <point x="285" y="463" name="LGUZMNBL"/>
      <point x="166" y="374" type="curve" smooth="yes" name="OSAHABYC"/>
      <point x="20" y="267" name="OEDCLVPP"/>
      <point x="254" y="277" name="XVFXUYBZ"/>
      <point x="225" y="198" type="curve" smooth="yes" name="ZZYAMNDR"/>
      <point x="204" y="143" name="FNSAGJTQ"/>
      <point x="107" y="139" name="WAXVUVCM"/>
      <point x="31" y="171" type="curve" name="BOJSUZJZ"/>
      <point x="12" y="117" name="FHVZRCLO"/>
      <point x="-1" y="54" name="USEJHYVF"/>
      <point x="-9" y="-16" type="curve" name="QMIITOAI"/>
      <point x="121" y="-61" name="FIARMZOO"/>
      <point x="292" y="-7" name="MWQUBNKO"/>
      <point x="362" y="182" type="curve" name="YDWHJJCK"/>
      <point x="362" y="182" name="LDKAOGPU"/>
      <point x="362" y="182" name="TTUTSSFK"/>
    </contour>
  </outline>
</glyph>
<glyph name="T" format="2">
  <advance width="384"/>
  <unicode hex="0054"/>
  <outline>
    <contour>
      <point x="94.98171003677038" y="-53.34880912902889" type="curve" name="LYOIHKTK"/>
      <point x="133.99390334559013" y="-50.52038200428268" name="UCGLFWQA"/>
      <point x="175.71320343559645" y="-50.52038200428268" name="WRHDQCFU"/>
      <point x="218.72539674441623" y="-53.34880912902889" type="curve" name="KQSECJXS"/>
      <point x="236.22539674441617" y="165.1471862576143" name="OHCIUTDJ"/>
      <point x="308.2253967444162" y="313.6396103067893" name="PBSSZMRM"/>
      <point x="430.7253967444162" y="383.64318164425754" type="curve" name="KRHFXOHU"/>
      <point x="467.58073580374355" y="381.5218613006979" name="BXJCBYXP"/>
      <point x="508.55739520663053" y="376.572113832392" name="JRBBDQQT"/>
      <point x="548.912734265958" y="369.50104602052653" type="curve" name="VSWWPVIG"/>
      <point x="586.4127342659579" y="390.00714267493646" name="AISOCPRW"/>
      <point x="630.4127342659579" y="405.56349186104046" name="MXTFGOGH"/>
      <point x="677.4127342659579" y="412.634559672906" type="curve" name="PQAWKPWY"/>
      <point x="548.9827560572969" y="435.26197667087547" name="QUCUGGAJ"/>
      <point x="433.0172439427031" y="435.26197667087547" name="ZPTATXYA"/>
      <point x="336.587265734042" y="412.634559672906" type="curve" name="XCJINADH"/>
      <point x="289.587265734042" y="405.56349186104046" name="QRDPHKMN"/>
      <point x="245.58726573404198" y="390.00714267493646" name="FOTQKNTT"/>
      <point x="208.08726573404203" y="369.50104602052653" type="curve" name="PDEHLLLG"/>
      <point x="239.1497115745559" y="376.572113832392" name="DATJZRJZ"/>
      <point x="272.4192641962564" y="381.5218613006979" name="MCVBMDKO"/>
      <point x="306.4817100367703" y="384.35028842544403" type="curve" name="EUYEZEWV"/>
      <point x="183.98171003677032" y="314.34671708797583" name="TKBFRRGO"/>
      <point x="111.98171003677038" y="165.85429303880085" name="UZSPYASA"/>
    </contour>
  </outline>
</glyph>
<glyph name="U" format="2">
  <advance width="475"/>
  <unicode hex="0055"/>
  <outline>
    <contour>
      <point x="476.0505589040131" y="205.45227278524752" type="curve" name="QZQLPJCH"/>
      <point x="533.5505589040131" y="320.71067811865476" name="EQSDCMYK"/>
      <point x="628.0505589040131" y="390.71424945612296" name="IHJEYKKK"/>
      <point x="753.5505589040131" y="409.8061325481598" type="curve" name="GQSNDXWE"/>
      <point x="706.5383655951933" y="418.2914139223983" name="VQLAWTBB"/>
      <point x="660.819065505187" y="423.94826817189073" name="AVRMYZHD"/>
      <point x="617.3068721963673" y="427.48380207782344" type="curve" name="FRXDNLDG"/>
      <point x="494.3068721963673" y="407.6848122046001" name="DGACAZEQ"/>
      <point x="401.3068721963673" y="341.2167747730646" name="UMLEDCGT"/>
      <point x="343.3068721963673" y="229.49390334559013" type="curve" smooth="yes" name="UVBYEXVJ"/>
      <point x="312.8068721963673" y="170.8040405071067" name="LEQLPIMC"/>
      <point x="267.69417382415924" y="122.72077938642144" name="LZWWASKO"/>
      <point x="223.85355339059328" y="122.72077938642144" type="curve" smooth="yes" name="LTKLWZCX"/>
      <point x="179.30582617584076" y="122.72077938642144" name="RINJDEXE"/>
      <point x="162.1931278036327" y="170.8040405071067" name="RMBDGLEF"/>
      <point x="192.6931278036327" y="229.49390334559013" type="curve" smooth="yes" name="FTNPCBMZ"/>
      <point x="250.69312780363265" y="341.2167747730646" name="UFADULAY"/>
      <point x="343.69312780363265" y="407.6848122046001" name="HEIYYYKN"/>
      <point x="466.6931278036326" y="427.48380207782344" type="curve" name="CBHPCMKS"/>
      <point x="428.18093449481285" y="423.94826817189073" name="ZFNQURZX"/>
      <point x="390.46163440480655" y="418.2914139223983" name="BEVRRSYS"/>
      <point x="355.4494410959868" y="409.8061325481598" type="curve" name="MMJBXWZR"/>
      <point x="229.4494410959868" y="390.0071426749364" name="ZEQCDBAA"/>
      <point x="134.94944109598686" y="320.0035713374682" name="JMYFKLQH"/>
      <point x="76.94944109598686" y="204.0380592228744" type="curve" smooth="yes" name="ULDCYSYT"/>
      <point x="7.949441095986856" y="65.44513011031108" name="EDEQNYLM"/>
      <point x="76.88804127599948" y="-62.54119728445403" name="XYJRQAUS"/>
      <point x="190.93933982822023" y="-61.834090503267475" type="curve" smooth="yes" name="SJIJPOAJ"/>
      <point x="304.07642481806784" y="-61.834090503267475" name="MCTTQGHD"/>
      <point x="406.5505589040132" y="67.56645045387074" name="ZAGILCZO"/>
      <point x="476.0505589040131" y="205.45227278524752" type="curve" name="FAYACEFX"/>
      <point x="476.0505589040131" y="205.45227278524752" name="VQOKOBUQ"/>
      <point x="476.0505589040131" y="205.45227278524752" name="AKNPIQCM"/>
    </contour>
  </outline>
</glyph>
<glyph name="V" format="2">
  <advance width="457"/>
  <unicode hex="0056"/>
  <outline>
    <contour>
      <point x="414.61596333735724" y="449.4041122946064" type="curve" name="ASDIVAFO"/>
      <point x="375.89666324735094" y="445.16147160748716" name="ELFXZZQE"/>
      <point x="337.4702563761581" y="439.5046173579948" name="RVDAXPAV"/>
      <point x="301.7509562861518" y="431.0193359837562" type="curve" name="PNGGMJJW"/>
      <point x="144.16264453158328" y="409.0990257669732" name="PLLASDJU"/>
      <point x="76.19565312057435" y="252.12132034355963" name="ADZQCZKZ"/>
      <point x="102.10734136600581" y="-29.307178568686254" type="curve" name="EWGXDXUZ"/>
      <point x="148.8977092678776" y="-26.478751443940098" name="YQYPJCHW"/>
      <point x="199.10229073212247" y="-26.478751443940098" name="ALEBWBAT"/>
      <point x="249.89265863399424" y="-29.307178568686254" type="curve" name="SQAMZPRE"/>
      <point x="325.8043468794257" y="252.12132034355963" name="GJDIVXFN"/>
      <point x="499.8373554684167" y="409.0990257669732" name="DFFGWULH"/>
      <point x="759.2490437138481" y="431.0193359837562" type="curve" name="SFSLLMNB"/>
      <point x="713.4439571862149" y="438.79751057680824" name="MCLWFWHF"/>
      <point x="666.517550315022" y="445.16147160748716" name="MXVUMNEG"/>
      <point x="623.7124637873887" y="448.69700551341987" type="curve" name="NUIYTGYJ"/>
      <point x="450.064231509248" y="430.31222920256965" name="UMRZBNAV"/>
      <point x="315.20889244992065" y="350.40916292848976" name="DRFIZXFO"/>
      <point x="226.06066017177983" y="212.52334059711296" type="curve" name="HMVECRNB"/>
      <point x="245.41242789363895" y="351.1162697096763" name="OJDBVQBE"/>
      <point x="310.2641956154981" y="431.0193359837562" name="PLVAZBCU"/>
    </contour>
  </outline>
</glyph>
<glyph name="W" format="2">
  <advance width="631"/>
  <unicode hex="0057"/>
  <anchor x="172.0" y="97.0" name="below"/>
  <anchor x="512.0" y="578.0" name="above"/>
  <outline>
    <contour>
      <point x="420" y="449" type="curve" name="DGCKRNJQ"/>
      <point x="383" y="444" name="KHCNQCMJ"/>
      <point x="346" y="438" name="WEIMMPZX"/>
      <point x="312" y="429" type="curve" name="VGZGOZXV"/>
      <point x="140" y="405" name="ZCMWFTBK"/>
      <point x="55" y="247" name="TTEZGUTW"/>
      <point x="64" y="-34" type="curve" name="HDXTHMMK"/>
      <point x="105" y="-28" name="WDBUHJSC"/>
      <point x="150" y="-24" name="SEGZZDUH"/>
      <point x="195" y="-22" type="curve" name="DSHYCRMK"/>
      <point x="226" y="137" name="QZDHZHFK"/>
      <point x="286" y="259" name="BPOPPYSB"/>
      <point x="372" y="339" type="curve" name="CAGDHILN"/>
      <point x="325" y="259" name="XXQXHLKU"/>
      <point x="306" y="137" name="VDZZUOGV"/>
      <point x="314" y="-22" type="curve" name="XKCOAXGJ"/>
      <point x="362" y="-24" name="DUXUXOES"/>
      <point x="412" y="-28" name="YBCTVJNL"/>
      <point x="464" y="-34" type="curve" name="ZNWVMYEN"/>
      <point x="524" y="247" name="SUHLCGEW"/>
      <point x="680" y="405" name="VTRASFBN"/>
      <point x="921" y="429" type="curve" name="INPYPZAK"/>
      <point x="878" y="437" name="EVJTQIIA"/>
      <point x="834" y="443" name="QKLCTYNY"/>
      <point x="793" y="448" type="curve" name="PSUGYQVC"/>
      <point x="646" y="431" name="FPNTZDRE"/>
      <point x="531" y="365" name="GVPSIYWY"/>
      <point x="452" y="251" type="curve" name="ANYSUNAS"/>
      <point x="485" y="368" name="HQNBBKLS"/>
      <point x="553" y="438" name="LWBPHQDF"/>
      <point x="654" y="459" type="curve" name="LXOCIIYO"/>
      <point x="617" y="460" name="XXNSTIEF"/>
      <point x="578" y="460" name="PSKGONMS"/>
      <point x="543" y="459" type="curve" name="IRBPXFRV"/>
      <point x="397" y="439" name="MWTEPMWK"/>
      <point x="282" y="368" name="JIICMEIM"/>
      <point x="206" y="250" type="curve" name="ENJLOAKC"/>
      <point x="242" y="364" name="NSDLFQGX"/>
      <point x="315" y="432" name="MRRJNRDT"/>
    </contour>
  </outline>
</glyph>
<glyph name="X" format="2">
  <advance width="466"/>
  <unicode hex="0058"/>
  <outline>
    <contour>
      <point x="313" y="436" type="curve" name="UXTYUNSN"/>
      <point x="255" y="429" name="RKCNYTMH"/>
      <point x="218" y="388" name="YUPXXORQ"/>
      <point x="205" y="315" type="curve" name="OSXKEZIC"/>
      <point x="100" y="233" name="IAVNOVYA"/>
      <point x="18" y="109" name="JHYZEYKI"/>
      <point x="-35" y="-47" type="curve" name="CGCSAGBD"/>
      <point x="4" y="-38" name="CIWJGUCM"/>
      <point x="46" y="-32" name="EFYOVNKV"/>
      <point x="89" y="-28" type="curve" name="YSKCLJQL"/>
      <point x="123" y="63" name="LOYRGQUI"/>
      <point x="169" y="144" name="MRMZESQQ"/>
      <point x="222" y="208" type="curve" name="WWZSWSNA"/>
      <point x="226" y="144" name="EYXXONOL"/>
      <point x="241" y="63" name="AHMUHDWG"/>
      <point x="264" y="-28" type="curve" name="VYFIYFMA"/>
      <point x="312" y="-32" name="TTWBENUX"/>
      <point x="364" y="-38" name="HXHDIHUV"/>
      <point x="416" y="-47" type="curve" name="BVMCKLOC"/>
      <point x="373" y="110" name="SWYDPUVC"/>
      <point x="355" y="234" name="ICUYOSOG"/>
      <point x="364" y="318" type="curve" name="GEHVVDAW"/>
      <point x="468" y="388" name="MTMAHDFK"/>
      <point x="599" y="429" name="EZPSQTIA"/>
      <point x="748" y="435" type="curve" name="BPIOECAV"/>
      <point x="697" y="443" name="DOHPPAKC"/>
      <point x="646" y="450" name="SUXTVVMA"/>
      <point x="598" y="453" type="curve" name="OOZMSNXC"/>
      <point x="514" y="446" name="RLGSMMUF"/>
      <point x="435" y="428" name="WBOKYIEB"/>
      <point x="367" y="398" type="curve" name="TVDBJYAR"/>
      <point x="383" y="427" name="ANSEOJUB"/>
      <point x="408" y="446" name="MWZQFRJJ"/>
      <point x="440" y="453" type="curve" name="JUBILFQV"/>
      <point x="396" y="450" name="KTJCVHDH"/>
      <point x="353" y="444" name="NHAQMIPB"/>
    </contour>
  </outline>
</glyph>
<glyph name="Y" format="2">
  <advance width="423"/>
  <unicode hex="0059"/>
  <outline>
    <contour>
      <point x="97.1281566461771" y="-29.307178568686254" type="curve" name="SCGBRCMS"/>
      <point x="136.64034995499685" y="-27.185858225126594" name="YLGFSUXV"/>
      <point x="178.35965004500315" y="-27.185858225126594" name="FVIAVQBM"/>
      <point x="220.87184335382295" y="-29.307178568686254" type="curve" name="LRFKCAOG"/>
      <point x="229.3718433538229" y="73.22330470336311" name="KLIXAOJV"/>
      <point x="249.3718433538229" y="163.7329726952412" name="DQHJLBJE"/>
      <point x="281.3718433538229" y="233.02943725152286" type="curve" name="HIATPYWL"/>
      <point x="389.0764248180678" y="353.94469683442253" name="QONQWLHJ"/>
      <point x="541.9023266258723" y="421.1198410471445" name="XQMCWPYF"/>
      <point x="727.6069080901171" y="431.7264427649427" type="curve" name="DICGGLPP"/>
      <point x="678.4733944377377" y="440.2117241391813" name="RDYUGUUQ"/>
      <point x="630.1327740041718" y="446.5756851698602" name="KMMXHLKA"/>
      <point x="584.9992603517924" y="449.4041122946064" type="curve" name="XHYHXNJI"/>
      <point x="482.922095885517" y="440.2117241391813" name="EYNCIHAE"/>
      <point x="391.1378246380551" y="412.63455967290594" name="QMIOTHQO"/>
      <point x="313.5606601717798" y="368.79393923934" type="curve" name="KVGODOBU"/>
      <point x="335.9834957055044" y="412.63455967290594" name="FCPQZFXO"/>
      <point x="370.49211767685597" y="440.2117241391813" name="YWNJPCRF"/>
      <point x="416.9149532105806" y="450.111219075793" type="curve" name="HHITBCMU"/>
      <point x="376.2814395582012" y="446.5756851698602" name="QVNOVLEY"/>
      <point x="335.52660556226215" y="440.2117241391813" name="LTXOMAVQ"/>
      <point x="298.39309190988274" y="431.7264427649427" type="curve" name="JXCUHPKZ"/>
      <point x="213.09767337412768" y="421.1198410471445" name="UZDAPOOT"/>
      <point x="164.9235751819322" y="353.94469683442253" name="DHNFGOJH"/>
      <point x="157.6281566461771" y="233.02943725152286" type="curve" name="KLXRMITD"/>
      <point x="125.6281566461771" y="163.7329726952412" name="EISEASZW"/>
      <point x="105.6281566461771" y="73.22330470336311" name="ILWEPGQE"/>
    </contour>
  </outline>
</glyph>
<glyph name="Z" format="2">
  <advance width="413"/>
  <unicode hex="005A"/>
  <anchor x="66.0" y="94.0" name="below"/>
  <anchor x="406.0" y="575.0" name="above"/>
  <outline>
    <contour>
      <point x="-5" y="-47" type="curve" name="KSKAECAP"/>
      <point x="92" y="-24" name="QZPIVSLU"/>
      <point x="209" y="-24" name="MSUVGQTZ"/>
      <point x="338" y="-47" type="curve" name="BTUHYGNA"/>
      <point x="343" y="18" name="AUYEENXU"/>
      <point x="353" y="77" name="IAKYEQQB"/>
      <point x="367" y="129" type="curve" name="TQCOECXE"/>
      <point x="293" y="142" name="VZRFAERE"/>
      <point x="221" y="148" name="YYENITGM"/>
      <point x="157" y="146" type="curve" name="XEHTKCNW"/>
      <point x="256" y="273" name="ONSHSZRT"/>
      <point x="391" y="356" name="OFQLDWGM"/>
      <point x="553" y="392" type="curve" name="ZRASXDFV"/>
      <point x="590" y="413" name="MDVDLJLL"/>
      <point x="632" y="427" name="CYWTPVTO"/>
      <point x="678" y="434" type="curve" name="WNAMTKID"/>
      <point x="549" y="456" name="ZBTKJDEM"/>
      <point x="432" y="456" name="QTCLCXFA"/>
      <point x="335" y="434" type="curve" name="UDMNGKFL"/>
      <point x="289" y="427" name="ASVADZYJ"/>
      <point x="247" y="413" name="KBVODFHS"/>
      <point x="211" y="392" type="curve" name="ICQPKTVT"/>
      <point x="267" y="405" name="YAFPJIFD"/>
      <point x="330" y="411" name="WPIPBHPZ"/>
      <point x="397" y="409" type="curve" name="ALLFSVFV"/>
      <point x="242" y="362" name="AKXQVYKQ"/>
      <point x="115" y="267" name="QAXAYTNI"/>
      <point x="25" y="129" type="curve" name="ELUOFEYK"/>
      <point x="10" y="77" name="VGKAIRJF"/>
      <point x="0" y="18" name="HFGBLIEZ"/>
    </contour>
  </outline>
</glyph>
<glyph name="bracketleft" format="2">
  <advance width="315"/>
  <unicode hex="005B"/>
  <outline>
    <contour>
      <point x="-56" y="-175" type="curve" name="QLMMKHQV"/>
      <point x="10" y="-159" name="BYWYYUDL"/>
      <point x="89" y="-159" name="VMKYWNLQ"/>
      <point x="177" y="-175" type="curve" name="LECRQDQK"/>
      <point x="182" y="-114" name="ZLCTQMBT"/>
      <point x="190" y="-56" name="PENABKHD"/>
      <point x="201" y="-3" type="curve" name="XMIFBAHJ"/>
      <point x="157" y="4" name="NUPPGCJM"/>
      <point x="114" y="8" name="AAINFCXG"/>
      <point x="76" y="8" type="curve" name="DNTJLKNJ"/>
      <point x="123" y="239" name="UJNFVYZB"/>
      <point x="232" y="394" name="ADIMHQDN"/>
      <point x="396" y="461" type="curve" name="JPSMZALG"/>
      <point x="434" y="461" name="CLJJCLCB"/>
      <point x="477" y="456" name="KNVYZXRI"/>
      <point x="521" y="449" type="curve" name="RCUVCCIE"/>
      <point x="558" y="464" name="SCCNIPAQ"/>
      <point x="599" y="476" name="PCJWPPNI"/>
      <point x="642" y="483" type="curve" name="ZGIHEOOR"/>
      <point x="554" y="498" name="MFXCCGVJ"/>
      <point x="475" y="498" name="NOSXNMPL"/>
      <point x="409" y="483" type="curve" name="WKHZFDBH"/>
      <point x="132" y="440" name="XMTHUETP"/>
      <point x="-26" y="216" name="MKESZPOT"/>
    </contour>
  </outline>
</glyph>
<glyph name="backslash" format="2">
  <advance width="346"/>
  <unicode hex="005C"/>
  <outline>
    <contour>
      <point x="230" y="-175" type="curve" name="MRZMCEJD"/>
      <point x="181" y="230" name="COKUUDNW"/>
      <point x="264" y="458" name="XKAKZIDT"/>
      <point x="473" y="498" type="curve" name="XUCZYOGB"/>
      <point x="436" y="496" name="UNJLITUE"/>
      <point x="400" y="490" name="AMJQAMTZ"/>
      <point x="367" y="483" type="curve" name="AFYBFOTT"/>
      <point x="151" y="453" name="GJEWYWVH"/>
      <point x="61" y="235" name="UQVOOEVM"/>
      <point x="103" y="-160" type="curve" name="QNDXGEXW"/>
      <point x="143" y="-162" name="DHNKPTXK"/>
      <point x="187" y="-168" name="ALYCLROW"/>
    </contour>
  </outline>
</glyph>
<glyph name="bracketright" format="2">
  <advance width="315"/>
  <unicode hex="005D"/>
  <outline>
    <contour>
      <point x="152" y="-175" type="curve" name="JMUWIEGD"/>
      <point x="183" y="216" name="WDLRGKEJ"/>
      <point x="341" y="440" name="JEVUUCHX"/>
      <point x="617" y="483" type="curve" name="GMFWXPPH"/>
      <point x="529" y="498" name="KWMZKOMV"/>
      <point x="450" y="498" name="CZVPXVLQ"/>
      <point x="384" y="483" type="curve" name="TMKWOZDO"/>
      <point x="341" y="476" name="UDONOSFB"/>
      <point x="300" y="464" name="BOQOOSUJ"/>
      <point x="262" y="449" type="curve" name="WWARALBV"/>
      <point x="296" y="456" name="XITPUEOJ"/>
      <point x="333" y="461" name="TGXCVJET"/>
      <point x="371" y="461" type="curve" name="YEBYPFYW"/>
      <point x="208" y="394" name="LHEWRWYN"/>
      <point x="98" y="240" name="QCLTVUMG"/>
      <point x="51" y="8" type="curve" name="EVCKWKQC"/>
      <point x="13" y="8" name="HQGLUKDH"/>
      <point x="-24" y="4" name="NRMJUJQX"/>
      <point x="-58" y="-3" type="curve" name="FVGFBFHV"/>
      <point x="-68" y="-56" name="IVTXCWBS"/>
      <point x="-76" y="-114" name="ZYKUJFCS"/>
      <point x="-81" y="-175" type="curve" name="RWLAXYAQ"/>
      <point x="-15" y="-159" name="QEAGAYTE"/>
      <point x="64" y="-159" name="YBZLRMAW"/>
    </contour>
  </outline>
</glyph>
<glyph name="asciicircum" format="2">
  <advance width="396"/>
  <unicode hex="005E"/>
  <outline>
    <contour>
      <point x="96" y="157" type="curve" name="COIGITPH"/>
      <point x="131" y="165" name="QOLPCXIE"/>
      <point x="169" y="171" name="LXXUXURR"/>
      <point x="208" y="173" type="curve" name="EZBTLHLM"/>
      <point x="232" y="263" name="ZWXEEBGL"/>
      <point x="273" y="334" name="LPVXBUGN"/>
      <point x="327" y="383" type="curve" name="DDZGLWTU"/>
      <point x="310" y="334" name="QSZKKSGK"/>
      <point x="308" y="263" name="QBCMPJXB"/>
      <point x="321" y="174" type="curve" name="DMOTVVCB"/>
      <point x="364" y="171" name="MQBFPMJB"/>
      <point x="410" y="165" name="XWVOAABZ"/>
      <point x="457" y="157" type="curve" name="CHZHXBAP"/>
      <point x="426" y="341" name="HXDZCKMA"/>
      <point x="452" y="446" name="QIHVKPHE"/>
      <point x="535" y="468" type="curve" name="KSTZPZXZ"/>
      <point x="493" y="471" name="YDLRNOHR"/>
      <point x="451" y="471" name="EWZVSIFJ"/>
      <point x="413" y="468" type="curve" name="ANVAPFOM"/>
      <point x="251" y="446" name="WOICCRCZ"/>
      <point x="144" y="341" name="BSRFWYXH"/>
    </contour>
  </outline>
</glyph>
<glyph name="underscore" format="2">
  <advance width="435"/>
  <unicode hex="005F"/>
  <outline>
    <contour>
      <point x="-145.47086912079612" y="-121.93816690412405" type="curve" name="DQQFDAPL"/>
      <point x="-20.306872196367294" y="-92.94678887547559" name="LYFAIGBU"/>
      <point x="130.30687219636735" y="-92.94678887547559" name="NHKFPRIC"/>
      <point x="296.4708691207961" y="-121.93816690412405" type="curve" name="ZVKYOTNZ"/>
      <point x="301.4708691207961" y="-56.8843430349616" name="GOILXJEA"/>
      <point x="327.9708691207961" y="-19.407683632074622" name="ACLLUJCH"/>
      <point x="373.9708691207961" y="-12.336615820209147" type="curve" name="UKKLHCFG"/>
      <point x="207.80687219636735" y="16.65476220843931" name="PYNAJVLZ"/>
      <point x="57.193127803632706" y="16.65476220843931" name="SHOOALFG"/>
      <point x="-67.97086912079612" y="-12.336615820209147" type="curve" name="LFPMPNXC"/>
      <point x="-113.97086912079612" y="-19.407683632074622" name="NIUNNBSG"/>
      <point x="-140.47086912079612" y="-56.8843430349616" name="OUSEFUQR"/>
    </contour>
  </outline>
</glyph>
<glyph name="grave" format="2">
  <advance width="288"/>
  <unicode hex="0060"/>
  <anchor x="-60.0" y="517" name="top"/>
  <anchor x="194.0" y="517" name="center"/>
  <outline>
    <contour>
      <point x="479.75230867899734" y="381.5218613006979" type="curve" name="JOFIFMCR"/>
      <point x="457.29646455628153" y="473.44574285494906" name="EROMMVFF"/>
      <point x="464.1335136523794" y="525.7716446627535" name="TDYSUWCI"/>
      <point x="498.6776695296636" y="537.0853531617383" type="curve" name="MZMYTSRN"/>
      <point x="455.9583694396573" y="538.4995667241114" name="FRHTJWII"/>
      <point x="414.8248557872779" y="535.6711395993652" name="NEWSIITD"/>
      <point x="379.1055556972716" y="527.1858582251266" type="curve" name="TVVNKJII"/>
      <point x="344.71825406947977" y="523.6503243191939" name="YHPKHWXK"/>
      <point x="339.74516600406093" y="477.6883835420683" name="AZOJNTUL"/>
      <point x="363.85786437626905" y="391.4213562373095" type="curve" name="DHFJOATT"/>
      <point x="399.4203102167829" y="392.12846301849606" name="ASHESZUI"/>
      <point x="438.6898628384834" y="388.5929291125633" name="TZPGSYJI"/>
    </contour>
  </outline>
</glyph>
<glyph name="a" format="2">
  <advance width="438"/>
  <unicode hex="0061"/>
  <anchor x="345.0" y="468.0" name="above"/>
  <anchor x="79.0" y="91.0" name="below"/>
  <outline>
    <contour>
      <point x="215" y="-12" type="curve" name="FOGMFOZS"/>
      <point x="256" y="-15" name="FMOKKGZU"/>
      <point x="300" y="-20" name="VXRTEWBM"/>
      <point x="344" y="-28" type="curve" name="QRRKLLAW"/>
      <point x="364" y="185" name="AYIGSJHG"/>
      <point x="452" y="308" name="PWLFKRFS"/>
      <point x="602" y="337" type="curve" name="BXGUPTKD"/>
      <point x="558" y="345" name="VNIDSCGH"/>
      <point x="514" y="351" name="NIXLADXR"/>
      <point x="474" y="354" type="curve" name="IJHBVWGY"/>
      <point x="465" y="351" name="PIEWKFMG"/>
      <point x="457" y="350" name="GXFITEEY"/>
      <point x="449" y="348" type="curve" name="XSBNZEVM"/>
      <point x="447" y="356" name="YDMXOPPZ"/>
      <point x="429" y="359" name="IDCCIXLF"/>
      <point x="396" y="359" type="curve" smooth="yes" name="IMIVEHYZ"/>
      <point x="302" y="357" name="VYZNVGYK"/>
      <point x="126" y="340" name="GRYYXOVP"/>
      <point x="44" y="224" type="curve" smooth="yes" name="VWMRLKIN"/>
      <point x="-37" y="110" name="OAYCWLCJ"/>
      <point x="30" y="-28" name="MHERHIVJ"/>
      <point x="124" y="-27" type="curve" smooth="yes" name="VGFNPHUS"/>
      <point x="158" y="-26" name="JQQBKGXT"/>
      <point x="191" y="-7" name="BZIQWFRU"/>
      <point x="220" y="24" type="curve" name="QDPTWHEF"/>
      <point x="218" y="13" name="IKGWUGZS"/>
      <point x="217" y="0" name="GJEIHJGJ"/>
    </contour>
    <contour>
      <point x="170" y="137" type="curve" name="ZOAIJPSL"/>
      <point x="124" y="137" name="KAGSRNKK"/>
      <point x="110" y="186" name="MIYCTYRQ"/>
      <point x="149" y="240" type="curve" smooth="yes" name="YLTGOXUB"/>
      <point x="187" y="295" name="KOWHNUZU"/>
      <point x="250" y="316" name="PDOUTHYQ"/>
      <point x="296" y="316" type="curve" smooth="yes" name="DRKBVABN"/>
      <point x="342" y="316" name="RQYUKARR"/>
      <point x="337" y="294" name="TQPJHANX"/>
      <point x="299" y="240" type="curve" smooth="yes" name="HCQINHPG"/>
      <point x="261" y="187" name="OTUVLTMX"/>
      <point x="215" y="137" name="AUFPLAVL"/>
      <point x="170" y="137" type="curve" name="TEZGOXBP"/>
      <point x="170" y="137" name="KSNSOKQN"/>
      <point x="170" y="137" name="LAKRQAZR"/>
    </contour>
  </outline>
</glyph>
<glyph name="b" format="2">
  <advance width="441"/>
  <unicode hex="0062"/>
  <outline>
    <contour>
      <point x="106" y="-29" type="curve" name="GKEVUZUV"/>
      <point x="107" y="-16" name="OAFLQYNU"/>
      <point x="108" y="-4" name="XGEYBGCP"/>
      <point x="110" y="8" type="curve" name="JTIVDPRY"/>
      <point x="128" y="-24" name="JORPWIJI"/>
      <point x="155" y="-43" name="NAGFRJLO"/>
      <point x="190" y="-43" type="curve" smooth="yes" name="GLBFKIPL"/>
      <point x="286" y="-45" name="NCUHBVCM"/>
      <point x="384" y="91" name="BJCKYAGD"/>
      <point x="446" y="229" type="curve" smooth="yes" name="GJUTYGQQ"/>
      <point x="510" y="367" name="CLQLRNLY"/>
      <point x="500" y="423" name="FGYCEOKD"/>
      <point x="405" y="425" type="curve" smooth="yes" name="IXUJSISW"/>
      <point x="370" y="425" name="OGWAOMBV"/>
      <point x="329" y="417" name="WWTJULOU"/>
      <point x="290" y="401" type="curve" name="YFAVXNAC"/>
      <point x="341" y="442" name="YGZUSFCC"/>
      <point x="404" y="468" name="ZSISBSXV"/>
      <point x="476" y="480" type="curve" name="BUERKKOV"/>
      <point x="440" y="477" name="SDLQATEO"/>
      <point x="404" y="471" name="FVZWXSFU"/>
      <point x="371" y="464" type="curve" name="JLVNJAJT"/>
      <point x="154" y="430" name="LIPJUHSX"/>
      <point x="28" y="257" name="RNQBRLUN"/>
      <point x="0" y="-45" type="curve" name="ZCOTRPHP"/>
      <point x="33" y="-37" name="NFXEYEQX"/>
      <point x="69" y="-31" name="EOHGBBHP"/>
    </contour>
    <contour>
      <point x="200" y="126" type="curve" name="TLJFZTFG"/>
      <point x="155" y="126" name="YNRGFIOQ"/>
      <point x="139" y="179" name="TFNWIGFZ"/>
      <point x="169" y="244" type="curve" smooth="yes" name="ZGDFPNZT"/>
      <point x="199" y="309" name="IQXHNSQU"/>
      <point x="254" y="343" name="XHJVFBZV"/>
      <point x="300" y="343" type="curve" smooth="yes" name="CBJVEREV"/>
      <point x="346" y="343" name="DQWTFWLN"/>
      <point x="349" y="310" name="CERFCRWT"/>
      <point x="319" y="244" type="curve" smooth="yes" name="WUHPFLQG"/>
      <point x="288" y="179" name="UHXLTNNO"/>
      <point x="246" y="126" name="TLTQMSMV"/>
      <point x="200" y="126" type="curve" name="DBCXUFMI"/>
      <point x="200" y="126" name="WDXUWOCN"/>
      <point x="200" y="126" name="VESGDWOB"/>
    </contour>
  </outline>
</glyph>
<glyph name="c" format="2">
  <advance width="336"/>
  <unicode hex="0063"/>
  <anchor x="306.0" y="464.0" name="above"/>
  <anchor x="42.0" y="91.0" name="below"/>
  <outline>
    <contour>
      <point x="46" y="224" type="curve" name="BQNOPQYJ"/>
      <point x="-55" y="81" name="VDQHMXLE"/>
      <point x="63" y="-71" name="JTLPABCP"/>
      <point x="251" y="-20" type="curve" name="MCHQGLMN"/>
      <point x="258" y="43" name="QYQSQPWA"/>
      <point x="270" y="99" name="JEZSGHOC"/>
      <point x="288" y="145" type="curve" name="WFGEQLGM"/>
      <point x="175" y="111" name="GEVHQUKY"/>
      <point x="96" y="152" name="ZYXQKHKG"/>
      <point x="156" y="237" type="curve" smooth="yes" name="THJRMWLO"/>
      <point x="216" y="322" name="SSGMBPFN"/>
      <point x="327" y="326" name="XGHUKGJU"/>
      <point x="385" y="283" type="curve" name="IGXUONIZ"/>
      <point x="418" y="309" name="OGYNISUV"/>
      <point x="458" y="326" name="GZIWPJCO"/>
      <point x="502" y="335" type="curve" name="OTEFJZVS"/>
      <point x="381" y="379" name="MFADODVX"/>
      <point x="147" y="367" name="TKXZAFUG"/>
      <point x="46" y="224" type="curve" name="TFKXVGNT"/>
      <point x="46" y="224" name="MRFCFWWU"/>
      <point x="46" y="224" name="XVIPQOCE"/>
    </contour>
  </outline>
</glyph>
<glyph name="d" format="2">
  <advance width="441"/>
  <unicode hex="0064"/>
  <outline>
    <contour>
      <point x="226" y="-26" type="curve" name="JPLZAQBK"/>
      <point x="266" y="-29" name="XWJUGUBR"/>
      <point x="310" y="-35" name="VUUGBRAL"/>
      <point x="354" y="-42" type="curve" name="TLTLJBWP"/>
      <point x="382" y="260" name="SGCFWHJZ"/>
      <point x="508" y="432" name="PPBBWWPU"/>
      <point x="725" y="466" type="curve" name="ZAXEVAEH"/>
      <point x="681" y="474" name="WZTWSEDC"/>
      <point x="637" y="479" name="LVYOWEZF"/>
      <point x="596" y="482" type="curve" name="NIRRAITA"/>
      <point x="524" y="471" name="ZZYPVKKK"/>
      <point x="461" y="444" name="LOIBZGYK"/>
      <point x="410" y="403" type="curve" name="XCPETSMO"/>
      <point x="402" y="419" name="OJGCFMIM"/>
      <point x="382" y="427" name="PXKWYPQG"/>
      <point x="348" y="427" type="curve" smooth="yes" name="DOZMDNPR"/>
      <point x="254" y="426" name="KOCQUWYU"/>
      <point x="103" y="370" name="DXHSMSLT"/>
      <point x="39" y="231" type="curve" smooth="yes" name="LNQRSMOX"/>
      <point x="-23" y="93" name="ALZGCXEE"/>
      <point x="40" y="-42" name="OZXALZYN"/>
      <point x="135" y="-41" type="curve" smooth="yes" name="NTVXWLGC"/>
      <point x="168" y="-40" name="ZJMQAHOC"/>
      <point x="201" y="-21" name="HQZJFZQZ"/>
      <point x="230" y="11" type="curve" name="JIFBIWLS"/>
      <point x="228" y="-1" name="DOQSFTVJ"/>
      <point x="227" y="-14" name="MSHHYFCF"/>
    </contour>
    <contour>
      <point x="176" y="129" type="curve" name="YOTHZWEE"/>
      <point x="130" y="129" name="PALLLTKT"/>
      <point x="114" y="181" name="IVAUMXNQ"/>
      <point x="145" y="247" type="curve" smooth="yes" name="VEQBDXVD"/>
      <point x="175" y="313" name="FYQFXNZH"/>
      <point x="230" y="346" name="HIYSYHCY"/>
      <point x="276" y="346" type="curve" smooth="yes" name="KESCXYTS"/>
      <point x="321" y="346" name="LRVHJAJL"/>
      <point x="325" y="312" name="UYOIASKM"/>
      <point x="295" y="247" type="curve" smooth="yes" name="FJLTYLNN"/>
      <point x="265" y="182" name="CYISNVMB"/>
      <point x="221" y="129" name="JPUKRIPH"/>
      <point x="176" y="129" type="curve" name="CMCSSMYX"/>
      <point x="176" y="129" name="JETAQOTN"/>
      <point x="176" y="129" name="VFPWJUGQ"/>
    </contour>
  </outline>
</glyph>
<glyph name="e" format="2">
  <advance width="399"/>
  <unicode hex="0065"/>
  <anchor x="-82.0" y="527" name="top"/>
  <anchor x="210.0" y="517" name="center"/>
  <outline>
    <contour>
      <point x="298" y="6" type="curve" name="WXICIDNB"/>
      <point x="305" y="62" name="BCLKIMJG"/>
      <point x="318" y="112" name="JCLZWRAB"/>
      <point x="335" y="155" type="curve" name="HOJFQFTZ"/>
      <point x="204" y="125" name="NHPZMMVH"/>
      <point x="121" y="132" name="KSHHUQBF"/>
      <point x="126" y="195" type="curve" name="CMEFVMPR"/>
      <point x="199" y="199" name="KUMCYBZQ"/>
      <point x="283" y="194" name="KMRBBOWY"/>
      <point x="370" y="179" type="curve" name="HGFWWJRO"/>
      <point x="474" y="329" name="FBBPDPFQ"/>
      <point x="534" y="359" name="RZKXRGSL"/>
      <point x="412" y="359" type="curve" smooth="yes" name="VPQYWHDU"/>
      <point x="301" y="361" name="GXPJHYNM"/>
      <point x="122" y="335" name="EUYLMSOR"/>
      <point x="44" y="225" type="curve" smooth="yes" name="VQQSUTLZ"/>
      <point x="-75" y="57" name="WIODBZYU"/>
      <point x="100" y="-83" name="YCFFYAGN"/>
      <point x="298" y="6" type="curve" name="JHBGRMMR"/>
      <point x="298" y="6" name="PNQPBLSD"/>
      <point x="298" y="6" name="QLIUZSAP"/>
    </contour>
    <contour>
      <point x="291" y="316" type="curve" name="ZJQCCAFU"/>
      <point x="321" y="315" name="BVFGEYSU"/>
      <point x="330" y="307" name="DNMENWDN"/>
      <point x="316" y="279" type="curve" name="LKMPQPDQ"/>
      <point x="271" y="283" name="HVYFPOMF"/>
      <point x="228" y="283" name="CVRGQQIT"/>
      <point x="187" y="281" type="curve" name="BXYFRVWD"/>
      <point x="224" y="307" name="SHZQODYG"/>
      <point x="264" y="316" name="FHUHALNP"/>
      <point x="291" y="316" type="curve" name="SZAJLAMG"/>
      <point x="291" y="316" name="UVNIVKJZ"/>
      <point x="291" y="316" name="CZXPGABP"/>
    </contour>
  </outline>
</glyph>
<glyph name="f" format="2">
  <advance width="302"/>
  <unicode hex="0066"/>
  <outline>
    <contour>
      <point x="106.47813869930212" y="295.25483399593907" type="curve" name="HYBUKNQH"/>
      <point x="123.07002179133892" y="298.7903679018718" name="PZOMLVIR"/>
      <point x="140.1619048833757" y="301.618795026618" name="LWMOQAWK"/>
      <point x="157.7537879754125" y="303.74011537017765" type="curve" name="LRPNHWYU"/>
      <point x="96.75378797541251" y="217.4730880654188" name="RXAXUGSI"/>
      <point x="59.75378797541252" y="93.02229457658643" name="ETDWJCVI"/>
      <point x="47.253787975412536" y="-61.834090503267475" type="curve" name="PANWSFUB"/>
      <point x="82.4375541594861" y="-57.591449816148156" name="KAQYCNJK"/>
      <point x="121.74264068711932" y="-56.17723625377505" name="BYZVIVAN"/>
      <point x="161.42640687119288" y="-58.29855659733471" type="curve" name="HMAWFLZT"/>
      <point x="173.42640687119285" y="97.26493526370575" name="GJZCVANR"/>
      <point x="210.92640687119285" y="221.00862197135154" name="VGPVDRNJ"/>
      <point x="271.42640687119285" y="307.9827560572969" type="curve" name="XDPZRPOR"/>
      <point x="301.4177848998413" y="306.5685424949238" name="AYGULRDG"/>
      <point x="333.6162697096763" y="303.0330085889911" name="KRUEOWNK"/>
      <point x="366.6076477383248" y="297.3761543394987" type="curve" name="RNRYXZNB"/>
      <point x="391.1076477383248" y="332.0243866176395" name="EGKULWJO"/>
      <point x="419.6076477383247" y="362.42997820866105" name="CXDCVOUW"/>
      <point x="451.60764773832466" y="386.4716087690037" type="curve" name="LETVOOKG"/>
      <point x="419.1162697096763" y="391.4213562373095" name="HNBRVVDM"/>
      <point x="386.9177848998413" y="394.9568901432423" name="QWYUIBIG"/>
      <point x="356.92640687119285" y="396.3711037056154" type="curve" name="YXYAOZFB"/>
      <point x="359.92640687119285" y="399.19953083036154" name="AUWETKVU"/>
      <point x="363.92640687119285" y="402.02795795510775" name="XMYIEMLY"/>
      <point x="366.92640687119285" y="404.8563850798539" type="curve" smooth="yes" name="UZQDGSSW"/>
      <point x="402.92640687119285" y="428.89801564019655" name="TEFVWCEM"/>
      <point x="463.6812408671319" y="432.43354954612926" name="CJWPBYIM"/>
      <point x="508.7497833620557" y="410.51323932934633" type="curve" name="WZMVNKFR"/>
      <point x="544.7497833620557" y="430.3122292025696" name="XUGLPMMA"/>
      <point x="587.2497833620556" y="445.16147160748716" name="ODTIAGCW"/>
      <point x="631.7497833620556" y="452.9396462005392" type="curve" name="AAUGFGWM"/>
      <point x="557.6335136523794" y="481.2239174480011" name="RTXTKCKB"/>
      <point x="373.7537879754125" y="483.34523779156075" name="LKGVOHGG"/>
      <point x="254.25378797541248" y="400.61374439273465" type="curve" smooth="yes" name="THDWWVEM"/>
      <point x="249.75378797541248" y="398.49242404917504" name="BOHTLERI"/>
      <point x="246.75378797541248" y="395.66399692442883" name="TKZCMSEQ"/>
      <point x="242.75378797541248" y="392.8355697996826" type="curve" name="OOYJYUHZ"/>
      <point x="225.1619048833757" y="390.71424945612296" name="YBYDRNDI"/>
      <point x="208.07002179133895" y="387.8858223313768" name="BVODRPHD"/>
      <point x="191.97813869930212" y="383.64318164425754" type="curve" name="HRQSCOLM"/>
      <point x="159.97813869930215" y="359.6015510839149" name="HZCYKXJQ"/>
      <point x="130.97813869930212" y="329.9030662740799" name="IBXBDEMN"/>
    </contour>
  </outline>
</glyph>
<glyph name="g" format="2">
  <advance width="422"/>
  <unicode hex="0067"/>
  <outline>
    <contour>
      <point x="321.3269478283311" y="102.21468273201157" type="curve" name="JCJWTXKA"/>
      <point x="377.3269478283311" y="225.25126265847084" name="WTBAYTWZ"/>
      <point x="471.8269478283311" y="299.49747468305833" name="LVSROSWB"/>
      <point x="598.3269478283311" y="322.8319984622144" type="curve" name="TEJHVGNX"/>
      <point x="555.1431816442575" y="329.9030662740799" name="PTZUTFIY"/>
      <point x="510.83809511662423" y="335.55992052357226" name="LJNXWDAP"/>
      <point x="470.6543289325507" y="338.3883476483185" type="curve" name="XOSTNITI"/>
      <point x="462.6543289325507" y="336.97413408594537" name="XMBWLMDP"/>
      <point x="455.6543289325507" y="335.55992052357226" name="BDZLTXPP"/>
      <point x="448.1543289325507" y="333.4386001800126" type="curve" name="DUYLGXAE"/>
      <point x="444.0269119345811" y="339.8025612106916" name="OEBSFAKZ"/>
      <point x="426.3284271247462" y="342.6309883354378" name="RKYPAUGB"/>
      <point x="392.8873016277919" y="341.92388155425124" type="curve" smooth="yes" name="FMSBLGNA"/>
      <point x="308.8273811042196" y="339.8025612106916" name="USZBIYMC"/>
      <point x="148.37406229844558" y="319.29646455628165" name="TLEXCHOL"/>
      <point x="58.87406229844561" y="240.8076118445749" type="curve" smooth="yes" name="HAHNUOKG"/>
      <point x="-28.125937701554392" y="165.85429303880085" name="VYSKYSFM"/>
      <point x="-1.0721138323920059" y="86.65833354590751" name="FMQMCLPO"/>
      <point x="86.02334059711302" y="89.4867606706537" type="curve" smooth="yes" name="EFIIVYSV"/>
      <point x="121.58578643762692" y="90.19386745184025" name="EXJOMAKI"/>
      <point x="159.40559159102156" y="102.92178951319812" name="CFBNLZFS"/>
      <point x="194.24011537017765" y="123.427886167608" type="curve" name="LYITXAQC"/>
      <point x="191.74011537017765" y="118.47813869930215" name="SKRVLVCE"/>
      <point x="189.74011537017765" y="112.82128444980978" name="VXJYQZXU"/>
      <point x="187.24011537017765" y="107.87153698150394" type="curve" smooth="yes" name="BUUCEHKU"/>
      <point x="152.74011537017765" y="27.968470707424075" name="AUWWTQRZ"/>
      <point x="52.05887450304573" y="-4.558441227157118" name="GBVVQONF"/>
      <point x="-28.163996924428773" y="39.989285987595366" type="curve" name="HSQSBDRD"/>
      <point x="-44.16399692442877" y="-10.92240225783604" name="UJALTLVT"/>
      <point x="-56.16399692442877" y="-68.90515831513295" name="THFTHTRD"/>
      <point x="-62.663996924428716" y="-133.25187540310878" type="curve" name="TNINRONX"/>
      <point x="78.92031021678301" y="-191.2346314604057" name="HTVZLMSI"/>
      <point x="231.82694782833107" y="-93.65389565666214" name="BXBXRZIB"/>
      <point x="321.3269478283311" y="102.21468273201157" type="curve" name="SAJDCUYX"/>
      <point x="321.3269478283311" y="102.21468273201157" name="KZIQOVRZ"/>
      <point x="321.3269478283311" y="102.21468273201157" name="PIPWXBIV"/>
    </contour>
    <contour>
      <point x="177.51471862576142" y="203.33095244168786" type="curve" name="ISZKLDNI"/>
      <point x="135.79541853575512" y="203.33095244168786" name="JZLIOLDY"/>
      <point x="129.63246763185288" y="228.78679656440357" name="UCYILSFR"/>
      <point x="165.63246763185288" y="258.4852813742386" type="curve" smooth="yes" name="BCCXEBOJ"/>
      <point x="201.63246763185282" y="289.59797974644664" name="LOZTQWXE"/>
      <point x="255.79541853575512" y="305.1543289325507" name="KPHTOCZT"/>
      <point x="297.5147186257614" y="305.1543289325507" type="curve" smooth="yes" name="YDKQWNZG"/>
      <point x="337.1126983722081" y="305.1543289325507" name="ZBXZVKOD"/>
      <point x="334.77564927611036" y="288.89087296526014" name="JDSOSIKO"/>
      <point x="299.27564927611036" y="258.4852813742386" type="curve" smooth="yes" name="BIIWMWJN"/>
      <point x="264.27564927611036" y="228.78679656440357" name="QCQRCMNS"/>
      <point x="217.11269837220811" y="203.33095244168786" name="HLLJBVHS"/>
      <point x="177.51471862576142" y="203.33095244168786" type="curve" name="XQABREUB"/>
      <point x="177.51471862576142" y="203.33095244168786" name="FXFILKWP"/>
      <point x="177.51471862576142" y="203.33095244168786" name="FRGSTNBC"/>
    </contour>
  </outline>
</glyph>
<glyph name="h" format="2">
  <advance width="423"/>
  <unicode hex="0068"/>
  <outline>
    <contour>
      <point x="5" y="-51" type="curve" name="VJVGUABL"/>
      <point x="37" y="-43" name="WISIJVGT"/>
      <point x="74" y="-38" name="PZKSQYPE"/>
      <point x="110" y="-35" type="curve" name="BXCOUNDA"/>
      <point x="120" y="87" name="DAHVMRHM"/>
      <point x="146" y="192" name="RFRXLHXK"/>
      <point x="186" y="271" type="curve" smooth="yes" name="CDBRRKON"/>
      <point x="210" y="317" name="HOSSGJJJ"/>
      <point x="249" y="339" name="BAXBLMLF"/>
      <point x="286" y="339" type="curve" smooth="yes" name="AOMSVUCX"/>
      <point x="324" y="339" name="OFMZPNIA"/>
      <point x="322" y="314" name="LHHRKWIS"/>
      <point x="300" y="271" type="curve" smooth="yes" name="DJXPURJL"/>
      <point x="260" y="192" name="RKAVHWCT"/>
      <point x="234" y="87" name="QIFZTCKO"/>
      <point x="224" y="-35" type="curve" name="BUDQUWBM"/>
      <point x="264" y="-38" name="EFKZJSDV"/>
      <point x="308" y="-43" name="COEOBVRX"/>
      <point x="352" y="-51" type="curve" name="FFNIXWLN"/>
      <point x="362" y="82" name="HQOZSDHD"/>
      <point x="391" y="191" name="OPJAPLRO"/>
      <point x="437" y="273" type="curve" smooth="yes" name="JPPMZSOY"/>
      <point x="497" y="379" name="TONILPPR"/>
      <point x="494" y="420" name="XLETOTRF"/>
      <point x="411" y="423" type="curve" smooth="yes" name="UASEECNB"/>
      <point x="373" y="425" name="JNLKRMUO"/>
      <point x="332" y="418" name="TJITMFPT"/>
      <point x="291" y="403" type="curve" name="BLWWGRPZ"/>
      <point x="342" y="444" name="UBWNMHET"/>
      <point x="404" y="470" name="RGPYJKAP"/>
      <point x="475" y="481" type="curve" name="MWXVQTSN"/>
      <point x="439" y="478" name="VHAARPCT"/>
      <point x="402" y="473" name="SNGNMQNI"/>
      <point x="370" y="466" type="curve" name="CXTXFDSL"/>
      <point x="153" y="432" name="KXOQVIEH"/>
      <point x="29" y="256" name="DHOTYTBB"/>
    </contour>
  </outline>
</glyph>
<glyph name="i" format="2">
  <advance width="201"/>
  <unicode hex="0069"/>
  <anchor x="350.0" y="645.0" name="above"/>
  <anchor x="-40.0" y="94.0" name="below"/>
  <outline>
    <contour>
      <point x="285" y="451" type="curve" name="MFYDIXCL"/>
      <point x="324" y="451" name="YHXOTUQW"/>
      <point x="395" y="464" name="LEGGKHQF"/>
      <point x="439" y="481" type="curve" smooth="yes" name="VPYRDKJA"/>
      <point x="483" y="496" name="ZKCZZAAD"/>
      <point x="486" y="509" name="BPKXXAUV"/>
      <point x="446" y="510" type="curve" smooth="yes" name="ZFVOPDIU"/>
      <point x="405" y="510" name="JMDYYXOK"/>
      <point x="336" y="496" name="CDXKRNJX"/>
      <point x="292" y="481" type="curve" smooth="yes" name="SGNJWDEU"/>
      <point x="248" y="464" name="SHCPYDAL"/>
      <point x="244" y="451" name="MBFODIXL"/>
      <point x="285" y="451" type="curve" name="AEIHCCUM"/>
      <point x="285" y="451" name="WVAFPCOV"/>
      <point x="285" y="451" name="SPIFYYRO"/>
    </contour>
    <contour>
      <point x="2" y="-46" type="curve" name="QTVLJIMR"/>
      <point x="35" y="-40" name="NBBMGGFI"/>
      <point x="76" y="-40" name="XLDKTNAH"/>
      <point x="118" y="-46" type="curve" name="ERTANPAR"/>
      <point x="135" y="172" name="PEPXUEAZ"/>
      <point x="199" y="328" name="XAAQSOMJ"/>
      <point x="307" y="418" type="curve" name="IFZDNLSE"/>
      <point x="265" y="424" name="OGDQVJPF"/>
      <point x="224" y="424" name="EFWEFELE"/>
      <point x="191" y="418" type="curve" name="CSUSFZGA"/>
      <point x="83" y="328" name="RSMIVPLL"/>
      <point x="19" y="172" name="FBFMTQFQ"/>
    </contour>
  </outline>
</glyph>
<glyph name="j" format="2">
  <advance width="215"/>
  <unicode hex="006A"/>
  <outline>
    <contour>
      <point x="304.1317279836453" y="444.45436482630055" type="curve" name="VACLDQOW"/>
      <point x="345.22970773009195" y="442.33304448274095" name="FXAAFOHK"/>
      <point x="416.96372644585966" y="452.9396462005392" name="NRZWZXEC"/>
      <point x="462.4637264458597" y="467.78888860545663" type="curve" smooth="yes" name="PBYXEXJZ"/>
      <point x="506.9637264458596" y="482.6381310103742" name="RECKMWSC"/>
      <point x="510.72970773009183" y="495.36605307173204" name="STVKDZIM"/>
      <point x="469.6317279836453" y="497.48737341529164" type="curve" smooth="yes" name="DZGMIOYU"/>
      <point x="427.1195346748255" y="499.6086937588513" name="UBLRDHAA"/>
      <point x="355.59262274024434" y="489.7091988222396" name="QYIRXACY"/>
      <point x="311.09262274024434" y="474.8599564173221" type="curve" smooth="yes" name="NGPZBRCX"/>
      <point x="265.5926227402443" y="460.0107140124046" name="LDHPBAQA"/>
      <point x="261.6195346748255" y="446.5756851698602" name="QIXLLDFR"/>
      <point x="304.1317279836453" y="444.45436482630055" type="curve" name="TZVMKPNF"/>
      <point x="304.1317279836453" y="444.45436482630055" name="DBRERLKR"/>
      <point x="304.1317279836453" y="444.45436482630055" name="NPPWBRID"/>
    </contour>
    <contour>
      <point x="-27.265241636024683" y="59.788275860818686" type="curve" smooth="yes" name="YOBLMBNG"/>
      <point x="-42.26524163602468" y="3.2197333658949105" name="GQIOVQPU"/>
      <point x="-60.528697603315265" y="-13.750829382582253" name="PTBXIOLN"/>
      <point x="-96.28353159925433" y="-7.386868351903331" type="curve" name="STNNKLLS"/>
      <point x="-106.7835315992543" y="-59.00566337852126" name="ESOYGHIR"/>
      <point x="-114.78353159925433" y="-116.98841943581817" name="RKZCMZSC"/>
      <point x="-120.2835315992543" y="-175.67828227430164" type="curve" name="JREFECMJ"/>
      <point x="-29.59619407771251" y="-186.28488399209982" name="DMGQLZGZ"/>
      <point x="47.11448404094226" y="-135.3731957466684" name="EFZZCKRZ"/>
      <point x="91.11448404094222" y="39.989285987595395" type="curve" smooth="yes" name="YHRVVLDT"/>
      <point x="133.61448404094222" y="211.8162338159264" name="ZICYKJHM"/>
      <point x="213.61448404094222" y="339.095454429505" name="MVOIPSOX"/>
      <point x="325.11448404094216" y="413.3416664540925" type="curve" name="BTYYILPY"/>
      <point x="282.4307178568686" y="419.7056274847714" name="OWUXKXLW"/>
      <point x="240.62563132923538" y="421.8269478283311" name="LHOAPXOT"/>
      <point x="204.4418651451618" y="418.99852070358486" type="curve" name="CABAIUNV"/>
      <point x="95.44186514516184" y="346.873629022557" name="TPRKVVOO"/>
      <point x="16.734758363975317" y="223.83704909609773" name="KQBOYVON"/>
    </contour>
  </outline>
</glyph>
<glyph name="k" format="2">
  <advance width="403"/>
  <unicode hex="006B"/>
  <anchor x="448.0" y="592.0" name="above"/>
  <anchor x="83.0" y="76.0" name="below"/>
  <outline>
    <contour>
      <point x="1" y="-49" type="curve" name="IIQPURLB"/>
      <point x="33" y="-41" name="LANLHISZ"/>
      <point x="70" y="-35" name="BKLBXBNY"/>
      <point x="106" y="-32" type="curve" name="ZAAFNDUP"/>
      <point x="113" y="58" name="ZKZTZCTH"/>
      <point x="129" y="138" name="IDPXBOJS"/>
      <point x="153" y="205" type="curve" name="CJDDGJRA"/>
      <point x="162" y="141" name="UCRLLBPB"/>
      <point x="182" y="61" name="GADHTGVO"/>
      <point x="211" y="-31" type="curve" name="TLDHATJX"/>
      <point x="258" y="-33" name="VHDXCDJV"/>
      <point x="310" y="-40" name="ZYYMDLAJ"/>
      <point x="362" y="-49" type="curve" name="KQOKEEZP"/>
      <point x="318" y="78" name="LPANMJTT"/>
      <point x="289" y="185" name="KVVDKTTO"/>
      <point x="279" y="263" type="curve" name="UEVAJEWW"/>
      <point x="357" y="328" name="YPNCJVUB"/>
      <point x="449" y="376" name="GUAGEASO"/>
      <point x="553" y="404" type="curve" name="KIFRJSJM"/>
      <point x="502" y="412" name="BSQKMMSN"/>
      <point x="452" y="418" name="YQFGNWCA"/>
      <point x="405" y="420" type="curve" name="TEUMALKE"/>
      <point x="329" y="392" name="QVYRQKTK"/>
      <point x="260" y="354" name="VHXCSIYA"/>
      <point x="199" y="305" type="curve" name="ZVDWHGCU"/>
      <point x="260" y="404" name="FBSIZWHL"/>
      <point x="353" y="465" name="WHECZURW"/>
      <point x="471" y="484" type="curve" name="QRUINUVT"/>
      <point x="435" y="481" name="FIFKKWLZ"/>
      <point x="398" y="475" name="PCEFAPBB"/>
      <point x="366" y="467" type="curve" name="SWTUZEEZ"/>
      <point x="149" y="434" name="GPRYFAUS"/>
      <point x="25" y="258" name="PDUWXGBA"/>
    </contour>
  </outline>
</glyph>
<glyph name="l" format="2">
  <advance width="201"/>
  <unicode hex="006C"/>
  <outline>
    <contour>
      <point x="15.663690552109856" y="-66.07673119038674" type="curve" name="HEDYOXKG"/>
      <point x="48.34745673618342" y="-58.29855659733471" name="CRUROBGN"/>
      <point x="88.65254326381663" y="-58.29855659733471" name="DKVGCVEM"/>
      <point x="132.3363094478902" y="-66.07673119038674" type="curve" name="SIYNMLDM"/>
      <point x="156.3363094478902" y="240.8076118445749" name="GUGNBGGM"/>
      <point x="280.33630944789013" y="416.17009357883865" name="XRZXJFTY"/>
      <point x="497.33630944789013" y="450.111219075793" type="curve" name="EZRSWQHZ"/>
      <point x="453.65254326381654" y="457.889393668845" name="HBDJXUCZ"/>
      <point x="413.34745673618335" y="457.889393668845" name="CWYTUWHC"/>
      <point x="380.66369055210976" y="450.111219075793" type="curve" name="WRCRGCXT"/>
      <point x="163.6636905521098" y="416.17009357883865" name="UCBFXEHA"/>
      <point x="39.66369055210983" y="240.8076118445749" name="OZJJCSBN"/>
    </contour>
  </outline>
</glyph>
<glyph name="m" format="2">
  <advance width="613"/>
  <unicode hex="006D"/>
  <anchor x="444.0" y="448.0" name="above"/>
  <anchor x="180.0" y="76.0" name="below"/>
  <outline>
    <contour>
      <point x="-9" y="-39" type="curve" name="GCSJJPBE"/>
      <point x="23" y="-31" name="RGYHXSVA"/>
      <point x="59" y="-25" name="UPMXDKDO"/>
      <point x="94" y="-20" type="curve" name="RCEIASTY"/>
      <point x="104" y="107" name="CYOZXUZP"/>
      <point x="139" y="205" name="UHBMKRZG"/>
      <point x="194" y="268" type="curve" smooth="yes" name="BHCXPNUZ"/>
      <point x="221" y="298" name="JDSXRTTU"/>
      <point x="258" y="313" name="SVZWCNLO"/>
      <point x="288" y="315" type="curve" smooth="yes" name="GZYFLPTP"/>
      <point x="318" y="317" name="BFJWSYIV"/>
      <point x="310" y="303" name="EIQLEKIF"/>
      <point x="285" y="275" type="curve" smooth="yes" name="YKOAMZGG"/>
      <point x="229" y="213" name="FSWOPWRA"/>
      <point x="195" y="114" name="FZDDWXQQ"/>
      <point x="185" y="-13" type="curve" name="PBWYRPTM"/>
      <point x="221" y="-11" name="FOPYRDVT"/>
      <point x="262" y="-11" name="JCVSVBZR"/>
      <point x="301" y="-13" type="curve" name="AYAMCFRR"/>
      <point x="311" y="114" name="DPGSWUZB"/>
      <point x="345" y="213" name="RJSEFGOI"/>
      <point x="401" y="275" type="curve" smooth="yes" name="QIZYLBQZ"/>
      <point x="428" y="306" name="SCUDNUAD"/>
      <point x="467" y="317" name="DMGFURSX"/>
      <point x="500" y="315" type="curve" smooth="yes" name="KYYPBNDD"/>
      <point x="534" y="312" name="XUIWMQOG"/>
      <point x="527" y="296" name="NBVNKTDU"/>
      <point x="502" y="268" type="curve" smooth="yes" name="ARPKQUIC"/>
      <point x="446" y="205" name="CQKNSXEQ"/>
      <point x="412" y="107" name="QDILDLJW"/>
      <point x="402" y="-20" type="curve" name="TQCNWNPZ"/>
      <point x="443" y="-25" name="EYDSXAFM"/>
      <point x="488" y="-31" name="THNFVNGZ"/>
      <point x="532" y="-39" type="curve" name="FZYRAYIW"/>
      <point x="542" y="98" name="NFDCOPDE"/>
      <point x="580" y="199" name="JUOTSSAV"/>
      <point x="643" y="262" type="curve" smooth="yes" name="BWLDHWFV"/>
      <point x="719" y="337" name="QIELOLSG"/>
      <point x="733" y="349" name="IZQIAOYC"/>
      <point x="642" y="357" type="curve" smooth="yes" name="MBDCSNTN"/>
      <point x="598" y="361" name="UUBNIFFQ"/>
      <point x="540" y="361" name="GAWJGNUQ"/>
      <point x="485" y="354" type="curve" name="ZTCGOCUF"/>
      <point x="490" y="362" name="BINBPSAX"/>
      <point x="476" y="364" name="FNSRDYWN"/>
      <point x="442" y="362" type="curve" smooth="yes" name="EYLCJAQA"/>
      <point x="411" y="361" name="ZFZBAIJM"/>
      <point x="369" y="356" name="RRKUKTHF"/>
      <point x="325" y="347" type="curve" name="NPFGKFPS"/>
      <point x="333" y="349" name="GLDMUUNM"/>
      <point x="340" y="351" name="XEDWEAQL"/>
      <point x="347" y="353" type="curve" name="DALGRITG"/>
      <point x="312" y="349" name="KKHUYKQV"/>
      <point x="276" y="342" name="TMUSNOVB"/>
      <point x="244" y="335" type="curve" name="YBEMKWOT"/>
      <point x="93" y="306" name="XQQRHTNE"/>
      <point x="8" y="179" name="SQPAFGDJ"/>
    </contour>
  </outline>
</glyph>
<glyph name="n" format="2">
  <advance width="419"/>
  <unicode hex="006E"/>
  <anchor x="203.0" y="517" name="center"/>
  <outline>
    <contour>
      <point x="6.233712343448786" y="-57.591449816148156" type="curve" name="PIIMVHOT"/>
      <point x="38.91747852752235" y="-49.81327522309613" name="DPJOAQZH"/>
      <point x="75.72256505515557" y="-44.86352775479031" name="EBGXOUOZ"/>
      <point x="111.90633123922913" y="-42.0351006300441" type="curve" name="JRRRQLSR"/>
      <point x="121.40633123922913" y="80.29437251522859" name="SIVHALZJ"/>
      <point x="153.40633123922913" y="176.46089475659906" name="PMGMYMTA"/>
      <point x="205.40633123922913" y="238.68629150101523" type="curve" smooth="yes" name="LDYEYBDB"/>
      <point x="236.40633123922913" y="275.45584412271575" name="NCKAZPNI"/>
      <point x="279.8266414560121" y="290.3050865276332" name="MSQSFZNU"/>
      <point x="317.3033008588991" y="290.3050865276332" type="curve" smooth="yes" name="TMYYOJGU"/>
      <point x="354.77996026178613" y="290.3050865276332" name="ZVWRUJDM"/>
      <point x="347.75052301026324" y="273.3345237791561" name="GWEYZRNI"/>
      <point x="319.25052301026324" y="238.68629150101523" type="curve" smooth="yes" name="BSZDXINI"/>
      <point x="267.2505230102633" y="176.46089475659906" name="ATUTTIES"/>
      <point x="235.2505230102633" y="80.29437251522859" name="PPPEKMJV"/>
      <point x="225.7505230102633" y="-42.0351006300441" type="curve" name="SWUHQTZT"/>
      <point x="265.9342891943369" y="-44.86352775479031" name="LODERFXP"/>
      <point x="309.7393757219701" y="-49.81327522309613" name="JIFTILZI"/>
      <point x="353.4231419060436" y="-57.591449816148156" type="curve" name="DDGJQNNG"/>
      <point x="363.9231419060436" y="74.63751826573622" name="DQDMKESK"/>
      <point x="399.4231419060436" y="174.33957441303943" name="QQINRWSI"/>
      <point x="459.4231419060436" y="236.5649711574556" type="curve" smooth="yes" name="MKAEEPBD"/>
      <point x="536.9231419060436" y="317.88225099390854" name="RXWSPRFL"/>
      <point x="553.5617061923064" y="331.317279836453" name="WPKCNLMY"/>
      <point x="470.95153313703986" y="334.14570696119915" type="curve" smooth="yes" name="TYVAKJEP"/>
      <point x="432.68198051533943" y="336.2670273047588" name="UXRTDJCE"/>
      <point x="387.86217536194476" y="333.4386001800126" name="EHOTYYSL"/>
      <point x="342.4063312392291" y="326.3675323681472" type="curve" name="VGVMCBDM"/>
      <point x="350.4063312392291" y="327.78174593052023" name="XPLOURNH"/>
      <point x="356.9063312392291" y="329.9030662740799" name="ANMPWSCW"/>
      <point x="364.9063312392291" y="331.317279836453" type="curve" name="RSQPDUMP"/>
      <point x="328.22256505515554" y="329.19595949289334" name="XZAPMYJW"/>
      <point x="291.91747852752235" y="323.53910524340097" name="RMCCBIWK"/>
      <point x="259.23371234344876" y="315.76093065034894" type="curve" name="LSPEOLYM"/>
      <point x="108.73371234344876" y="286.7695526217005" name="JMEWJYKF"/>
      <point x="23.233712343448758" y="160.19743878930848" name="IKUVQRHO"/>
    </contour>
  </outline>
</glyph>
<glyph name="o" format="2">
  <advance width="424"/>
  <unicode hex="006F"/>
  <anchor x="-88.0" y="527" name="top"/>
  <outline>
    <contour>
      <point x="145.0" y="-31.428498912245914" type="curve" name="OBRLAGIP"/>
      <point x="255.30865786510145" y="-31.428498912245914" name="TPHQIAYG"/>
      <point x="355.0401512639275" y="111.40707088743667" name="SLLBNUVD"/>
      <point x="434.04015126392756" y="221.7157287525381" type="curve" smooth="yes" name="EZCHJDAO"/>
      <point x="513.0401512639274" y="333.4386001800126" name="ILPENCCC"/>
      <point x="529.8086578651014" y="356.77312395916874" name="WGWJORXX"/>
      <point x="419.5" y="356.77312395916874" type="curve" smooth="yes" name="NDHPRJLU"/>
      <point x="309.19134213489855" y="356.77312395916874" name="TPBVQRHA"/>
      <point x="126.95984873607247" y="333.4386001800126" name="DWLOYQJU"/>
      <point x="47.9598487360725" y="221.7157287525381" type="curve" smooth="yes" name="JNYFYTAF"/>
      <point x="-30.5401512639275" y="110.69996410625015" name="ZINFAKCE"/>
      <point x="34.691342134898605" y="-31.428498912245914" name="JGKCNMDJ"/>
      <point x="145.0" y="-31.428498912245914" type="curve" name="DXKKKRFR"/>
      <point x="145.0" y="-31.428498912245914" name="KSQLQPNM"/>
      <point x="145.0" y="-31.428498912245914" name="KVFJJSVA"/>
    </contour>
    <contour>
      <point x="175.5" y="136.15580822896584" type="curve" name="BXLTMDJC"/>
      <point x="129.53805922287444" y="136.15580822896584" name="ZDLXLSSH"/>
      <point x="116.13246763185288" y="185.65328291202417" name="YCPIOSCV"/>
      <point x="153.13246763185288" y="237.9791847198287" type="curve" smooth="yes" name="AETUUHTY"/>
      <point x="190.13246763185288" y="290.3050865276332" name="WPBQZNDR"/>
      <point x="255.03805922287438" y="313.6396103067893" name="ANBDHKLY"/>
      <point x="301.0" y="313.6396103067893" type="curve" smooth="yes" name="ILLYSWRE"/>
      <point x="346.96194077712556" y="313.6396103067893" name="TRLFCPDD"/>
      <point x="342.8675323681471" y="290.3050865276332" name="YBLBCMDS"/>
      <point x="305.8675323681471" y="237.9791847198287" type="curve" smooth="yes" name="WWJSQACX"/>
      <point x="268.8675323681471" y="185.65328291202417" name="PEPBFYJU"/>
      <point x="221.46194077712562" y="136.15580822896584" name="UOEGNEXM"/>
      <point x="175.5" y="136.15580822896584" type="curve" name="LYACURGU"/>
      <point x="175.5" y="136.15580822896584" name="XAUXYMUV"/>
      <point x="175.5" y="136.15580822896584" name="COGVPVHT"/>
    </contour>
  </outline>
</glyph>
<glyph name="p" format="2">
  <advance width="438"/>
  <unicode hex="0070"/>
  <outline>
    <contour>
      <point x="39.86038969321078" y="-166.4858941188765" type="curve" name="JQDNGGOX"/>
      <point x="46.36038969321072" y="-86.58282784479661" name="HDLBQUXE"/>
      <point x="59.86038969321072" y="-15.16504294495536" name="XILNOOKV"/>
      <point x="79.86038969321072" y="45.646140237087764" type="curve" name="OMMBLGEF"/>
      <point x="93.1949134723668" y="20.190296114372046" name="BMBHSGQI"/>
      <point x="118.60050506338837" y="4.633946928268017" name="SSQKZZMT"/>
      <point x="152.54163056034264" y="4.633946928268017" type="curve" smooth="yes" name="OYDFRUCK"/>
      <point x="249.0010460205266" y="3.2197333658949105" name="SAUMJOFA"/>
      <point x="365.111219075793" y="112.82128444980978" name="RRSDTJKR"/>
      <point x="458.611219075793" y="206.8664863476206" type="curve" smooth="yes" name="TVGSKXMO"/>
      <point x="553.111219075793" y="302.32590180780454" name="DNVXROWM"/>
      <point x="568.0010460205265" y="322.8319984622144" name="BRMPAQFM"/>
      <point x="471.74873734152914" y="324.9533188057741" type="curve" smooth="yes" name="IASEPPLS"/>
      <point x="437.8076118445749" y="324.9533188057741" name="NILANOYM"/>
      <point x="392.69491347236675" y="322.12489168102786" name="SBJYTSTE"/>
      <point x="347.86038969321066" y="314.3467170879759" type="curve" name="UPEQXKGY"/>
      <point x="356.8603896932107" y="315.76093065034894" name="SPMTMKGG"/>
      <point x="364.36038969321066" y="317.8822509939086" name="CWMFUKVO"/>
      <point x="372.86038969321066" y="320.0035713374682" type="curve" name="NXLDXJXD"/>
      <point x="336.67662350913713" y="317.17514421272205" name="NURXOJEP"/>
      <point x="300.37153698150394" y="311.5182899632297" name="CDFTNLIV"/>
      <point x="267.68777079743035" y="303.74011537017765" type="curve" name="GNHPPXLC"/>
      <point x="70.68777079743037" y="266.97056274847716" name="TGXQZNWN"/>
      <point x="-42.8122292025696" y="100.80046916963846" name="YJHMEZCN"/>
      <point x="-65.3122292025696" y="-182.74935008616706" type="curve" name="YKIGDLJR"/>
      <point x="-32.62846301849601" y="-174.97117549311508" name="ZPJAIXTU"/>
      <point x="3.676623509137187" y="-169.31432124362266" name="WYPBOVLH"/>
    </contour>
    <contour>
      <point x="188.48528137423858" y="138.2771285725255" type="curve" name="UGQSTJBP"/>
      <point x="143.23044737829952" y="138.2771285725255" name="UERWIUBN"/>
      <point x="136.5319625684645" y="177.87510831897214" name="XQQWAZVN"/>
      <point x="181.0319625684645" y="222.42283553372465" type="curve" smooth="yes" name="EMEYJXFZ"/>
      <point x="225.0319625684645" y="267.6776695296637" name="HBVZYOOM"/>
      <point x="291.2304473782995" y="286.7695526217005" name="NKRRSLFD"/>
      <point x="336.4852813742385" y="286.7695526217005" type="curve" smooth="yes" name="OEDNKNEZ"/>
      <point x="382.44722215136414" y="286.7695526217005" name="ZKJRBGDF"/>
      <point x="375.4386001800126" y="268.38477631085027" name="CNNPKYVF"/>
      <point x="330.4386001800126" y="223.1299423149112" type="curve" smooth="yes" name="WHPRBUKO"/>
      <point x="285.9386001800126" y="177.16800153778559" name="BNKZFRQX"/>
      <point x="234.44722215136414" y="138.2771285725255" name="IYXLEQCE"/>
      <point x="188.48528137423858" y="138.2771285725255" type="curve" name="FVBXABWI"/>
      <point x="188.48528137423858" y="138.2771285725255" name="DIYBQHDC"/>
      <point x="188.48528137423858" y="138.2771285725255" name="EEQTYVUU"/>
    </contour>
  </outline>
</glyph>
<glyph name="q" format="2">
  <advance width="438"/>
  <unicode hex="0071"/>
  <outline>
    <contour>
      <point x="167.13961030678934" y="-166.4858941188765" type="curve" name="WFYLZXDD"/>
      <point x="207.82337649086287" y="-170.0214280248092" name="TGIBTLCO"/>
      <point x="251.62846301849612" y="-174.97117549311508" name="GWJRUOIO"/>
      <point x="295.3122292025697" y="-182.74935008616706" type="curve" name="HZQSMSLL"/>
      <point x="317.81222920256965" y="100.80046916963846" name="FUZGGUUO"/>
      <point x="431.3122292025696" y="266.97056274847716" name="ZYCYGVVV"/>
      <point x="628.3122292025696" y="303.74011537017765" type="curve" name="MAROGEKS"/>
      <point x="584.6284630184961" y="311.5182899632297" name="VQNYOYEX"/>
      <point x="540.3233764908628" y="317.17514421272205" name="MFKKMBEY"/>
      <point x="500.1396103067892" y="320.0035713374682" type="curve" name="NRFGQEAP"/>
      <point x="491.1396103067892" y="318.58935777509515" name="VMRVCAJQ"/>
      <point x="483.63961030678934" y="316.4680374315355" name="BKNRHKMS"/>
      <point x="475.1396103067892" y="314.3467170879759" type="curve" name="OVSRUBED"/>
      <point x="473.8050865276332" y="321.4177848998413" name="GBTOZYGS"/>
      <point x="456.1923881554251" y="324.9533188057741" name="MEWNVMPM"/>
      <point x="422.25126265847075" y="324.9533188057741" type="curve" smooth="yes" name="TAUKRMQM"/>
      <point x="328.4989539794734" y="323.53910524340097" name="SFTPWNWI"/>
      <point x="153.38878092420703" y="301.618795026618" name="HQLKCEYE"/>
      <point x="58.388780924207026" y="206.8664863476206" type="curve" smooth="yes" name="ZGWKKISF"/>
      <point x="-35.111219075792974" y="112.82128444980978" name="PWEYMJMB"/>
      <point x="9.99895397947347" y="3.2197333658949105" name="BGQIJRXZ"/>
      <point x="104.45836943965742" y="4.633946928268017" type="curve" smooth="yes" name="RAKBAVWP"/>
      <point x="138.3994949366117" y="4.633946928268017" name="BTPDZPGL"/>
      <point x="173.80508652763325" y="20.190296114372046" name="TNNVNBUP"/>
      <point x="207.13961030678928" y="45.646140237087764" type="curve" name="ZNPNUZTX"/>
      <point x="186.63961030678928" y="-14.457936163768807" name="DCJOMHGT"/>
      <point x="173.63961030678928" y="-86.58282784479661" name="XATUZPWN"/>
    </contour>
    <contour>
      <point x="171.51471862576142" y="138.2771285725255" type="curve" name="YWMTVGRN"/>
      <point x="125.55277784863586" y="138.2771285725255" name="RZBFHKTU"/>
      <point x="119.0613998199874" y="177.16800153778559" name="NSOEUFXT"/>
      <point x="163.5613998199874" y="223.1299423149112" type="curve" smooth="yes" name="LYULLGCK"/>
      <point x="208.5613998199874" y="268.38477631085027" name="IBIOZAWK"/>
      <point x="273.5527778486358" y="286.7695526217005" name="NIQECSJE"/>
      <point x="319.5147186257614" y="286.7695526217005" type="curve" smooth="yes" name="JJUONNBW"/>
      <point x="364.7695526217004" y="286.7695526217005" name="FTSLNDRN"/>
      <point x="357.9680374315355" y="267.6776695296637" name="BUPJHOXU"/>
      <point x="313.9680374315355" y="222.42283553372465" type="curve" smooth="yes" name="BSSKBNYC"/>
      <point x="269.4680374315355" y="177.87510831897214" name="GVZSXTWY"/>
      <point x="216.76955262170048" y="138.2771285725255" name="UOBIPBGY"/>
      <point x="171.51471862576142" y="138.2771285725255" type="curve" name="QYXRNFXP"/>
      <point x="171.51471862576142" y="138.2771285725255" name="WSVNVNQR"/>
      <point x="171.51471862576142" y="138.2771285725255" name="IPOFFYXC"/>
    </contour>
  </outline>
</glyph>
<glyph name="r" format="2">
  <advance width="279"/>
  <unicode hex="0072"/>
  <anchor x="263.0" y="460.0" name="above"/>
  <anchor x="-38.0" y="94.0" name="below"/>
  <outline>
    <contour>
      <point x="-11" y="-34" type="curve" name="KEAONEJX"/>
      <point x="22" y="-26" name="ETJJKTXE"/>
      <point x="59" y="-22" name="KTUKYOYQ"/>
      <point x="98" y="-22" type="curve" name="XJLDOAOC"/>
      <point x="107" y="92" name="MNAEEHHA"/>
      <point x="135" y="184" name="UPOMFHLK"/>
      <point x="181" y="246" type="curve" smooth="yes" name="OJEODCSH"/>
      <point x="219" y="296" name="EQZHGAJL"/>
      <point x="278" y="312" name="ETPSOOXD"/>
      <point x="353" y="290" type="curve" name="MUZSXGKK"/>
      <point x="388" y="316" name="QYLHZSMZ"/>
      <point x="432" y="333" name="UHJHCZZC"/>
      <point x="479" y="341" type="curve" name="PDVNUZWP"/>
      <point x="435" y="350" name="HHWAVYIJ"/>
      <point x="381" y="351" name="HPYFYZVN"/>
      <point x="327" y="345" type="curve" name="XSSSTWTV"/>
      <point x="335" y="346" name="OQUVKYNJ"/>
      <point x="343" y="349" name="VXQPUROD"/>
      <point x="351" y="350" type="curve" name="TVOCSERS"/>
      <point x="313" y="350" name="GRVBRPLJ"/>
      <point x="275" y="347" name="PMESHKLO"/>
      <point x="243" y="339" type="curve" name="WUYDRBJY"/>
      <point x="92" y="310" name="VLGOHYPI"/>
      <point x="6" y="184" name="RIPWWVBS"/>
    </contour>
  </outline>
</glyph>
<glyph name="s" format="2">
  <advance width="335"/>
  <unicode hex="0073"/>
  <outline>
    <contour>
      <point x="317.26019100214137" y="123.427886167608" type="curve" name="GEVISUOS"/>
      <point x="385.76019100214137" y="298.0832611206852" name="TCLQVGGH"/>
      <point x="202.9332431738103" y="254.2426406871193" name="NQROQMOS"/>
      <point x="239.4332431738103" y="280.40559159102156" type="curve" smooth="yes" name="SEYXWCFQ"/>
      <point x="266.4332431738103" y="300.2045814642449" name="FKEESTLF"/>
      <point x="335.3510280736516" y="306.5685424949238" name="XJROWUJX"/>
      <point x="390.75409434773144" y="264.8492424049175" type="curve" name="MCGUKFRJ"/>
      <point x="423.75409434773144" y="290.3050865276332" name="OVLVCVJX"/>
      <point x="463.75409434773144" y="310.10407640085657" name="OWYDOZKM"/>
      <point x="508.25409434773144" y="319.29646455628165" type="curve" name="YZQYGHYB"/>
      <point x="410.4038059222874" y="353.94469683442253" name="MMLMEXYH"/>
      <point x="221.63930393447032" y="338.3883476483185" name="HYLQCYNC"/>
      <point x="125.13930393447032" y="262.72792206135784" type="curve" smooth="yes" name="IDVDWCGU"/>
      <point x="5.13930393447032" y="167.97561338236048" name="GYJZAVWL"/>
      <point x="207.88046532517444" y="184.2390693496511" name="BFTBXAUN"/>
      <point x="187.88046532517444" y="131.91316754184658" type="curve" smooth="yes" name="GRUHXGDB"/>
      <point x="171.88046532517447" y="88.07254710828062" name="CKEVINKN"/>
      <point x="84.19922445804258" y="99.38625560726538" name="UUCMFDDE"/>
      <point x="34.00326496514924" y="129.08474041710036" type="curve" name="DTBJBBHV"/>
      <point x="15.503264965149242" y="83.1227996399748" name="WTQXTXVO"/>
      <point x="2.0032649651492704" y="25.847150363864444" name="QYAKTKZE"/>
      <point x="-4.99673503485073" y="-36.37824638055173" type="curve" name="BKMBXHDK"/>
      <point x="108.51040764008567" y="-79.51176003293119" name="XPGNYAUP"/>
      <point x="258.26019100214137" y="-27.892965006313148" name="YBIOINUU"/>
      <point x="317.26019100214137" y="123.427886167608" type="curve" name="HNETJSQO"/>
      <point x="317.26019100214137" y="123.427886167608" name="MZKAPXFM"/>
      <point x="317.26019100214137" y="123.427886167608" name="YUGIZXJM"/>
    </contour>
  </outline>
</glyph>
<glyph name="t" format="2">
  <advance width="277"/>
  <unicode hex="0074"/>
  <outline>
    <contour>
      <point x="42.62815664617712" y="-55.470129472588496" type="curve" name="TFGVHLVO"/>
      <point x="77.8119228302507" y="-51.227488785469234" name="UCIURLEZ"/>
      <point x="118.11700935788389" y="-51.227488785469234" name="VGTZHBVZ"/>
      <point x="158.30077554195745" y="-54.05591591021545" type="curve" name="DZFFNPAM"/>
      <point x="170.80077554195745" y="100.80046916963846" name="MMNDVOSV"/>
      <point x="211.30077554195742" y="220.301515190165" name="WGZWJTSN"/>
      <point x="278.8007755419574" y="297.3761543394987" type="curve" name="NPGXPVWG"/>
      <point x="301.7210857587404" y="295.9619407771256" name="VDYEAWXY"/>
      <point x="326.84850275670993" y="292.42640687119285" name="RSAQONDF"/>
      <point x="351.7688129734929" y="288.1837661840736" type="curve" name="MFSDADQF"/>
      <point x="378.7688129734929" y="319.29646455628165" name="TJBPQUSL"/>
      <point x="410.7688129734929" y="344.7523086789974" name="YKVLWXUH"/>
      <point x="446.7688129734929" y="363.1370849898476" type="curve" name="BFUDTFUI"/>
      <point x="421.8485027567099" y="367.3797256769669" name="AORCALHC"/>
      <point x="396.7210857587404" y="370.91525958289964" name="JTDLINLF"/>
      <point x="373.3007755419574" y="373.0365799264593" type="curve" name="FJXNOANE"/>
      <point x="407.30077554195736" y="390.00714267493646" name="ZNDXOTRH"/>
      <point x="444.8007755419574" y="402.0279579551077" name="IOPQDJEM"/>
      <point x="485.80077554195736" y="409.0990257669732" type="curve" name="XYDNCMMZ"/>
      <point x="445.6170093578839" y="411.92745289171944" name="HKPSLELA"/>
      <point x="405.31192283025064" y="411.92745289171944" name="XMXNZJIH"/>
      <point x="370.1281566461771" y="407.6848122046001" type="curve" name="HHSAXFEB"/>
      <point x="328.62815664617705" y="401.3208511739212" name="GGPTDLPN"/>
      <point x="291.12815664617705" y="389.3000358937499" name="AXKGOYES"/>
      <point x="257.1281566461771" y="372.32947314527274" type="curve" name="SVLCVIEL"/>
      <point x="239.53627355414028" y="370.2081528017131" name="CQTGMTJN"/>
      <point x="222.44439046210346" y="367.3797256769669" name="HDCYHEHH"/>
      <point x="206.3525073700667" y="363.1370849898476" type="curve" name="QKGKGZYP"/>
      <point x="170.3525073700667" y="344.7523086789974" name="BKDTFNAP"/>
      <point x="138.35250737006672" y="319.29646455628165" name="VTOFDKQG"/>
      <point x="111.35250737006672" y="288.1837661840736" type="curve" name="GBNQLGVJ"/>
      <point x="127.94439046210351" y="291.7193000900063" name="TYBCOTEP"/>
      <point x="145.0362735541403" y="294.5477272147525" name="GRBHLMTF"/>
      <point x="162.6281566461771" y="296.6690475583122" type="curve" name="GAKKHIAR"/>
      <point x="95.6281566461771" y="218.8873016277919" name="SOPRSCSM"/>
      <point x="54.6281566461771" y="100.09336238845191" name="NGPYWKYE"/>
    </contour>
  </outline>
</glyph>
<glyph name="u" format="2">
  <advance width="419"/>
  <unicode hex="0075"/>
  <outline>
    <contour>
      <point x="606.2662876565512" y="307.9827560572969" type="curve" name="ILLEPGDN"/>
      <point x="562.5825214724777" y="315.76093065034894" name="MKAWDJBL"/>
      <point x="518.7774349448445" y="320.71067811865476" name="FLFDSOTF"/>
      <point x="478.5936687607709" y="323.53910524340097" type="curve" name="JRWIXPKE"/>
      <point x="392.09366876077087" y="310.10407640085657" name="RHREPFVY"/>
      <point x="324.09366876077087" y="264.8492424049175" name="JYLNMLUR"/>
      <point x="280.0936687607709" y="191.31013716151656" type="curve" smooth="yes" name="SRLZZGOY"/>
      <point x="254.09366876077092" y="147.4695167279506" name="FIORPQYA"/>
      <point x="221.67335854398794" y="117.06392513692907" name="MQMRXPWR"/>
      <point x="184.1966991411009" y="117.06392513692907" type="curve" smooth="yes" name="DDIFXNZQ"/>
      <point x="146.72003973821387" y="117.06392513692907" name="VMZDRHJG"/>
      <point x="141.74947698973673" y="151.00505063388334" name="YHLXROVH"/>
      <point x="166.24947698973673" y="191.31013716151656" type="curve" smooth="yes" name="INQELMIM"/>
      <point x="210.2494769897367" y="264.8492424049175" name="WQQPEKLF"/>
      <point x="278.2494769897367" y="310.10407640085657" name="TJRLPLAI"/>
      <point x="364.74947698973676" y="323.53910524340097" type="curve" name="AKZUFZNW"/>
      <point x="328.5657108056631" y="320.71067811865476" name="HGBYSMVY"/>
      <point x="291.7606242780299" y="315.76093065034894" name="FLNZSDRW"/>
      <point x="259.07685809395633" y="307.9827560572969" type="curve" name="PAOMJEQB"/>
      <point x="165.57685809395636" y="293.1335136523794" name="RZNHZSSO"/>
      <point x="95.07685809395639" y="242.92893218813452" name="XSCSJPLJ"/>
      <point x="51.07685809395639" y="158.07611844574882" type="curve" smooth="yes" name="HRPRSELP"/>
      <point x="-6.423141906043611" y="48.47456736183395" name="MMGEXFFZ"/>
      <point x="39.93829380769367" y="-54.05591591021545" name="MZWKJVEA"/>
      <point x="118.54846686296008" y="-51.227488785469234" type="curve" smooth="yes" name="XEBDGMJE"/>
      <point x="153.81801948466057" y="-49.106168441909574" name="GEKEUNVY"/>
      <point x="187.63782463805518" y="-30.72139213105936" name="HCGMHDMA"/>
      <point x="218.09366876077092" y="-2.4371208835974585" type="curve" name="VKYXBRWZ"/>
      <point x="217.09366876077092" y="-13.750829382582253" name="YBHRHOKW"/>
      <point x="215.59366876077092" y="-22.94321753800733" name="YHJQOUVF"/>
      <point x="214.59366876077092" y="-34.25692603699213" type="curve" name="QQGCNSRD"/>
      <point x="254.27743494484446" y="-36.37824638055173" name="JQDUONJQ"/>
      <point x="298.5825214724777" y="-42.0351006300441" name="BEIQZBNV"/>
      <point x="342.2662876565513" y="-49.81327522309613" type="curve" name="UKWXMWOK"/>
      <point x="362.76628765655124" y="163.02586591405466" name="MGEGYJRT"/>
      <point x="452.2662876565512" y="283.94112549695427" name="WIFRDIAE"/>
    </contour>
  </outline>
</glyph>
<glyph name="v" format="2">
  <advance width="382"/>
  <unicode hex="0076"/>
  <outline>
    <contour>
      <point x="79.11774900609146" y="-41.327993848857545" type="curve" name="HQYCHSGZ"/>
      <point x="121.16547622084397" y="-37.792459942924836" name="WVEJUSGY"/>
      <point x="167.8345237791561" y="-37.792459942924836" name="ZHMHTTEE"/>
      <point x="214.8822509939086" y="-41.327993848857545" type="curve" name="FRANJGCB"/>
      <point x="275.60155108391484" y="173.63246763185288" name="GDVUYLJW"/>
      <point x="410.23506473629425" y="291.7193000900063" name="UZYFUYOV"/>
      <point x="611.9543648263005" y="307.27564927611036" type="curve" name="UOLULYYR"/>
      <point x="566.8563850798539" y="315.0538238691624" name="GHYXXVBM"/>
      <point x="521.8441917710342" y="320.71067811865476" name="VBEVQELP"/>
      <point x="479.7462120245875" y="324.2462120245875" type="curve" name="LKOUEQDT"/>
      <point x="360.2045814642448" y="310.8111831820431" name="KJFMWRQX"/>
      <point x="264.9558441227157" y="259.19238815542514" name="ZGCSLPPG"/>
      <point x="197.4142135623731" y="172.21825406947977" type="curve" name="KCNTRHTD"/>
      <point x="216.37258300203047" y="259.8994949366117" name="FHCYZEAA"/>
      <point x="261.9167388793147" y="310.8111831820431" name="BAAEKVGB"/>
      <point x="333.37510831897214" y="324.2462120245875" type="curve" name="OCUVEJJL"/>
      <point x="295.0700217913389" y="321.4177848998413" name="JQXUOBWZ"/>
      <point x="257.35072170133265" y="315.76093065034894" name="CPZLNAHK"/>
      <point x="223.0456351736994" y="307.27564927611036" type="curve" name="EANHYMIL"/>
      <point x="104.7649352637057" y="291.7193000900063" name="DMGZNALR"/>
      <point x="56.39844891608513" y="173.63246763185288" name="GKCDLMMM"/>
    </contour>
  </outline>
</glyph>
